<svg width="126" height="126" viewBox="0 0 126 126" fill="none" xmlns="http://www.w3.org/2000/svg">
<circle cx="52.5" cy="73.5" r="52.5" fill="#2ED66B"/>
<path d="M36.111 41.0817L64.1336 32.2873C65.5615 31.8391 66.3739 30.2577 65.9477 28.7562C65.5215 27.2539 64.0186 26.3996 62.5901 26.8477L36.6646 34.984L38.2074 40.4236L36.1104 41.0817H36.111Z" fill="#252525"/>
<path d="M22.8125 12.633L46.5874 50.2457L61.0545 40.1284L37.2797 2.51562L22.8125 12.633Z" fill="white"/>
<path d="M46.5884 50.396C46.5781 50.396 46.5685 50.3953 46.5588 50.3932C46.5182 50.3849 46.4824 50.3609 46.4604 50.3257L22.6855 12.713C22.6422 12.6448 22.6608 12.5539 22.7269 12.5078L37.194 2.39049C37.2278 2.36639 37.2705 2.35813 37.3111 2.36639C37.3517 2.37465 37.3868 2.39875 37.4095 2.43386L61.1844 40.0466C61.2278 40.1148 61.2092 40.2057 61.1431 40.2518L46.6759 50.3691C46.6504 50.387 46.6201 50.3967 46.5891 50.3967L46.5884 50.396ZM23.0188 12.673L46.6318 50.029L60.8498 40.0859L37.2374 2.72991L23.0188 12.673Z" fill="black"/>
<path d="M54.6485 44.6054C52.296 40.8828 53.2571 35.8598 56.7958 33.3848L61.056 40.1241L54.6485 44.6054Z" fill="#2ED66B"/>
<path d="M52.9954 45.7632L46.5879 50.2445L42.3276 43.5051C45.8663 41.0301 50.6422 42.0414 52.9954 45.7639V45.7632Z" fill="#2ED66B"/>
<path d="M29.22 8.14648C31.5725 11.869 30.6114 16.892 27.0727 19.3671L22.8125 12.6277L29.22 8.14648Z" fill="#2ED66B"/>
<path d="M41.5388 9.25569C38.0001 11.7307 33.2243 10.7194 30.8711 6.99684L37.2786 2.51562L41.5388 9.255V9.25569Z" fill="#2ED66B"/>
<path d="M46.5884 50.396C46.5781 50.396 46.5685 50.3953 46.5588 50.3932C46.5182 50.3849 46.4824 50.3609 46.4604 50.3257L22.6855 12.713C22.6422 12.6448 22.6608 12.5539 22.7269 12.5078L37.194 2.39049C37.2278 2.36639 37.2705 2.35813 37.3111 2.36639C37.3517 2.37465 37.3868 2.39875 37.4095 2.43386L61.1844 40.0466C61.2278 40.1148 61.2092 40.2057 61.1431 40.2518L46.6759 50.3691C46.6504 50.387 46.6201 50.3967 46.5891 50.3967L46.5884 50.396ZM23.0188 12.673L46.6318 50.029L60.8498 40.0859L37.2374 2.72991L23.0188 12.673Z" fill="black"/>
<path d="M46.9128 47.9856C46.8653 47.9856 46.8177 47.9629 46.7881 47.9209C46.74 47.852 46.7572 47.7577 46.8253 47.7095L58.6139 39.4651L52.6635 30.0511C52.6187 29.9802 52.6401 29.8866 52.7103 29.8418C52.7805 29.7971 52.8749 29.8184 52.9196 29.8886L58.9471 39.4245C58.9905 39.4927 58.9719 39.5836 58.9058 39.6297L46.9988 47.9567C46.9727 47.9753 46.9424 47.9842 46.9121 47.9842L46.9128 47.9856Z" fill="black"/>
<path d="M31.6172 23.7903C31.5669 23.7903 31.518 23.7655 31.4891 23.7194L24.9673 13.4013C24.9239 13.3332 24.9425 13.2423 25.0086 13.1962L36.9156 4.8692C36.9844 4.82101 37.0787 4.83822 37.1269 4.90638C37.1751 4.97522 37.1579 5.06954 37.0898 5.11774L25.3012 13.3621L31.7459 23.5576C31.7906 23.6285 31.7693 23.7221 31.6991 23.7669C31.6743 23.7827 31.6461 23.7903 31.6185 23.7903H31.6172Z" fill="black"/>
<path d="M39.5136 33.116C39.1728 33.116 38.8382 33.0919 38.5119 33.043C38.4293 33.0306 38.3721 32.9535 38.3845 32.8709C38.3969 32.7882 38.474 32.7311 38.5566 32.7435C40.516 33.0382 42.8038 32.3944 44.8306 30.9762C46.982 29.4712 48.5015 27.3067 48.8946 25.1862C48.9097 25.1036 48.9889 25.0499 49.0715 25.0651C49.1541 25.0802 49.2085 25.1594 49.1927 25.242C48.7851 27.4396 47.2196 29.6764 45.0041 31.2254C43.2485 32.453 41.2981 33.1173 39.5129 33.1173L39.5136 33.116Z" fill="black"/>
<path d="M34.9076 27.3086C34.8952 27.3086 34.8835 27.3073 34.8711 27.3045C34.7899 27.2845 34.7403 27.2019 34.7603 27.1207C35.2787 25.0319 36.7733 22.9961 38.8621 21.5352C41.0797 19.9848 43.6504 19.3307 45.7385 19.7872C45.8205 19.8051 45.8721 19.8856 45.8542 19.9675C45.8363 20.0495 45.7557 20.1011 45.6738 20.0832C43.6663 19.6453 41.185 20.2808 39.0356 21.7837C37.006 23.2026 35.5548 25.1744 35.0543 27.1937C35.037 27.2625 34.9751 27.3086 34.9076 27.3086Z" fill="black"/>
<path d="M38.7738 28.3597L39.3941 27.8282C39.0472 27.3663 38.8096 26.8341 38.7456 26.4589L39.673 26.0031C39.7521 26.4107 39.938 26.9201 40.2933 27.3518C40.6051 27.7304 40.9618 27.8661 41.2227 27.6423C41.4705 27.4296 41.4526 27.0826 41.211 26.4513C40.8613 25.5391 40.7883 24.7749 41.4217 24.2317C41.9958 23.7394 42.7848 23.7649 43.507 24.3577L44.1273 23.8262L44.663 24.4768L44.0888 24.969C44.4358 25.431 44.59 25.8083 44.6657 26.1167L43.77 26.5566C43.6998 26.3225 43.5986 25.8881 43.2048 25.4103C42.8495 24.9787 42.5521 24.9959 42.369 25.1528C42.1535 25.3373 42.2079 25.6878 42.464 26.4313C42.8406 27.4564 42.7435 28.0829 42.1563 28.5869C41.5752 29.0853 40.7353 29.0922 39.9759 28.4403L39.3101 29.011L38.7745 28.3604L38.7738 28.3597Z" fill="#2ED66B"/>
<path d="M29.7178 8.70961L46.5875 50.2471L62.5643 43.0681L45.6945 1.53125L29.7178 8.70961Z" fill="white"/>
<path d="M46.5884 50.3982C46.5691 50.3982 46.5498 50.3948 46.5319 50.3872C46.4941 50.3721 46.4631 50.3418 46.4479 50.3039L29.5782 8.76704C29.5472 8.6913 29.5823 8.60524 29.6567 8.5715L45.6334 1.39245C45.6706 1.37524 45.714 1.37455 45.7518 1.3897C45.7897 1.40485 45.8207 1.43514 45.8358 1.47301L62.7056 43.0099C62.7366 43.0856 62.7015 43.1717 62.6271 43.2054L46.651 50.3844C46.6311 50.3934 46.6104 50.3975 46.5891 50.3975L46.5884 50.3982ZM29.9135 8.78769L46.6689 50.0436L62.3689 42.9892L45.6135 1.73326L29.9135 8.78769Z" fill="black"/>
<path d="M55.4905 46.2512C53.821 42.1411 55.6358 37.3852 59.5435 35.6289L62.5665 43.0719L55.4905 46.2512Z" fill="#2ED66B"/>
<path d="M53.6643 47.0666L46.589 50.246L43.5659 42.803C47.4736 41.0474 51.9948 42.9558 53.6643 47.0659V47.0666Z" fill="#2ED66B"/>
<path d="M36.7938 5.53125C38.4633 9.64138 36.6485 14.3973 32.7408 16.1536L29.7178 8.71058L36.7931 5.53125H36.7938Z" fill="#2ED66B"/>
<path d="M48.717 8.97355C44.8093 10.7291 40.2882 8.82071 38.6187 4.71058L45.6947 1.53125L48.7177 8.97424L48.717 8.97355Z" fill="#2ED66B"/>
<path d="M46.5884 50.3982C46.5691 50.3982 46.5498 50.3948 46.5319 50.3872C46.4941 50.3721 46.4631 50.3418 46.4479 50.3039L29.5782 8.76704C29.5472 8.6913 29.5823 8.60524 29.6567 8.5715L45.6334 1.39245C45.6706 1.37524 45.714 1.37455 45.7518 1.3897C45.7897 1.40485 45.8207 1.43514 45.8358 1.47301L62.7056 43.0099C62.7366 43.0856 62.7015 43.1717 62.6271 43.2054L46.651 50.3844C46.6311 50.3934 46.6104 50.3975 46.5891 50.3975L46.5884 50.3982ZM29.9135 8.78769L46.6689 50.0436L62.3689 42.9892L45.6135 1.73326L29.9135 8.78769Z" fill="black"/>
<path d="M47.3246 48.0861C47.2668 48.0861 47.2117 48.0531 47.1862 47.9966C47.1518 47.9202 47.1862 47.8307 47.2626 47.7963L60.2787 41.9478L56.0564 31.5526C56.0247 31.4748 56.0619 31.3867 56.1397 31.355C56.2175 31.3234 56.3056 31.3606 56.3373 31.4383L60.614 41.9691C60.645 42.0448 60.6099 42.1309 60.5355 42.1646L47.3866 48.073C47.3666 48.082 47.3452 48.0861 47.3246 48.0861Z" fill="black"/>
<path d="M36.47 21.3713C36.4101 21.3713 36.3536 21.3355 36.3295 21.277L31.7017 9.88291C31.6707 9.80718 31.7058 9.72112 31.7802 9.68739L44.9292 3.77899C45.0056 3.74456 45.0951 3.77899 45.1295 3.85541C45.1639 3.93183 45.1295 4.02133 45.0531 4.05575L32.037 9.90425L36.6098 21.1634C36.6414 21.2412 36.6042 21.3293 36.5265 21.361C36.5079 21.3686 36.4886 21.372 36.4693 21.372L36.47 21.3713Z" fill="black"/>
<path d="M44.1062 32.1886C43.2264 32.1886 42.3851 32.0544 41.6202 31.7831C41.541 31.7549 41.4997 31.6688 41.5279 31.5897C41.5561 31.5112 41.6429 31.4692 41.7214 31.4974C43.5974 32.1625 45.9575 31.9669 48.1964 30.9611C50.5716 29.894 52.4394 28.0572 53.1926 26.0475C53.2222 25.969 53.3096 25.9298 53.3874 25.9587C53.4659 25.9883 53.5058 26.0758 53.4762 26.1536C52.6955 28.2368 50.7678 30.1377 48.3203 31.2372C46.9179 31.8671 45.4666 32.1879 44.1062 32.1879V32.1886Z" fill="black"/>
<path d="M39.0994 25.4586C39.0787 25.4586 39.0581 25.4545 39.0374 25.4455C38.961 25.4111 38.9266 25.3216 38.961 25.2452C39.8326 23.2893 41.6556 21.5736 43.9627 20.5368C46.4116 19.4359 49.0532 19.2859 51.027 20.134C51.1041 20.1671 51.1392 20.2559 51.1062 20.333C51.0731 20.4101 50.9836 20.4452 50.9072 20.4122C49.0091 19.597 46.4597 19.7464 44.0866 20.8129C41.8463 21.8194 40.0791 23.48 39.2378 25.3684C39.2123 25.4249 39.1572 25.4579 39.0994 25.4586Z" fill="black"/>
<path d="M42.6932 27.2261L43.3948 26.822C43.1339 26.3015 42.992 25.7328 42.9941 25.3514L43.9848 25.0809C43.9924 25.4967 44.0867 26.033 44.3614 26.526C44.6023 26.9576 44.9294 27.16 45.2247 26.9893C45.5056 26.8275 45.5476 26.4833 45.4196 25.8161C45.233 24.8523 45.2943 24.0867 46.0103 23.6736C46.6602 23.2991 47.4319 23.4754 48.0392 24.1969L48.7407 23.7928L49.1552 24.5349L48.5052 24.9094C48.7662 25.4299 48.8529 25.8306 48.8743 26.1487L47.9173 26.4096C47.8884 26.1659 47.8643 25.7198 47.56 25.1738C47.2853 24.6816 46.9899 24.6416 46.7827 24.7607C46.539 24.9012 46.5321 25.2557 46.6547 26.0358C46.8474 27.116 46.6443 27.7136 45.9793 28.0963C45.3218 28.475 44.4943 28.3208 43.8609 27.5346L43.1077 27.9683L42.6932 27.2261Z" fill="#2ED66B"/>
<path d="M37.8374 6.02676L46.5881 50.2463L63.5965 46.5222L54.8458 2.30273L37.8374 6.02676Z" fill="white"/>
<path d="M46.5895 50.3967C46.5598 50.3967 46.5316 50.3884 46.5061 50.3719C46.4717 50.3498 46.4483 50.3147 46.4407 50.2748L37.6894 6.05531C37.6735 5.97407 37.7252 5.89558 37.8057 5.87768L54.8141 2.15365C54.8541 2.14539 54.8954 2.15296 54.9298 2.17499C54.9642 2.19702 54.9876 2.23214 54.9952 2.27207L63.7466 46.4916C63.7624 46.5728 63.7108 46.6513 63.6302 46.6692L46.6218 50.3932C46.6108 50.3953 46.6005 50.3967 46.5895 50.3967ZM38.0157 6.14137L46.7079 50.0634L63.4202 46.4048L54.7281 2.48274L38.0157 6.14137Z" fill="black"/>
<path d="M56.0664 48.172C55.2003 43.7961 57.8708 39.5104 62.0312 38.5996L63.5995 46.5231L56.0664 48.1727V48.172Z" fill="#2ED66B"/>
<path d="M54.1233 48.5965L46.5908 50.2454L45.0225 42.3218C49.1828 41.411 53.2572 44.2199 54.1233 48.5958V48.5965Z" fill="#2ED66B"/>
<path d="M45.3701 4.37891C46.2362 8.75478 43.5656 13.0405 39.4052 13.9513L37.8369 6.02778L45.3694 4.37891H45.3701Z" fill="#2ED66B"/>
<path d="M56.4133 10.2256C52.2529 11.1364 48.1786 8.32748 47.3125 3.95161L54.845 2.30273L56.4133 10.2263V10.2256Z" fill="#2ED66B"/>
<path d="M46.5895 50.3967C46.5598 50.3967 46.5316 50.3884 46.5061 50.3719C46.4717 50.3498 46.4483 50.3147 46.4407 50.2748L37.6894 6.05531C37.6735 5.97407 37.7252 5.89558 37.8057 5.87768L54.8141 2.15365C54.8541 2.14539 54.8954 2.15296 54.9298 2.17499C54.9642 2.19702 54.9876 2.23214 54.9952 2.27207L63.7466 46.4916C63.7624 46.5728 63.7108 46.6513 63.6302 46.6692L46.6218 50.3932C46.6108 50.3953 46.6005 50.3967 46.5895 50.3967ZM38.0157 6.14137L46.7079 50.0634L63.4202 46.4048L54.7281 2.48274L38.0157 6.14137Z" fill="black"/>
<path d="M47.7424 48.2901C47.6729 48.2901 47.6102 48.2419 47.5944 48.171C47.5765 48.0891 47.6281 48.0085 47.71 47.9906L61.5633 44.9579L59.3733 33.8922C59.3568 33.8103 59.4105 33.7304 59.4924 33.7139C59.575 33.6974 59.6542 33.7511 59.6707 33.833L61.8896 45.044C61.9055 45.1252 61.8538 45.2037 61.7733 45.2216L47.7747 48.2866C47.7637 48.2887 47.7527 48.2901 47.7424 48.2901Z" fill="black"/>
<path d="M42.1123 19.8426C42.0414 19.8426 41.978 19.7923 41.9636 19.7207L39.5629 7.58996C39.5471 7.50872 39.5987 7.43024 39.6793 7.41234L53.6778 4.34729C53.7597 4.32939 53.8403 4.38103 53.8582 4.46296C53.8761 4.54488 53.8245 4.62543 53.7425 4.64333L39.8892 7.67602L42.261 19.6608C42.2775 19.7427 42.2238 19.8226 42.1419 19.8391C42.1316 19.8412 42.1219 19.8419 42.1123 19.8419V19.8426Z" fill="black"/>
<path d="M49.5066 32.229C47.8942 32.229 46.3865 31.8496 45.1789 31.1164C45.1073 31.073 45.0846 30.9794 45.128 30.9085C45.1713 30.8369 45.265 30.8142 45.3359 30.8576C47.0508 31.8992 49.4013 32.1973 51.784 31.6755C54.3114 31.1219 56.4862 29.7092 57.6009 27.8965C57.6449 27.8249 57.7379 27.8028 57.8095 27.8469C57.8811 27.891 57.9031 27.9839 57.859 28.0555C56.7024 29.9371 54.4553 31.4008 51.8487 31.9715C51.0584 32.1443 50.2701 32.2297 49.5066 32.2297V32.229Z" fill="black"/>
<path d="M43.9217 24.3963C43.8914 24.3963 43.8612 24.3873 43.835 24.3687C43.7668 24.3205 43.7503 24.2262 43.7985 24.1574C45.0198 22.4204 47.13 21.115 49.5871 20.5773C52.1943 20.0066 54.8119 20.4066 56.5881 21.6472C56.657 21.6954 56.6735 21.7897 56.6253 21.8586C56.5778 21.9274 56.4828 21.9439 56.4139 21.8958C54.7058 20.7026 52.1778 20.3205 49.6511 20.8734C47.267 21.3952 45.2243 22.6558 44.0457 24.3315C44.0161 24.3735 43.9692 24.3963 43.9217 24.3963Z" fill="black"/>
<path d="M47.0854 26.8685L47.849 26.6179C47.6906 26.0534 47.6583 25.4661 47.7319 25.093L48.7543 25.0331C48.6841 25.4427 48.6758 25.988 48.8527 26.5277C49.0076 27.0014 49.2906 27.2671 49.6128 27.1611C49.9185 27.0606 50.0238 26.7315 50.0238 26.0513C50.0218 25.0675 50.2248 24.3295 51.0049 24.074C51.7119 23.842 52.4355 24.1745 52.8961 25.0076L53.6596 24.757L53.9267 25.5708L53.2197 25.8028C53.378 26.3673 53.3876 26.7776 53.3491 27.0936L52.3618 27.1508C52.3797 26.9057 52.4389 26.463 52.2427 25.8654C52.0658 25.3257 51.7835 25.2251 51.5584 25.2988C51.2933 25.3856 51.2197 25.7319 51.1935 26.5222C51.1797 27.621 50.8686 28.1649 50.145 28.4024C49.4297 28.6372 48.6469 28.3143 48.1732 27.4124L47.3533 27.6816L47.0861 26.8678L47.0854 26.8685Z" fill="#2ED66B"/>
<path d="M44.2695 69.2906L72.1455 60.5422C73.5748 60.094 74.3871 58.512 73.961 57.0083L65.9479 28.7578L66.0071 29.3106C66.1407 30.5582 65.5128 31.7588 64.4395 32.3075L64.1772 32.4418L36.2998 41.1908L44.2702 69.2906H44.2695Z" fill="#252525"/>
<path d="M36.1109 41.2351C36.0462 41.2351 35.987 41.1938 35.9664 41.1291C35.9416 41.0492 35.9856 40.9646 36.0655 40.9391L38.0221 40.325L36.5192 35.0266C36.4965 34.9474 36.5412 34.8655 36.6197 34.8407L62.5452 26.7044C63.2543 26.482 64.0075 26.555 64.6664 26.9103C65.3638 27.2868 65.8705 27.9278 66.0936 28.7161C66.5411 30.2941 65.6826 31.9615 64.1789 32.4338L36.1564 41.2282C36.1412 41.2331 36.1261 41.2351 36.1109 41.2351ZM36.851 35.0858L38.3113 40.2341L64.0881 32.1446C65.4361 31.7219 66.2051 30.2211 65.8017 28.7994C65.6006 28.091 65.1462 27.5147 64.5218 27.1774C63.9359 26.8614 63.266 26.796 62.6354 26.9942L36.8504 35.0865L36.851 35.0858Z" fill="black"/>
<path d="M40.5916 39.4836L60.0579 33.3748L57.8369 25.5449L38.3706 31.6537L40.5916 39.4836Z" fill="white"/>
<path d="M40.5921 39.633C40.5673 39.633 40.5425 39.6268 40.5198 39.6151C40.484 39.5959 40.4571 39.5628 40.4461 39.5229L38.2251 31.693C38.2024 31.6138 38.2472 31.5319 38.3257 31.5071L57.792 25.3977C57.8312 25.3853 57.8732 25.3894 57.909 25.4087C57.9448 25.428 57.9717 25.461 57.9827 25.5009L60.2037 33.3308C60.2264 33.41 60.1816 33.4919 60.1032 33.5167L40.6368 39.6262C40.6224 39.631 40.6065 39.633 40.5914 39.633H40.5921ZM38.557 31.7522L40.6954 39.2902L59.8718 33.2716L57.7335 25.7336L38.557 31.7522Z" fill="black"/>
<path d="M42.6923 38.8187L62.1586 32.71L61.3311 29.793L41.8647 35.9024L42.6923 38.8187Z" fill="white"/>
<path d="M42.6928 38.9714C42.668 38.9714 42.6432 38.9652 42.6205 38.9535C42.5847 38.9343 42.5578 38.9012 42.5468 38.8613L41.7193 35.9449C41.6966 35.8658 41.7413 35.7838 41.8198 35.7591L61.2861 29.6496C61.3254 29.6372 61.3674 29.6414 61.4032 29.6606C61.439 29.6799 61.4658 29.713 61.4768 29.7529L62.3044 32.6699C62.3271 32.7491 62.2823 32.831 62.2039 32.8558L42.7375 38.9652C42.7224 38.97 42.7072 38.9721 42.6921 38.9721L42.6928 38.9714ZM42.0518 36.0041L42.7967 38.6293L61.9732 32.6107L61.2283 29.9856L42.0518 36.0041Z" fill="black"/>
<path d="M51.7983 51.3316C51.3728 49.8307 49.874 48.9743 48.4455 49.4142L36.6163 53.0596C35.1884 53.5078 33.6937 52.6975 33.2676 51.1953L34.8235 56.6658C35.2497 58.168 36.7526 59.0224 38.1811 58.5742L49.98 54.871C51.4114 54.4214 52.2258 52.8366 51.799 51.3309L51.7983 51.3316Z" fill="#252525"/>
<path d="M37.4054 58.8414C36.9572 58.8414 36.5125 58.7298 36.1042 58.5088C35.4075 58.1322 34.9001 57.4913 34.677 56.703L33.0474 50.9584C33.0413 50.9357 33.0399 50.913 33.044 50.8917C32.7748 49.4066 33.6182 47.9127 35.0275 47.4707L37.6746 46.6397C37.7538 46.6149 37.8392 46.659 37.8646 46.7388C37.8894 46.8187 37.8454 46.9034 37.7655 46.9289L35.1183 47.7598C33.7703 48.1826 33.0013 49.6834 33.4048 51.1051C33.6058 51.8135 34.0602 52.3898 34.6846 52.7271C35.2705 53.0431 35.9404 53.1085 36.571 52.9102L48.4009 49.2648C49.1107 49.0459 49.8632 49.1223 50.52 49.4789C51.2153 49.8569 51.7213 50.4986 51.9444 51.2855C52.3933 52.8669 51.532 54.5385 50.025 55.0114L38.2261 58.7147C37.9569 58.7994 37.6808 58.8414 37.4068 58.8414H37.4054ZM33.7676 52.387L34.9683 56.6211C35.1693 57.3295 35.6237 57.9057 36.2481 58.2431C36.834 58.5591 37.5032 58.6245 38.1345 58.4262L49.9334 54.723C51.2849 54.2989 52.0559 52.7939 51.6518 51.3688C51.4508 50.661 50.9971 50.0841 50.374 49.7461C49.7895 49.4287 49.1203 49.3605 48.489 49.5554L36.6598 53.2008C35.9507 53.4231 35.1975 53.3502 34.5393 52.9949C34.2461 52.8366 33.9858 52.6307 33.7669 52.387H33.7676Z" fill="black"/>
<path d="M44.1248 69.4849C44.1 69.4849 44.0752 69.4787 44.0525 69.467C44.0167 69.4477 43.9899 69.4147 43.9788 69.3747L40.6859 57.7665C40.6632 57.6859 40.71 57.6019 40.7906 57.5792C40.8711 57.5565 40.9551 57.6033 40.9778 57.6839L44.2281 69.142L72.0979 60.3957C73.4486 59.9716 74.219 58.4687 73.8149 57.0443L65.8025 28.7965C65.7798 28.716 65.8266 28.632 65.9072 28.6093C65.9871 28.5865 66.071 28.6333 66.0945 28.7139L74.1068 56.9617C74.555 58.5417 73.6951 60.2126 72.1894 60.6849L44.1709 69.478C44.1558 69.4828 44.1406 69.4849 44.1255 69.4849H44.1248Z" fill="black"/>
<path d="M39.2687 52.3644C39.2026 52.3644 39.142 52.3211 39.1227 52.2543L35.9764 41.1617C35.9537 41.0812 36.0005 40.9972 36.0811 40.9745C36.1616 40.9518 36.2456 40.9986 36.2683 41.0791L39.4146 52.1717C39.4373 52.2522 39.3905 52.3362 39.31 52.3589C39.2962 52.3631 39.2824 52.3644 39.2687 52.3644Z" fill="black"/>
<path d="M49.2002 53.3356C49.0115 53.3356 48.8236 53.2887 48.6521 53.1958C48.3596 53.0381 48.1475 52.7696 48.0539 52.4399C47.8666 51.7803 48.2274 51.0829 48.8573 50.8853C49.1561 50.7917 49.4735 50.822 49.7509 50.9721C50.0435 51.1297 50.2556 51.3982 50.3492 51.728C50.5365 52.3875 50.1757 53.085 49.5458 53.2825C49.4322 53.3183 49.3158 53.3356 49.2002 53.3356ZM48.3451 52.3573C48.416 52.6079 48.5764 52.8109 48.796 52.9294C49.0005 53.0402 49.2353 53.0622 49.4549 52.9934C49.9299 52.8447 50.1998 52.3139 50.0573 51.8106C49.9864 51.56 49.826 51.3569 49.6064 51.2385C49.4019 51.1283 49.1678 51.1049 48.9475 51.1745C48.4725 51.3232 48.2026 51.854 48.3451 52.3573Z" fill="black"/>
<path d="M80.5827 90.3088H0.151475C0.0674756 90.3088 0 90.2406 0 90.1573C0 90.074 0.0681641 90.0059 0.151475 90.0059H80.5827C80.6667 90.0059 80.7342 90.074 80.7342 90.1573C80.7342 90.2406 80.6667 90.3088 80.5827 90.3088Z" fill="black"/>
<path d="M83.4318 0.986241L120.49 8.75638C123.97 9.48623 126.2 12.8945 125.472 16.3688L107.932 100.021C107.203 103.496 103.792 105.721 100.312 104.991L63.2535 97.221C59.7736 96.4911 57.5435 93.0829 58.2719 89.6085L75.8117 5.95679C76.5402 2.48174 79.9519 0.256392 83.4318 0.986241Z" fill="black"/>
<path d="M125.61 21.1015L122.508 20.4512L120.789 28.6535L123.891 29.3039L125.61 21.1015Z" fill="black"/>
<path d="M123.965 20.9156L122.477 20.6035L120.82 28.5067L122.308 28.8188L123.965 20.9156Z" fill="white"/>
<path d="M122.306 28.9713C122.296 28.9713 122.285 28.9699 122.275 28.9679L120.787 28.656C120.705 28.6388 120.652 28.5582 120.67 28.4763L122.327 20.5734C122.344 20.4915 122.424 20.4392 122.506 20.4564L123.995 20.7683C124.034 20.7765 124.068 20.7999 124.091 20.8337C124.113 20.8674 124.12 20.908 124.112 20.948L122.455 28.8508C122.446 28.8901 122.423 28.9245 122.389 28.9465C122.365 28.9631 122.336 28.9713 122.307 28.9713H122.306ZM120.997 28.3903L122.189 28.6402L123.784 21.034L122.592 20.7841L120.997 28.3903Z" fill="black"/>
<path d="M80.1232 0.294835L117.182 8.06497C120.661 8.79482 122.892 12.2031 122.163 15.6774L104.623 99.3292C103.895 102.804 100.483 105.03 97.0033 104.3L59.9449 96.5296C56.465 95.7997 54.2349 92.3915 54.9633 88.9171L72.5031 5.26538C73.2316 1.79034 76.6433 -0.435014 80.1232 0.294835Z" fill="#0084FF"/>
<path d="M120.804 22.2186L71.2029 11.8203L56.6981 81.0093L106.299 91.4076L120.804 22.2186Z" fill="white"/>
<path d="M106.297 91.5616C106.286 91.5616 106.276 91.5609 106.266 91.5582L56.664 81.1581C56.5821 81.1409 56.5298 81.0603 56.547 80.9784L71.054 11.7886C71.0623 11.7493 71.0857 11.7149 71.1195 11.6929C71.1532 11.6708 71.1945 11.6626 71.2337 11.6715L120.835 22.0716C120.917 22.0888 120.97 22.1694 120.952 22.2513L106.445 91.4411C106.437 91.4804 106.414 91.5148 106.38 91.5368C106.355 91.5534 106.326 91.5616 106.297 91.5616H106.297ZM56.8747 80.893L106.179 91.2311L120.625 22.338L71.3198 11.9999L56.8747 80.893Z" fill="black"/>
<path d="M98.3735 104.601C97.9294 104.601 97.4812 104.555 97.0336 104.461L59.8705 96.669C56.224 95.9048 54.0896 92.3905 54.9062 88.4954L72.468 4.73903C73.1317 1.57314 76.7032 -0.57716 80.1107 0.137541L117.274 7.92971C118.958 8.28293 120.428 9.26341 121.414 10.6901C122.369 12.0719 122.737 13.721 122.424 15.2137L104.862 98.9701C104.464 100.868 103.435 102.47 101.964 103.481C100.889 104.22 99.6487 104.602 98.3728 104.602L98.3735 104.601ZM78.7736 0.301414C75.9568 0.301414 73.3128 2.18525 72.7647 4.80031L55.2029 88.5567C54.4214 92.2831 56.4554 95.6424 59.9325 96.3716L97.0956 104.164C98.7446 104.509 100.413 104.178 101.791 103.23C103.199 102.263 104.184 100.728 104.566 98.9068L122.127 15.1504C122.423 13.7382 122.072 12.1752 121.164 10.8608C120.222 9.4982 118.818 8.56179 117.211 8.22441L80.0481 0.432235C79.6233 0.343414 79.1964 0.300724 78.7729 0.300724L78.7736 0.301414Z" fill="black"/>
<path d="M99.7002 7.66746C99.6899 7.66746 99.6796 7.66608 99.6693 7.66402L89.0373 5.43477C88.9554 5.41756 88.9031 5.33701 88.9203 5.25508C88.9375 5.17315 89.018 5.12083 89.1 5.13804L99.7319 7.36729C99.8138 7.3845 99.8662 7.46505 99.8489 7.54698C99.8338 7.61858 99.7711 7.66746 99.7009 7.66746H99.7002Z" fill="black"/>
<path d="M101.582 8.8591C101.517 8.8591 101.452 8.85222 101.386 8.83845C100.874 8.73105 100.544 8.22641 100.651 7.71419C100.703 7.46565 100.849 7.25292 101.061 7.11385C101.274 6.97547 101.528 6.92727 101.776 6.9796C102.289 7.087 102.619 7.59164 102.511 8.10386C102.418 8.55067 102.022 8.85842 101.581 8.85842L101.582 8.8591ZM101.58 7.26256C101.455 7.26256 101.334 7.29836 101.227 7.36789C101.083 7.46221 100.984 7.60748 100.948 7.77615C100.875 8.1252 101.099 8.46875 101.449 8.54172C101.799 8.6147 102.142 8.39095 102.215 8.0419C102.288 7.69285 102.064 7.3493 101.714 7.27633C101.669 7.26669 101.625 7.26256 101.58 7.26256Z" fill="black"/>
<path d="M92.938 24.9048L73.6614 20.8672L69.6238 40.1438L88.9003 44.1814L92.938 24.9048Z" fill="#FED101"/>
<path d="M93.6359 42.4792C93.6255 42.4792 93.6152 42.4778 93.6049 42.4758L74.3286 38.4379C74.2466 38.4207 74.1943 38.3402 74.2115 38.2582L78.2494 18.9819C78.2576 18.9427 78.281 18.9083 78.3148 18.8862C78.3485 18.8642 78.3891 18.8559 78.4291 18.8649L97.7054 22.9027C97.7873 22.9199 97.8396 23.0005 97.8224 23.0824L93.7846 42.3587C93.7763 42.398 93.7529 42.4324 93.7192 42.4544C93.6944 42.4709 93.6655 42.4792 93.6365 42.4792H93.6359ZM74.5392 38.1722L93.5188 42.1481L97.4947 23.1685L78.5151 19.1926L74.5392 38.1722Z" fill="#FED101"/>
<path d="M86.6953 33.5687C87.2941 30.4705 85.268 27.4735 82.1699 26.8746C79.0717 26.2758 76.0747 28.3019 75.4758 31.4C74.8769 34.4982 76.903 37.4952 80.0012 38.0941C83.0994 38.6929 86.0964 36.6669 86.6953 33.5687Z" fill="white"/>
<path d="M102.395 83.4574C102.384 83.4574 102.374 83.4561 102.364 83.454L83.0875 79.4161C83.0056 79.3989 82.9532 79.3184 82.9704 79.2365L87.0083 59.9602C87.0255 59.8782 87.106 59.8259 87.188 59.8431L106.464 63.881C106.546 63.8982 106.599 63.9787 106.581 64.0607L102.543 83.337C102.528 83.4086 102.466 83.4574 102.395 83.4574H102.395ZM83.2975 79.1504L102.277 83.1263L106.253 64.1467L87.2733 60.1708L83.2975 79.1504Z" fill="#2ED66B"/>
<path d="M100.508 65.1353L81.2312 61.0977L77.1936 80.3742L96.4702 84.4119L100.508 65.1353Z" fill="#2ED66B"/>
<path d="M95.4416 80.8295L79.6111 77.5137L79.4366 78.3465L95.2672 81.6624L95.4416 80.8295Z" fill="white"/>
<path d="M98.9329 58.829C98.6982 58.829 98.4613 58.8049 98.2259 58.7553L76.3362 54.1702C75.4432 53.9829 74.677 53.4597 74.1778 52.6962C73.6787 51.9327 73.5073 51.0204 73.6938 50.1282C73.8811 49.2353 74.4043 48.469 75.1678 47.9699C75.9313 47.4707 76.8436 47.2986 77.7358 47.4859L99.6255 52.071C100.518 52.2583 101.285 52.7815 101.784 53.545C102.283 54.3086 102.454 55.2208 102.268 56.113C102.081 57.006 101.557 57.7722 100.794 58.2713C100.231 58.639 99.589 58.829 98.9322 58.829H98.9329ZM98.2878 58.4593C99.1009 58.63 99.9326 58.4731 100.628 58.018C101.323 57.5629 101.8 56.8648 101.971 56.0511C102.141 55.2373 101.985 54.4063 101.531 53.711C101.076 53.0149 100.377 52.5385 99.5636 52.3678L77.6738 47.7826C76.8608 47.6119 76.0291 47.7688 75.3337 48.2239C74.6377 48.6783 74.1613 49.3771 73.9906 50.1908C73.8205 51.0046 73.9768 51.8356 74.4312 52.5309C74.8856 53.2263 75.5844 53.7034 76.3981 53.8741L98.2878 58.4593Z" fill="#0084FF"/>
<path d="M103.654 57.29C103.423 57.29 103.188 57.2666 102.953 57.217L81.0636 52.6318C79.2206 52.2456 78.0358 50.4322 78.422 48.5898C78.8082 46.7468 80.6217 45.5613 82.464 45.9482L104.354 50.5334C106.197 50.9196 107.382 52.733 106.995 54.5753C106.659 56.1829 105.236 57.29 103.654 57.29ZM81.7624 46.1775C80.3215 46.1775 79.0244 47.1861 78.7174 48.6511C78.3656 50.3303 79.4458 51.9826 81.1249 52.3344L103.015 56.9196C104.694 57.2721 106.346 56.1912 106.698 54.512C107.05 52.8329 105.97 51.1805 104.29 50.8287L82.4006 46.2436C82.1865 46.1988 81.9724 46.1775 81.7617 46.1775H81.7624Z" fill="#0084FF"/>
<path d="M58.17 81.9371L52.0088 83.8809L56.1139 96.8926L62.2751 94.9488L58.17 81.9371Z" fill="#955B50"/>
<path d="M59.0674 84.7863L53.6003 88.9322L52.0093 83.883L58.1703 81.9395L59.0674 84.7863Z" fill="#020202"/>
<path d="M60.315 88.7378L54.1538 90.6816L56.1136 96.8934L62.2747 94.9496L60.315 88.7378Z" fill="#020202"/>
<path d="M54.2539 100.22C54.2043 97.9431 53.7623 96.6935 54.4604 94.8657L54.5217 94.7059C54.7448 94.1214 55.5282 94.0175 55.8952 94.5249L56.51 95.3737C57.1076 96.1985 58.0398 95.7985 58.0535 95.7978C58.6291 95.6161 58.7344 95.2195 59.6748 94.16L59.2983 92.9655L60.0211 91.6856L61.2418 91.3008L62.5774 92.3713L67.9357 93.5011L72.704 91.6925L74.4658 92.2839L74.0011 94.6157L68.514 100.046L62.8803 100.592L54.2539 100.22Z" fill="white"/>
<path d="M53.4199 101.649L54.253 100.223L63.088 99.9591L69.0701 98.4348L72.2597 95.4435L74.4663 92.2793L75.3117 93.1474L75.5885 94.0597L74.6012 96.9409C74.6012 96.9409 73.4873 98.0782 71.2408 100.267C71.2408 100.267 66.1703 102.06 64.8684 102.467L63.9576 102.006L62.8891 102.343L62.4147 103.241C59.5631 104.13 57.3215 104.848 57.3215 104.848L53.7697 104.462L53.4199 101.648V101.649Z" fill="white"/>
<path d="M57.322 104.998C57.3165 104.998 57.311 104.998 57.3055 104.998L53.7537 104.613C53.6842 104.605 53.6284 104.551 53.6195 104.481L53.2697 101.666C53.2656 101.633 53.2725 101.599 53.289 101.571L54.122 100.145C54.1482 100.099 54.1964 100.071 54.2487 100.07L63.0666 99.8067L68.9949 98.2962L72.1447 95.3427L74.3422 92.1916C74.3684 92.1544 74.409 92.131 74.4545 92.1276C74.4992 92.1234 74.544 92.1406 74.5756 92.173L75.4211 93.0412C75.4376 93.0584 75.4507 93.0797 75.4575 93.1031L75.7343 94.0153C75.7433 94.0456 75.7426 94.078 75.7329 94.1083L74.7457 96.9895C74.7381 97.0108 74.7264 97.0301 74.7106 97.0466C74.6995 97.0583 73.5698 98.2101 71.3474 100.375C71.3316 100.391 71.313 100.402 71.2923 100.41C71.2414 100.428 66.2039 102.209 64.9144 102.612C64.8772 102.624 64.8359 102.62 64.8008 102.603L63.945 102.169L62.995 102.469L62.5495 103.312C62.5309 103.347 62.4986 103.374 62.4607 103.385C59.6421 104.264 57.3909 104.985 57.3688 104.992C57.3537 104.996 57.3385 104.999 57.3227 104.999L57.322 104.998ZM53.9059 104.324L57.3062 104.693C57.583 104.604 59.6965 103.929 62.3099 103.114L62.7554 102.271C62.774 102.236 62.8056 102.209 62.8435 102.198L63.912 101.86C63.9492 101.849 63.9905 101.851 64.0263 101.87L64.882 102.303C66.1956 101.887 70.7354 100.284 71.1595 100.134C73.187 98.1585 74.2968 97.0336 74.4696 96.858L75.43 94.0553L75.178 93.225L74.4868 92.5145L72.3849 95.5279C72.3787 95.5361 72.3719 95.5444 72.3643 95.552L69.1746 98.5434C69.156 98.5606 69.1333 98.5736 69.1085 98.5798L63.1265 100.104C63.1154 100.107 63.1044 100.108 63.0934 100.109L54.3424 100.37L53.5775 101.68L53.9066 104.324L53.9059 104.324Z" fill="black"/>
<path d="M54.0877 96.5966C54.065 96.5966 54.0416 96.5911 54.0202 96.5808C53.7896 96.4665 51.7593 95.4531 51.3896 94.998C50.9786 94.4913 51.0557 93.7443 51.5624 93.3333C51.8075 93.1344 52.1152 93.0414 52.4306 93.0751C52.7452 93.1075 53.0275 93.261 53.2271 93.5068C53.5961 93.9619 54.1703 96.1588 54.2343 96.408C54.2495 96.4651 54.2288 96.5264 54.1834 96.5636C54.1558 96.5856 54.1221 96.5973 54.0877 96.5973V96.5966ZM52.3066 93.3712C52.1056 93.3712 51.9121 93.4393 51.7538 93.5681C51.3772 93.8738 51.3194 94.43 51.6251 94.8066C51.8646 95.102 53.1231 95.7829 53.8543 96.1567C53.6381 95.3636 53.2312 93.9915 52.9917 93.6961C52.8436 93.5137 52.633 93.3994 52.3996 93.3753C52.3686 93.3719 52.3376 93.3705 52.3073 93.3705L52.3066 93.3712Z" fill="black"/>
<path d="M62.8399 94.112C62.8076 94.112 62.7745 94.1017 62.747 94.0803C62.6809 94.0287 62.6692 93.9337 62.7201 93.8676L63.7184 92.5822C63.77 92.5161 63.865 92.5037 63.9311 92.5554C63.9972 92.607 64.0096 92.702 63.958 92.7681L62.9597 94.0535C62.9301 94.092 62.8854 94.112 62.8399 94.112Z" fill="black"/>
<path d="M64.1757 94.5065C64.1433 94.5065 64.1103 94.4962 64.0827 94.4749C64.0166 94.4232 64.0042 94.3282 64.0559 94.2621L65.0541 92.9768C65.1058 92.9107 65.2008 92.8983 65.2669 92.9499C65.333 93.0015 65.3454 93.0966 65.2937 93.1627L64.2955 94.448C64.2658 94.4866 64.2211 94.5065 64.1757 94.5065Z" fill="black"/>
<path d="M65.5121 94.8972C65.4797 94.8972 65.4467 94.8868 65.4191 94.8655C65.3531 94.8139 65.3407 94.7188 65.3923 94.6527L66.3906 93.3674C66.4422 93.3013 66.5372 93.2889 66.6033 93.3405C66.6694 93.3922 66.6818 93.4872 66.6302 93.5533L65.6319 94.8386C65.6023 94.8772 65.5575 94.8972 65.5121 94.8972Z" fill="black"/>
<path d="M52.9254 102.305L45.9984 101.258L43.8706 115.327L50.7977 116.375L52.9254 102.305Z" fill="#955B50"/>
<path d="M52.1177 107.58L44.9803 107.926L45.9876 101.26L52.9142 102.308L52.1177 107.58Z" fill="#020202"/>
<path d="M51.8421 109.475L44.915 108.428L43.8714 115.328L50.7985 116.376L51.8421 109.475Z" fill="#020202"/>
<path d="M43.8407 112.685L43.714 112.803C42.2641 114.156 42.1092 115.491 41.1392 117.586L48.8272 121.774L60.9731 123.768L63.2368 122.86L62.7955 121.028L56.4017 117.783L52.2172 114.154L51.4778 112.583L50.1945 112.389L48.9656 113.231L48.7756 114.487C47.4476 115.032 47.1742 115.346 46.5691 115.255C46.5567 115.249 45.5288 115.197 45.3526 114.179L45.1708 113.132C45.0627 112.507 44.3033 112.252 43.8393 112.684L43.8407 112.685Z" fill="white"/>
<path d="M60.9737 123.92C60.9654 123.92 60.9571 123.92 60.9489 123.918L48.803 121.925C48.7865 121.922 48.7699 121.917 48.7548 121.909L41.0667 117.72C40.9965 117.682 40.9683 117.596 41.002 117.523C41.2781 116.927 41.4922 116.382 41.6808 115.9C42.1669 114.661 42.551 113.682 43.6106 112.693L43.7373 112.575C43.9961 112.334 44.3514 112.256 44.688 112.369C45.024 112.482 45.2608 112.758 45.3214 113.108L45.5032 114.155C45.6347 114.915 46.2956 115.072 46.5737 115.104C46.5792 115.104 46.5854 115.105 46.593 115.107C46.9552 115.162 47.1734 115.057 47.7008 114.805C47.9438 114.689 48.2426 114.546 48.6391 114.381L48.8161 113.21C48.8223 113.169 48.8457 113.131 48.8801 113.107L50.109 112.265C50.1407 112.243 50.1792 112.234 50.2171 112.24L51.5004 112.434C51.5506 112.442 51.5933 112.473 51.6147 112.519L52.3403 114.062L56.4869 117.658L62.8642 120.894C62.9034 120.914 62.9323 120.95 62.9427 120.994L63.384 122.826C63.4019 122.899 63.3626 122.974 63.2931 123.003L61.0294 123.91C61.0115 123.917 60.9923 123.921 60.973 123.921L60.9737 123.92ZM48.878 121.63L60.9571 123.613L63.0597 122.769L62.6652 121.132L56.3341 117.92C56.3231 117.914 56.3128 117.907 56.3031 117.899L52.1186 114.269C52.1028 114.256 52.0897 114.238 52.0808 114.219L51.3765 112.721L50.2322 112.548L49.1066 113.32L48.9269 114.51C48.9186 114.563 48.8842 114.608 48.8347 114.628C48.4057 114.804 48.0877 114.956 47.8322 115.078C47.2973 115.334 47.002 115.474 46.5483 115.406C46.5469 115.406 46.5462 115.406 46.5448 115.406C46.2646 115.373 45.3758 115.193 45.2051 114.208L45.0233 113.16C44.982 112.922 44.8209 112.734 44.5917 112.657C44.3631 112.58 44.1207 112.633 43.9445 112.798L43.8178 112.915C42.8085 113.857 42.4354 114.807 41.9631 116.011C41.7862 116.462 41.5879 116.968 41.3359 117.521L48.8773 121.63H48.878Z" fill="black"/>
<path d="M63.237 122.865L59.3306 123.018L49.3011 121.292L41.1393 117.59L39.7452 118.517L38.8096 121.236L41.8712 123.172C41.8712 123.172 44.2319 123.518 47.2247 123.982L48.057 123.376L49.1799 123.546L49.8036 124.373C54.4818 125.093 59.5516 125.847 59.5516 125.847L62.4859 124.863L63.0531 124.081L63.237 122.866V122.865Z" fill="white"/>
<path d="M59.552 125.999C59.5444 125.999 59.5368 125.999 59.5299 125.997C59.479 125.99 54.4057 125.235 49.7813 124.522C49.742 124.516 49.7069 124.495 49.6835 124.463L49.097 123.686L48.0966 123.535L47.3145 124.104C47.2822 124.127 47.2422 124.137 47.2023 124.131C44.2447 123.674 41.8736 123.325 41.8495 123.322C41.8288 123.319 41.8082 123.311 41.7903 123.3L38.7287 121.364C38.6695 121.326 38.6433 121.253 38.6667 121.186L39.6023 118.467C39.6134 118.436 39.634 118.409 39.6616 118.39L41.0557 117.463C41.0991 117.434 41.1548 117.429 41.2023 117.451L49.3462 121.146L59.3413 122.865L63.2318 122.712C63.2773 122.71 63.3206 122.728 63.3509 122.762C63.3812 122.796 63.3943 122.841 63.3881 122.886L63.2043 124.101C63.2008 124.125 63.1912 124.148 63.1767 124.167L62.6087 124.949C62.5902 124.975 62.564 124.994 62.5344 125.004L59.6002 125.988C59.5843 125.994 59.5685 125.996 59.552 125.996V125.999ZM49.888 124.232C54.29 124.91 59.0762 125.623 59.5382 125.692L62.3919 124.735L62.9096 124.021L63.0604 123.024L59.3372 123.17C59.3268 123.17 59.3158 123.17 59.3055 123.168L49.276 121.442C49.2636 121.44 49.2505 121.436 49.2388 121.431L41.1535 117.763L39.8715 118.615L38.9917 121.172L41.9252 123.027C42.2151 123.07 44.4416 123.398 47.1865 123.823L47.9679 123.254C48.0002 123.23 48.0402 123.221 48.0801 123.226L49.203 123.396C49.2422 123.402 49.2773 123.423 49.3014 123.455L49.888 124.232Z" fill="black"/>
<path d="M42.67 114.226C42.6239 114.226 42.5791 114.205 42.5495 114.167C42.3905 113.961 40.9936 112.132 40.8607 111.553C40.7127 110.909 41.1154 110.265 41.7585 110.117C42.0703 110.045 42.3912 110.099 42.6624 110.268C42.9337 110.438 43.1223 110.703 43.1946 111.015C43.3275 111.594 42.871 113.85 42.8187 114.105C42.807 114.163 42.7622 114.209 42.7044 114.222C42.6934 114.225 42.6817 114.226 42.6707 114.226H42.67ZM42.029 110.389C41.9616 110.389 41.8941 110.397 41.8266 110.413C41.3461 110.524 41.0452 111.005 41.1561 111.486C41.2428 111.863 42.0882 113.048 42.5867 113.715C42.7437 112.897 42.9853 111.461 42.8986 111.084C42.8449 110.851 42.7037 110.653 42.5013 110.526C42.3574 110.436 42.1943 110.39 42.029 110.39V110.389Z" fill="black"/>
<path d="M51.7488 115.868C51.693 115.868 51.6386 115.837 51.6125 115.783C51.576 115.708 51.607 115.617 51.682 115.58L53.1643 114.855C53.2393 114.819 53.3302 114.85 53.3674 114.925C53.4038 115 53.3729 115.091 53.2978 115.128L51.8156 115.853C51.7942 115.863 51.7715 115.868 51.7488 115.868Z" fill="black"/>
<path d="M52.7902 116.823C52.7344 116.823 52.68 116.792 52.6538 116.738C52.6174 116.663 52.6483 116.572 52.7234 116.535L54.205 115.81C54.28 115.774 54.3709 115.805 54.4081 115.88C54.4445 115.955 54.4136 116.046 54.3385 116.083L52.857 116.808C52.8356 116.818 52.8129 116.823 52.7902 116.823Z" fill="black"/>
<path d="M53.8331 117.776C53.7774 117.776 53.723 117.745 53.6968 117.691C53.6603 117.616 53.6913 117.525 53.7664 117.488L55.2486 116.763C55.3243 116.727 55.4145 116.758 55.4517 116.833C55.4882 116.908 55.4572 116.999 55.3822 117.036L53.8999 117.761C53.8786 117.771 53.8559 117.776 53.8331 117.776Z" fill="black"/>
<path d="M44.3755 60.7707L44.3706 60.7652L17.5823 77.6255L18.1709 83.4116C22.6606 87.3752 28.1079 87.8289 33.0987 84.5193L45.5941 74.3738L52.5409 89.3505L61.0417 85.4516L55.4622 64.3515C53.6129 60.0147 48.3652 58.3561 44.3761 60.772L44.3755 60.7707Z" fill="#FED101"/>
<path d="M58.927 85.7779C59.7807 81.141 56.3218 76.8572 51.6635 76.6658V76.6582H15.5723L16.3668 80.418C17.9207 86.2041 23.1628 90.2255 29.1499 90.2255L45.1669 88.6771L44.592 106.264L53.8308 107.713L58.158 89.0861L58.9263 85.7772L58.927 85.7779Z" fill="#FED101"/>
<path d="M53.8319 107.864C53.8244 107.864 53.8161 107.864 53.8085 107.862L44.5697 106.412C44.494 106.401 44.4389 106.334 44.4417 106.258L45.011 88.843L29.1655 90.3749H29.1641C23.1054 90.3749 17.7896 86.2963 16.2212 80.4558L15.4247 76.6877C15.4074 76.6058 15.4598 76.5253 15.5417 76.508C15.6243 76.4908 15.7042 76.5432 15.7214 76.6251L16.5166 80.3849C18.0478 86.0856 23.2445 90.0719 29.1517 90.0719L45.1542 88.5242C45.1983 88.5194 45.241 88.5345 45.2727 88.5641C45.3043 88.5938 45.3215 88.6357 45.3202 88.6798L44.7501 106.133L53.717 107.54L58.745 85.7413C59.1409 83.5891 58.5839 81.3681 57.2152 79.6537C55.8458 77.9394 53.8078 76.9039 51.6226 76.8144C51.6081 76.8144 51.5944 76.811 51.582 76.8068H30.9693C30.8853 76.8068 30.8179 76.7387 30.8179 76.6554C30.8179 76.5721 30.886 76.5039 30.9693 76.5039H51.6281C51.6467 76.5039 51.6646 76.5073 51.6811 76.5135C53.9366 76.6196 56.0372 77.6936 57.4513 79.4651C58.8751 81.2476 59.4541 83.5582 59.041 85.8026L53.98 107.745C53.9641 107.814 53.9015 107.862 53.8326 107.862L53.8319 107.864Z" fill="black"/>
<path d="M41.9182 64.1146L40.0566 70.6192L30.4264 65.3256C28.8016 64.3872 28.2446 62.308 29.183 60.6826C30.1214 59.0571 32.1992 58.4995 33.8239 59.4385L41.9182 64.1146Z" fill="#955B50"/>
<path d="M53.5857 56.6827L49.784 53.1543L47.6353 56.8018L47.2877 57.6548L38.6337 64.5085L38.5056 68.8148C39.2347 70.9958 42.0161 71.6237 43.6106 69.9673L50.9503 62.3398C51.8067 61.5515 51.8783 61.4145 51.8783 61.4145C52.1613 61.0131 53.9864 56.9656 53.5857 56.6827Z" fill="#955B50"/>
<path d="M38.9134 62.3052L36.8019 68.9805L30.426 65.3275C28.8012 64.3892 28.2443 62.31 29.1826 60.6845C30.121 59.0591 32.1988 58.5014 33.8236 59.4405L38.9141 62.3059L38.9134 62.3052Z" fill="#020202"/>
<path d="M52.7218 53.5783L55.9948 52.8691L58.8546 55.192L58.2254 59.6725L53.7951 60.6323C52.4423 60.9255 51.0289 60.7169 49.8178 60.045L47.7297 58.8863L49.2375 56.1669C49.9721 54.8423 51.2416 53.8984 52.7211 53.5783H52.7218Z" fill="#955B50"/>
<path d="M44.9412 59.4062L49.6365 63.7139L53.9759 59.4785L51.0657 54.1133L44.9412 59.4062Z" fill="#955B50"/>
<path d="M51.3581 60.7789C51.3471 60.7789 51.3361 60.7775 51.3251 60.7755C50.7715 60.6536 50.24 60.4519 49.745 60.1772L49.5633 60.0767C49.4903 60.0361 49.4635 59.9438 49.5041 59.8708C49.5447 59.7979 49.6369 59.7717 49.7099 59.8116L49.8917 59.9128C50.3612 60.1738 50.8652 60.3645 51.3898 60.4801C51.4717 60.498 51.5233 60.5793 51.5054 60.6605C51.4896 60.7314 51.427 60.7796 51.3574 60.7796L51.3581 60.7789Z" fill="black"/>
<path d="M57.9491 53.0761L58.9398 53.5546L58.1708 54.9081L57.4183 54.6933C57.0672 54.4984 56.6575 54.4378 56.2658 54.5232L53.7336 55.0719L53.9856 53.2998L56.2066 52.8186C56.7994 52.6898 57.4183 52.7814 57.9484 53.0761H57.9491Z" fill="#955B50"/>
<path d="M52.4434 47.1227L57.8637 48.1519C58.3724 48.2483 58.7993 48.7757 58.8172 49.3292L59.2399 62.6551C59.2578 63.2086 58.8592 63.579 58.3504 63.4826L52.9301 62.4534C52.4213 62.357 51.9945 61.8296 51.9766 61.2761L51.5539 47.9502C51.5367 47.3967 51.9346 47.0263 52.4434 47.1227Z" fill="black"/>
<path d="M58.6139 50.0684L59.0676 50.1544L59.1089 51.4611L58.6552 51.3751L58.6139 50.0684Z" fill="black"/>
<path d="M51.959 47.0328L57.3793 48.0621C57.8881 48.1585 58.3149 48.6858 58.3328 49.2394L58.7555 62.5653C58.7727 63.1188 58.3748 63.4892 57.866 63.3928L52.4457 62.3636C51.937 62.2672 51.5101 61.7398 51.4922 61.1863L51.0695 47.8604C51.0523 47.3068 51.4502 46.9364 51.959 47.0328Z" fill="black"/>
<path d="M58.6371 58.7091L51.3814 57.3314L51.1315 49.4375L58.3865 50.8151L58.6371 58.7091Z" fill="#0084FF"/>
<path d="M58.0335 63.5594C57.9722 63.5594 57.9096 63.5532 57.8462 63.5415L52.4101 62.5095C51.8401 62.4014 51.3609 61.8127 51.3416 61.1979L50.9182 47.8555C50.9079 47.5354 51.0249 47.2469 51.2377 47.0644C51.438 46.893 51.7017 46.8283 51.9805 46.8813L57.4166 47.9133C57.9867 48.0214 58.4659 48.61 58.4851 49.2248L58.9085 62.5673C58.9189 62.8874 58.8018 63.1759 58.5891 63.3583C58.4342 63.4905 58.2414 63.5594 58.0335 63.5594ZM51.796 47.1663C51.659 47.1663 51.5344 47.2104 51.4353 47.2944C51.29 47.4183 51.2143 47.6145 51.2218 47.8452L51.6452 61.1876C51.6604 61.6688 52.0294 62.128 52.4673 62.2107L57.9034 63.2427C58.09 63.2778 58.2635 63.2372 58.3922 63.127C58.5375 63.0031 58.6132 62.8069 58.6056 62.5762L58.1829 49.2338C58.1678 48.7526 57.7987 48.2934 57.3609 48.2107L51.9248 47.1787C51.8814 47.1705 51.838 47.1663 51.796 47.1663Z" fill="black"/>
<path d="M53.4736 47.9941L55.5101 48.3811L55.5211 48.5435L53.4867 48.1573L53.4736 47.9941Z" fill="black"/>
<path d="M56.2045 48.5846C56.2093 48.7291 56.1053 48.8255 55.9725 48.8001C55.8396 48.7746 55.7287 48.6376 55.7239 48.493C55.7191 48.3484 55.8231 48.252 55.9559 48.2775C56.0888 48.303 56.1997 48.44 56.2045 48.5846Z" fill="black"/>
<path d="M49.8765 50.5823L49.7629 50.0721C49.6253 49.4553 50.1705 48.9018 50.7894 49.0305L50.8824 49.0498C51.2177 49.1193 51.4807 49.3789 51.555 49.7128L51.7671 50.6649C51.9185 51.343 51.9233 52.0453 51.7822 52.7255L51.2011 55.2246L48.417 55.9805C48.417 55.9805 49.8463 53.4697 49.8869 51.9916C49.9 51.5165 49.9798 51.0463 49.8765 50.5823Z" fill="#955B50"/>
<path d="M48.3576 55.9039C48.3259 55.9039 48.2935 55.8936 48.2667 55.8736C48.1999 55.8233 48.1868 55.7283 48.2371 55.6615C48.2474 55.6485 49.2539 54.2936 49.7813 51.9466C49.8777 51.5184 49.8743 51.0667 49.771 50.6041L49.6574 50.0939C49.5817 49.7538 49.6822 49.4027 49.9273 49.1542C50.1717 48.9063 50.5214 48.8003 50.8629 48.8712L50.9558 48.8905C51.3483 48.9717 51.6581 49.2774 51.7455 49.6685L51.9575 50.6206C52.2178 51.813 51.9025 53.2361 51.6484 54.3796C51.572 54.7238 51.4997 55.0488 51.455 55.3201C51.4412 55.4027 51.3641 55.4584 51.2808 55.4447C51.1982 55.4309 51.1424 55.3531 51.1562 55.2705C51.2023 54.991 51.2753 54.6619 51.3524 54.3135C51.5995 53.1989 51.9073 51.8117 51.6615 50.6853L51.4495 49.7339C51.3882 49.4585 51.1699 49.2437 50.8939 49.1865L50.8009 49.1673C50.5606 49.1177 50.3149 49.192 50.1428 49.3662C49.9706 49.5411 49.8997 49.7883 49.9534 50.0271L50.067 50.5373C50.1799 51.044 50.1834 51.5404 50.0773 52.0127C49.5341 54.4285 48.5221 55.7868 48.4794 55.844C48.4498 55.8832 48.4044 55.9039 48.3583 55.9039H48.3576Z" fill="black"/>
<path d="M39.8238 63.7018C39.7797 63.7018 39.7357 63.6825 39.7061 63.6453C39.6531 63.5806 39.6634 63.4849 39.7281 63.4319L47.2324 57.3521C47.2751 57.3176 47.3336 57.3087 47.3845 57.3293C47.4355 57.35 47.4713 57.3961 47.4782 57.4512L47.5429 57.9662C47.6165 58.7545 48.0262 59.4636 48.6685 59.918C48.7367 59.9662 48.7532 60.0605 48.705 60.1293C48.6568 60.1975 48.5625 60.214 48.4936 60.1658C47.779 59.6605 47.3226 58.8715 47.2413 57.9999L47.211 57.7603L39.9188 63.6687C39.8906 63.6914 39.8569 63.7025 39.8238 63.7025V63.7018Z" fill="black"/>
<path d="M62.4534 61.7829L59.787 60.3037L60.6754 58.7023L63.3412 60.1812C63.7752 60.422 63.932 60.9695 63.6912 61.4036L63.6749 61.4331C63.4344 61.8666 62.8868 62.0234 62.4534 61.7829Z" fill="#955B50"/>
<path d="M62.9023 62.0472C62.7281 62.0472 62.5567 62.0031 62.4004 61.9164L60.4231 60.8196C60.3502 60.779 60.3233 60.6868 60.3639 60.6138C60.4046 60.5408 60.4968 60.5147 60.5698 60.5546L62.5471 61.6513C62.7185 61.747 62.9175 61.769 63.1061 61.7153C63.2947 61.6609 63.451 61.537 63.5467 61.3649L63.5749 61.3146C63.7712 60.9601 63.6431 60.5112 63.2885 60.315L61.1935 59.1529C61.1206 59.1123 61.0937 59.02 61.1343 58.947C61.1749 58.874 61.2672 58.8479 61.3402 58.8878L63.4352 60.0499C63.9357 60.3274 64.1168 60.9608 63.8393 61.462L63.8111 61.5122C63.6768 61.7546 63.4558 61.9301 63.1894 62.0066C63.0944 62.0341 62.998 62.0472 62.9016 62.0472H62.9023Z" fill="black"/>
<path d="M61.1664 57.8568L61.2614 58.4034C61.3392 58.853 61.2614 59.3157 61.0397 59.715L60.4497 60.78C60.2156 61.202 59.6848 61.3542 59.2635 61.1201L59.1981 61.0843C58.7767 60.8502 58.6246 60.3188 58.858 59.8974L59.448 58.8324C59.669 58.4331 59.7475 57.9704 59.6697 57.5208L59.6077 57.1628C59.5506 56.8331 59.9003 56.5838 60.1929 56.7463L60.4965 56.9143C60.8511 57.1112 61.0969 57.4575 61.1664 57.8568Z" fill="#955B50"/>
<path d="M59.6849 61.3826C59.5135 61.3826 59.3434 61.3393 59.1899 61.2539L59.1252 61.2181C58.7018 60.9833 58.4994 60.4773 58.6446 60.0153C58.6701 59.9355 58.7555 59.8914 58.8347 59.9162C58.9145 59.941 58.9586 60.0264 58.9338 60.1062C58.8319 60.4312 58.9737 60.7871 59.2725 60.953L59.3372 60.9888C59.5059 61.0825 59.7001 61.1045 59.8853 61.0515C60.0705 60.9985 60.224 60.8766 60.3176 60.7079L60.9076 59.6429C61.1107 59.2766 61.1968 58.8243 61.1438 58.4023C61.0935 58.005 60.7899 57.3214 60.593 57.1623C60.5276 57.11 60.518 57.0143 60.5703 56.9489C60.6233 56.8835 60.7183 56.8739 60.7837 56.9262C61.0887 57.172 61.3951 57.9678 61.4446 58.3637C61.5059 58.8484 61.4068 59.3675 61.1727 59.7895L60.5827 60.8546C60.4498 61.0942 60.2322 61.267 59.9693 61.3427C59.8756 61.3695 59.7806 61.3826 59.6856 61.3826H59.6849Z" fill="black"/>
<path d="M60.5957 55.9308L60.6625 56.3149C60.7657 56.9125 60.6625 57.5273 60.3685 58.0574L59.5058 59.6134C59.2718 60.0347 58.741 60.1875 58.3196 59.9535L58.2542 59.9177C57.8329 59.6836 57.6807 59.1521 57.9141 58.7308L58.8071 57.1204C59.0811 56.6254 59.1781 56.0519 59.0818 55.4943L59.0632 55.3862C59.0005 55.0227 59.3861 54.7487 59.7083 54.927L59.996 55.0867C60.3134 55.263 60.5344 55.5735 60.5964 55.9315L60.5957 55.9308Z" fill="#955B50"/>
<path d="M58.7408 60.214C58.5694 60.214 58.4 60.1706 58.2458 60.0852L58.1811 60.0494C57.6875 59.7754 57.5085 59.1503 57.7825 58.6567L57.9339 58.3834C57.9746 58.3104 58.0668 58.2835 58.1398 58.3242C58.2128 58.3648 58.2396 58.457 58.199 58.53L58.0475 58.8033C57.8548 59.151 57.9808 59.5916 58.3284 59.7844L58.3931 59.8202C58.5618 59.9138 58.756 59.9358 58.9412 59.8828C59.1264 59.8298 59.2799 59.708 59.3735 59.5393L60.2362 57.9834C60.5122 57.4849 60.6107 56.9018 60.5136 56.34L60.4468 55.9558C60.3918 55.6398 60.2534 55.4223 60.0103 55.2729C59.9394 55.2288 59.9167 55.1359 59.9608 55.0643C60.0048 54.9934 60.0985 54.9706 60.1694 55.0147C60.4875 55.2102 60.6754 55.5014 60.7456 55.9042L60.8124 56.2884C60.9212 56.9176 60.811 57.5717 60.5012 58.1307L59.6386 59.6866C59.5057 59.9262 59.2882 60.099 59.0252 60.1747C58.9315 60.2016 58.8365 60.2147 58.7415 60.2147L58.7408 60.214Z" fill="black"/>
<path d="M59.9387 54.3213L60.0055 54.7055C60.1088 55.303 60.0055 55.9178 59.7115 56.448L58.8489 58.0039C58.6148 58.4252 58.084 58.5781 57.6626 58.344L57.5972 58.3082C57.1759 58.0741 57.0237 57.5426 57.2571 57.1213L58.1501 55.511C58.4241 55.016 58.862 54.6043 58.862 54.0218L58.82 53.1895C58.82 53.1895 58.948 53.2604 59.0513 53.3175L59.3391 53.4772C59.6564 53.6535 59.8774 53.964 59.9394 54.322L59.9387 54.3213Z" fill="#955B50"/>
<path d="M58.0841 58.6066C57.9126 58.6066 57.7426 58.5632 57.5891 58.4779L57.5244 58.4421C57.0307 58.168 56.8517 57.5429 57.1257 57.0493L58.5075 54.4035C58.546 54.3292 58.6376 54.3009 58.712 54.3395C58.7863 54.3781 58.8152 54.4696 58.776 54.544L57.3922 57.1932C57.1973 57.5443 57.3233 57.9842 57.671 58.1777L57.7357 58.2135C57.9044 58.3071 58.0985 58.3291 58.2837 58.2761C58.4689 58.2231 58.6225 58.1013 58.7161 57.9326L59.5787 56.3773C59.8672 55.8576 59.9877 55.2641 59.9188 54.7058C59.861 54.2362 59.534 53.7612 59.2655 53.6118L58.5873 53.2352C58.5144 53.1946 58.4875 53.1023 58.5281 53.0293C58.5688 52.9564 58.661 52.9295 58.734 52.9701L59.4121 53.3467C59.7522 53.5354 60.1467 54.0813 60.219 54.6686C60.2954 55.2896 60.1626 55.9491 59.8431 56.524L58.9805 58.0792C58.8476 58.3188 58.63 58.4916 58.367 58.5674C58.2734 58.5942 58.1784 58.6073 58.0834 58.6073L58.0841 58.6066Z" fill="black"/>
<path d="M38.916 62.3047L34.9422 69.1915L25.4724 63.7209C23.5729 62.6235 22.9216 60.1939 24.0184 58.2937L24.0197 58.291C25.1172 56.3895 27.5481 55.7382 29.4497 56.8363L38.916 62.3047Z" fill="#0084FF"/>
<path d="M32.6713 70.5797L15.4679 80.4557L12.6239 56.334H27.0176L32.6713 70.5797Z" fill="#0084FF"/>
<path d="M15.4681 80.6085C15.4157 80.6085 15.3648 80.581 15.3366 80.5328C15.2946 80.4605 15.32 80.3676 15.3923 80.3256L32.4828 70.5143L30.2783 64.864C30.2528 64.7979 30.2762 64.7229 30.3347 64.6837C30.8897 64.3084 31.2208 63.6847 31.2208 63.0155C31.2208 61.9064 30.3189 61.0045 29.2105 61.0045C29.0742 61.0045 28.9379 61.0183 28.805 61.0451C28.7313 61.061 28.6583 61.0197 28.6322 60.9494L27.8983 58.966C27.8694 58.8875 27.9093 58.8 27.9878 58.7711C28.0663 58.7422 28.1537 58.7821 28.1826 58.8606L28.8731 60.7257C28.9847 60.7092 29.0976 60.7016 29.2105 60.7016C30.4862 60.7016 31.5237 61.7398 31.5237 63.0162C31.5237 63.7453 31.1816 64.4276 30.6033 64.864L32.8125 70.526C32.8401 70.5955 32.8125 70.6754 32.7471 70.7125L15.5431 80.5893C15.519 80.603 15.4935 80.6092 15.4681 80.6092V80.6085Z" fill="black"/>
<path d="M21.0974 66.4699C20.2423 66.4699 19.4609 66.001 19.0568 65.2465C19.0176 65.1728 19.0451 65.0805 19.1188 65.0413C19.1924 65.0021 19.2847 65.0296 19.3239 65.1033C19.675 65.7594 20.3546 66.1662 21.0974 66.1662C21.5002 66.1662 21.8891 66.0471 22.221 65.8227C22.2905 65.7759 22.3841 65.7938 22.4317 65.8633C22.4785 65.9329 22.4606 66.0272 22.391 66.074C22.0082 66.3329 21.5614 66.4692 21.0974 66.4692V66.4699Z" fill="black"/>
<path d="M1.06455 89.2922L1.23666 89.5793L3.69241 88.7235L4.74989 87.3205L10.9557 86.7938L10.8917 86.0392C10.407 86.0805 8.99978 85.412 7.9065 85.505L5.91546 85.6743C5.27726 85.7287 4.65971 85.9291 4.111 86.2602L1.40189 87.9353C0.934427 88.2175 0.783653 88.8247 1.06455 89.2929V89.2922Z" fill="#955B50"/>
<path d="M3.8897 89.3638L1.2522 91.2172C0.915536 91.4203 0.478361 91.3108 0.276641 90.9734L0.273199 90.9679C0.0301715 90.561 0.161667 90.0344 0.567173 89.7893L3.45666 87.7762C4.00536 87.4451 4.62292 87.2447 5.26112 87.1903L10.9478 86.707L11.1826 89.4712L7.80637 89.7583L7.06008 89.1587C6.56301 88.7593 5.90759 88.612 5.29073 88.7717C4.88591 88.8771 4.40054 89.0568 3.88901 89.3624L3.8897 89.3638Z" fill="#955B50"/>
<path d="M7.28394 87.3097L12.7379 88.4154L15.3101 76.5855L9.09804 75.2285L7.28394 87.3097Z" fill="#955B50"/>
<path d="M8.72119 78.0782L14.5091 80.1587L15.2168 76.8479L9.02274 75.5254L8.72119 78.0782Z" fill="black"/>
<path d="M7.55503 85.6515C7.54746 85.6515 7.5392 85.6515 7.53093 85.6495C7.44832 85.6364 7.39186 85.5586 7.40563 85.476L8.99943 75.5497C9.00563 75.5098 9.02766 75.4747 9.0607 75.4506C9.09375 75.4272 9.13437 75.4175 9.17361 75.4237L15.3333 76.4364C15.4159 76.4502 15.4717 76.528 15.4586 76.6106C15.4448 76.6932 15.3663 76.749 15.2844 76.7359L9.27481 75.748L7.70512 85.5242C7.69341 85.5985 7.6287 85.6515 7.55572 85.6515H7.55503Z" fill="black"/>
<path d="M0.884805 91.4739C0.815271 91.4739 0.745736 91.4656 0.676201 91.4477C0.45245 91.392 0.263812 91.2522 0.146085 91.0539C-0.142382 90.5713 0.01321 89.9496 0.488939 89.6625L3.37016 87.655C3.94434 87.3087 4.59081 87.0987 5.24829 87.0429L5.9519 86.983C6.03452 86.9755 6.10887 87.0381 6.11576 87.1214C6.12264 87.2047 6.06068 87.2784 5.97737 87.2853L5.27376 87.3452C4.66241 87.3968 4.06069 87.5923 3.53471 87.9097L0.653483 89.9173C0.312004 90.1238 0.203226 90.5596 0.402881 90.8935C0.482742 91.0278 0.60529 91.118 0.749867 91.1544C0.894445 91.1909 1.04522 91.1682 1.17327 91.0911L3.80183 89.2433C4.26792 88.9638 4.75328 88.7593 5.25242 88.6299C5.88719 88.4653 6.55706 88.5982 7.09062 88.9954C7.1574 89.0457 7.17186 89.1407 7.1216 89.2075C7.07203 89.2742 6.97702 89.2887 6.90955 89.2385C6.45035 88.897 5.87479 88.782 5.32884 88.9231C4.85724 89.0457 4.39942 89.2385 3.96706 89.4973L1.33851 91.3445C1.19599 91.4305 1.04109 91.4739 0.884805 91.4739Z" fill="black"/>
<path d="M1.06472 89.4433C1.01171 89.4433 0.960759 89.4157 0.932532 89.3661C0.626854 88.8243 0.804478 88.1482 1.33735 87.8274L4.02993 86.1304C4.59792 85.7875 5.24438 85.5782 5.90255 85.5218L7.89359 85.3524C8.94075 85.2643 10.2048 85.6622 10.8127 85.8543L10.9366 85.8928C11.0165 85.9176 11.0612 86.003 11.0364 86.0829C11.0116 86.1627 10.9263 86.2075 10.8464 86.1827L10.7218 86.1434C10.1325 85.9576 8.90632 85.5706 7.91907 85.6546L5.92803 85.824C5.31598 85.8756 4.71496 86.0712 4.18897 86.3885L1.49638 88.0856C1.10258 88.3231 0.971777 88.8195 1.1969 89.2174C1.23821 89.2904 1.21205 89.3827 1.13907 89.424C1.11566 89.4371 1.09019 89.4433 1.06472 89.4433Z" fill="black"/>
<path d="M6.9908 89.0833C6.84278 89.1212 6.68168 89.1494 6.50337 89.1645C6.43796 89.1769 4.50063 89.3394 3.53196 89.4193C3.04728 89.4592 2.68652 89.8854 2.72783 90.37L2.72921 90.3824C2.77052 90.8664 3.1953 91.2251 3.67929 91.1838L10.4455 90.6089C13.0183 90.3907 12.7374 88.4444 12.7374 88.4444L12.6534 87.4551L10.4001 87.6465C8.55017 87.8034 8.19355 88.7742 6.9908 89.0826V89.0833Z" fill="#955B50"/>
<path d="M3.60403 91.3412C3.07529 91.3412 2.62366 90.9343 2.57822 90.3973C2.55412 90.1102 2.63949 89.8424 2.81712 89.6317C2.99474 89.421 3.24465 89.2923 3.52004 89.2696C4.65738 89.1759 6.38405 89.0307 6.47837 89.0162C6.65462 89.0004 6.80608 88.9756 6.95341 88.9377C7.30315 88.8482 7.5689 88.7002 7.78232 88.568C7.85392 88.524 7.94686 88.546 7.99092 88.6169C8.03499 88.6878 8.01296 88.7814 7.94204 88.8255C7.72242 88.9618 7.42019 89.1305 7.02845 89.231C6.86528 89.273 6.69799 89.3005 6.51692 89.3164C6.27665 89.3453 3.65911 89.5615 3.54482 89.5711C3.35068 89.5869 3.17443 89.6778 3.04844 89.8265C2.92245 89.9752 2.86256 90.1639 2.87908 90.358C2.91419 90.7704 3.26875 91.0678 3.66599 91.0341L10.4322 90.4592C11.2701 90.3883 11.8766 90.1226 12.236 89.6709C12.6752 89.1181 12.5878 88.4744 12.5871 88.4675C12.5844 88.4496 12.585 88.431 12.5892 88.4131L15.341 75.9395C15.3589 75.8576 15.4401 75.806 15.5213 75.8239C15.6033 75.8418 15.6549 75.923 15.637 76.0042L12.8907 88.453C12.9059 88.6017 12.9417 89.2696 12.4735 89.8589C12.0604 90.3787 11.3823 90.6823 10.4584 90.7608L3.69215 91.3356C3.66255 91.3384 3.63364 91.3391 3.60403 91.3391V91.3412Z" fill="black"/>
<path d="M16.5954 77.3733H8.64844V60.3097C8.64844 58.1149 10.4274 56.3359 12.6223 56.3359C14.8171 56.3359 16.5961 58.1149 16.5961 60.3097V77.3733H16.5954Z" fill="#0084FF"/>
<path d="M16.596 77.5239H8.64902C8.56503 77.5239 8.49756 77.4558 8.49756 77.3725V60.3109C8.49756 58.0349 10.3481 56.1836 12.6228 56.1836C12.7068 56.1836 12.7743 56.2518 12.7743 56.3351C12.7743 56.4184 12.7061 56.4865 12.6228 56.4865C10.5154 56.4865 8.80048 58.2022 8.80048 60.3109V77.221H16.4445V61.8345C16.4445 61.7505 16.5127 61.683 16.596 61.683C16.6793 61.683 16.7474 61.7512 16.7474 61.8345V77.3725C16.7474 77.4564 16.6793 77.5239 16.596 77.5239Z" fill="black"/>
<path d="M21.9329 54.4046L21.2108 54.6789C18.3069 55.782 15.0545 54.3198 13.9517 51.4166L13.3537 49.8423L24.5972 45.5713L25.1952 47.1455C26.2983 50.0494 24.8361 53.3018 21.9329 54.4046Z" fill="black"/>
<path d="M18.8572 56.3264L18.8634 51.3867L21.4403 51.3902L21.4341 59.7467L18.8572 56.3264Z" fill="#955B50"/>
<path d="M23.3862 51.408C23.3881 50.0529 22.3873 48.953 21.1508 48.9512C19.9143 48.9495 18.9103 50.0467 18.9085 51.4018C18.9066 52.7569 19.9074 53.8569 21.1439 53.8586C22.3804 53.8603 23.3843 52.7632 23.3862 51.408Z" fill="#955B50"/>
<path d="M20.6306 52.7854C20.7924 52.9341 21.001 53.0347 21.2365 53.0587C21.7611 53.1131 22.2347 52.7723 22.3655 52.2773L20.6306 52.7847V52.7854Z" fill="white"/>
<path d="M21.1846 54.0073H21.1818C20.9422 54.0073 20.7061 53.9674 20.4803 53.8903C20.4011 53.8634 20.3591 53.7767 20.386 53.6975C20.4128 53.6183 20.4989 53.5763 20.5787 53.6032C20.7736 53.6699 20.9767 53.7037 21.1832 53.7044H21.186C21.7285 53.7044 22.24 53.4724 22.6255 53.051C23.0152 52.6249 23.2307 52.0569 23.2314 51.4517C23.2328 50.2083 22.3171 49.1949 21.1894 49.1936H21.1866C20.1347 49.1936 19.2603 50.0617 19.1522 51.2142C19.1447 51.2975 19.0717 51.3574 18.987 51.3512C18.9037 51.3436 18.8424 51.2693 18.85 51.186C18.9732 49.8772 19.977 48.8906 21.186 48.8906H21.1887C22.483 48.892 23.535 50.0417 23.5329 51.4524C23.5322 52.1333 23.2885 52.7736 22.8479 53.2555C22.4039 53.7409 21.8131 54.0073 21.1846 54.0073Z" fill="black"/>
<path d="M21.24 50.4836L23.3722 51.5377C23.377 51.475 23.3812 51.4124 23.3812 51.349C23.3832 50.0003 22.387 48.9064 21.1567 48.9043C19.9264 48.9029 18.8483 50.0485 18.8469 51.3965C18.8469 51.4881 18.8524 51.5776 18.8607 51.6664L21.2407 50.483L21.24 50.4836Z" fill="black"/>
<path d="M125.602 110.234V114.423C125.602 120.641 120.557 125.682 114.333 125.682C108.11 125.682 103.065 120.641 103.065 114.423V110.234H125.602H125.602Z" fill="white"/>
<path d="M114.335 125.833C108.038 125.833 102.914 120.714 102.914 114.422V110.233C102.914 110.149 102.982 110.082 103.066 110.082C103.15 110.082 103.217 110.15 103.217 110.233V114.422C103.217 120.547 108.204 125.529 114.335 125.529C120.465 125.529 125.452 120.547 125.452 114.422V110.233C125.452 110.149 125.519 110.082 125.603 110.082C125.687 110.082 125.755 110.15 125.755 110.233V114.422C125.755 120.714 120.632 125.833 114.335 125.833Z" fill="black"/>
<path d="M114.333 121.497C120.557 121.497 125.602 116.456 125.602 110.238C125.602 104.019 120.557 98.9785 114.333 98.9785C108.11 98.9785 103.065 104.019 103.065 110.238C103.065 116.456 108.11 121.497 114.333 121.497Z" fill="#FED101"/>
<path d="M114.334 121.647C108.037 121.647 102.914 116.529 102.914 110.237C102.914 103.945 108.037 98.8262 114.334 98.8262C120.631 98.8262 125.754 103.945 125.754 110.237C125.754 116.529 120.631 121.647 114.334 121.647ZM114.334 99.1298C108.204 99.1298 103.217 104.112 103.217 110.237C103.217 116.361 108.204 121.344 114.334 121.344C120.464 121.344 125.451 116.361 125.451 110.237C125.451 104.112 120.464 99.1298 114.334 99.1298Z" fill="black"/>
<path d="M106.23 111.512C106.156 111.512 106.091 111.457 106.08 111.381C106.029 111.005 106.002 110.62 106.002 110.237C106.002 107.324 107.558 104.583 110.064 103.086C110.135 103.043 110.228 103.067 110.272 103.138C110.314 103.21 110.291 103.304 110.219 103.346C107.805 104.789 106.305 107.43 106.305 110.237C106.305 110.607 106.331 110.978 106.38 111.34C106.392 111.423 106.334 111.5 106.251 111.511C106.244 111.512 106.237 111.512 106.23 111.512Z" fill="black"/>
<path d="M109.861 117.235C109.833 117.235 109.804 117.227 109.779 117.21C108.278 116.229 107.115 114.765 106.503 113.088C106.474 113.01 106.515 112.922 106.593 112.894C106.672 112.865 106.759 112.906 106.787 112.984C107.377 114.6 108.498 116.011 109.944 116.957C110.014 117.003 110.034 117.096 109.988 117.167C109.959 117.211 109.91 117.236 109.861 117.236V117.235Z" fill="black"/>
<path d="M114.336 118.564C113.153 118.564 112.01 118.321 110.938 117.843C110.862 117.808 110.827 117.719 110.862 117.642C110.895 117.566 110.985 117.531 111.062 117.566C112.095 118.027 113.196 118.261 114.337 118.261C117.308 118.261 120.024 116.634 121.425 114.013C121.464 113.94 121.555 113.912 121.63 113.951C121.703 113.991 121.732 114.083 121.692 114.157C120.238 116.875 117.42 118.565 114.337 118.565L114.336 118.564Z" fill="black"/>
<path d="M122.269 112.404C122.257 112.404 122.244 112.403 122.232 112.399C122.151 112.379 122.102 112.296 122.122 112.215C122.285 111.572 122.368 110.907 122.368 110.237C122.368 108.094 121.533 106.079 120.016 104.563C119.957 104.504 119.957 104.408 120.016 104.349C120.076 104.29 120.171 104.29 120.23 104.349C121.804 105.922 122.671 108.013 122.671 110.237C122.671 110.931 122.585 111.622 122.416 112.289C122.399 112.358 122.337 112.403 122.27 112.403L122.269 112.404Z" fill="black"/>
<path d="M118.912 103.609C118.883 103.609 118.853 103.601 118.827 103.583C117.499 102.687 115.946 102.213 114.338 102.213C113.631 102.213 112.93 102.305 112.255 102.486C112.174 102.508 112.091 102.46 112.069 102.378C112.048 102.298 112.095 102.214 112.176 102.193C112.878 102.005 113.605 101.91 114.338 101.91C116.008 101.91 117.619 102.402 118.997 103.333C119.067 103.379 119.085 103.474 119.038 103.543C119.008 103.587 118.961 103.61 118.912 103.61V103.609Z" fill="black"/>
<path d="M121.322 123.313C121.238 123.313 121.17 123.245 121.17 123.161V119.974C121.17 119.89 121.238 119.822 121.322 119.822C121.406 119.822 121.473 119.89 121.473 119.974V123.161C121.473 123.245 121.406 123.313 121.322 123.313Z" fill="black"/>
<path d="M119.645 124.357C119.561 124.357 119.493 124.289 119.493 124.206V122.066C119.493 121.982 119.561 121.914 119.645 121.914C119.729 121.914 119.796 121.982 119.796 122.066V124.206C119.796 124.29 119.729 124.357 119.645 124.357Z" fill="black"/>
<path d="M117.759 125.197C117.675 125.197 117.607 125.129 117.607 125.046V122.905C117.607 122.821 117.675 122.754 117.759 122.754C117.843 122.754 117.91 122.822 117.91 122.905V125.046C117.91 125.13 117.843 125.197 117.759 125.197Z" fill="black"/>
<path d="M118.001 92.0879V96.2765C118.001 102.495 112.956 107.536 106.732 107.536C100.508 107.536 95.4633 102.495 95.4633 96.2765V92.0879H118H118.001Z" fill="white"/>
<path d="M106.732 107.689C100.436 107.689 95.312 102.57 95.312 96.2783V92.089C95.312 92.005 95.3795 91.9375 95.4635 91.9375C95.5475 91.9375 95.6149 92.0057 95.6149 92.089V96.2783C95.6149 102.403 100.602 107.385 106.732 107.385C112.862 107.385 117.85 102.403 117.85 96.2783V92.089C117.85 92.005 117.917 91.9375 118.001 91.9375C118.085 91.9375 118.152 92.0057 118.152 92.089V96.2783C118.152 102.57 113.03 107.689 106.732 107.689Z" fill="black"/>
<path d="M106.732 103.348C112.956 103.348 118.001 98.3075 118.001 92.0892C118.001 85.871 112.956 80.8301 106.732 80.8301C100.509 80.8301 95.4634 85.871 95.4634 92.0892C95.4634 98.3075 100.509 103.348 106.732 103.348Z" fill="#FED101"/>
<path d="M106.732 103.499C100.436 103.499 95.312 98.3802 95.312 92.0883C95.312 85.7965 100.435 80.6777 106.732 80.6777C113.03 80.6777 118.152 85.7965 118.152 92.0883C118.152 98.3802 113.03 103.499 106.732 103.499ZM106.732 80.9813C100.602 80.9813 95.6149 85.9638 95.6149 92.0883C95.6149 98.2129 100.602 103.196 106.732 103.196C112.862 103.196 117.85 98.2129 117.85 92.0883C117.85 85.9638 112.862 80.9813 106.732 80.9813Z" fill="black"/>
<path d="M98.6275 93.3638C98.5531 93.3638 98.4877 93.3087 98.4774 93.2329C98.4258 92.8557 98.3989 92.4708 98.3989 92.0887C98.3989 89.1751 99.9555 86.4351 102.461 84.9376C102.532 84.8943 102.625 84.9184 102.669 84.99C102.711 85.0616 102.688 85.1552 102.616 85.1979C100.202 86.6409 98.7019 89.2812 98.7019 92.0887C98.7019 92.457 98.7273 92.8281 98.7769 93.1916C98.7886 93.2743 98.7301 93.3514 98.6475 93.3624C98.6406 93.3631 98.6337 93.3638 98.6268 93.3638H98.6275Z" fill="black"/>
<path d="M102.259 99.0864C102.231 99.0864 102.202 99.0782 102.177 99.0616C100.676 98.0806 99.5128 96.6169 98.9008 94.9398C98.8719 94.8613 98.9125 94.7739 98.991 94.7457C99.0695 94.7167 99.1569 94.7574 99.1851 94.8358C99.7745 96.4517 100.895 97.8623 102.342 98.8083C102.412 98.8544 102.431 98.948 102.386 99.0183C102.357 99.063 102.308 99.0871 102.259 99.0871V99.0864Z" fill="black"/>
<path d="M106.733 100.418C105.549 100.418 104.406 100.175 103.335 99.6962C103.258 99.6617 103.224 99.5722 103.258 99.4958C103.292 99.4194 103.381 99.385 103.459 99.4194C104.491 99.8807 105.593 100.115 106.733 100.115C109.704 100.115 112.42 98.4872 113.821 95.8669C113.86 95.7933 113.952 95.7657 114.026 95.805C114.099 95.8442 114.128 95.9365 114.088 96.0101C112.634 98.7289 109.815 100.418 106.733 100.418V100.418Z" fill="black"/>
<path d="M114.666 94.257C114.654 94.257 114.641 94.2556 114.629 94.2521C114.548 94.2315 114.499 94.1489 114.52 94.0676C114.683 93.4246 114.765 92.7595 114.765 92.0897C114.765 89.9465 113.93 87.9313 112.414 86.4167C112.354 86.3575 112.354 86.2618 112.414 86.2026C112.473 86.1434 112.568 86.1434 112.628 86.2026C114.201 87.7751 115.068 89.8659 115.068 92.0904C115.068 92.785 114.982 93.4756 114.814 94.1427C114.796 94.2115 114.734 94.257 114.667 94.257H114.666Z" fill="black"/>
<path d="M111.307 85.4569C111.278 85.4569 111.249 85.4487 111.223 85.4308C109.895 84.5344 108.342 84.0607 106.732 84.0607C106.026 84.0607 105.326 84.1523 104.65 84.3334C104.569 84.3554 104.486 84.3072 104.464 84.226C104.443 84.1454 104.49 84.0621 104.571 84.0408C105.273 83.8528 106 83.7578 106.732 83.7578C108.402 83.7578 110.014 84.2494 111.392 85.1802C111.462 85.227 111.479 85.3213 111.433 85.3908C111.403 85.4342 111.355 85.4576 111.307 85.4576L111.307 85.4569Z" fill="black"/>
<path d="M113.717 105.166C113.633 105.166 113.566 105.098 113.566 105.015V101.827C113.566 101.743 113.633 101.676 113.717 101.676C113.801 101.676 113.869 101.744 113.869 101.827V105.015C113.869 105.099 113.801 105.166 113.717 105.166Z" fill="black"/>
<path d="M112.041 106.209C111.957 106.209 111.89 106.141 111.89 106.058V103.917C111.89 103.833 111.957 103.766 112.041 103.766C112.125 103.766 112.193 103.834 112.193 103.917V106.058C112.193 106.142 112.125 106.209 112.041 106.209Z" fill="black"/>
<path d="M110.155 107.049C110.071 107.049 110.004 106.981 110.004 106.897V104.757C110.004 104.673 110.071 104.605 110.155 104.605C110.239 104.605 110.307 104.674 110.307 104.757V106.897C110.307 106.981 110.239 107.049 110.155 107.049Z" fill="black"/>
<path d="M94.1787 109.711V113.235C94.1787 118.465 89.935 122.706 84.6992 122.706C79.4634 122.706 75.2197 118.465 75.2197 113.235V109.711H94.1787Z" fill="white"/>
<path d="M84.6998 122.856C79.3896 122.856 75.0688 118.54 75.0688 113.234V109.71C75.0688 109.626 75.1363 109.559 75.2203 109.559C75.3043 109.559 75.3718 109.627 75.3718 109.71V113.234C75.3718 118.372 79.5563 122.553 84.6998 122.553C89.8433 122.553 94.0278 118.372 94.0278 113.234V109.71C94.0278 109.626 94.0952 109.559 94.1792 109.559C94.2632 109.559 94.3307 109.627 94.3307 109.71V113.234C94.3307 118.54 90.0106 122.856 84.6998 122.856Z" fill="black"/>
<path d="M84.6992 119.181C89.9345 119.181 94.1787 114.94 94.1787 109.709C94.1787 104.479 89.9345 100.238 84.6992 100.238C79.4638 100.238 75.2197 104.479 75.2197 109.709C75.2197 114.94 79.4638 119.181 84.6992 119.181Z" fill="#FED101"/>
<path d="M84.7007 119.335C79.3906 119.335 75.0698 115.019 75.0698 109.713C75.0698 104.407 79.3906 100.09 84.7007 100.09C90.0109 100.09 94.3317 104.407 94.3317 109.713C94.3317 115.019 90.0116 119.335 84.7007 119.335ZM84.7007 100.393C79.5572 100.393 75.3728 104.574 75.3728 109.713C75.3728 114.851 79.5572 119.032 84.7007 119.032C89.8443 119.032 94.0287 114.851 94.0287 109.713C94.0287 104.574 89.8443 100.393 84.7007 100.393Z" fill="black"/>
<path d="M77.8817 110.805C77.8074 110.805 77.7419 110.749 77.7316 110.674C77.6876 110.356 77.6655 110.031 77.6655 109.708C77.6655 107.249 78.9791 104.935 81.0941 103.672C81.1657 103.629 81.2586 103.653 81.302 103.724C81.3447 103.796 81.3213 103.89 81.2497 103.932C79.2256 105.142 77.9685 107.355 77.9685 109.708C77.9685 110.018 77.9898 110.329 78.0318 110.633C78.0435 110.716 77.9857 110.793 77.9024 110.804C77.8955 110.805 77.8886 110.805 77.8817 110.805V110.805Z" fill="black"/>
<path d="M80.9364 115.622C80.9082 115.622 80.8793 115.614 80.8538 115.597C79.587 114.769 78.6053 113.533 78.0889 112.118C78.06 112.039 78.1006 111.952 78.1791 111.923C78.2576 111.894 78.345 111.935 78.3733 112.014C78.8669 113.368 79.8066 114.551 81.019 115.343C81.0892 115.389 81.1085 115.483 81.0631 115.553C81.0342 115.598 80.9853 115.622 80.9364 115.622Z" fill="black"/>
<path d="M84.6993 116.735C83.7004 116.735 82.7351 116.53 81.8305 116.126C81.7541 116.091 81.7197 116.002 81.7541 115.926C81.7878 115.849 81.8773 115.815 81.9544 115.849C82.8198 116.236 83.7431 116.432 84.6993 116.432C87.1895 116.432 89.4663 115.067 90.6401 112.871C90.6793 112.797 90.7709 112.77 90.8452 112.809C90.9189 112.848 90.9471 112.94 90.9072 113.014C89.6797 115.309 87.301 116.735 84.6986 116.735H84.6993Z" fill="black"/>
<path d="M91.3744 111.559C91.362 111.559 91.3497 111.558 91.3373 111.555C91.256 111.534 91.2071 111.451 91.2278 111.371C91.3648 110.832 91.4336 110.274 91.4336 109.713C91.4336 107.917 90.7335 106.228 89.4619 104.958C89.4027 104.899 89.4027 104.803 89.4619 104.744C89.5211 104.684 89.6168 104.684 89.676 104.744C91.0047 106.071 91.7366 107.836 91.7366 109.714C91.7366 110.3 91.6643 110.883 91.5211 111.446C91.5039 111.515 91.4419 111.56 91.3744 111.56V111.559Z" fill="black"/>
<path d="M88.547 104.159C88.518 104.159 88.4884 104.151 88.4623 104.133C87.349 103.382 86.0478 102.985 84.6991 102.985C84.1071 102.985 83.5198 103.062 82.9532 103.213C82.8726 103.234 82.7893 103.187 82.7673 103.106C82.746 103.025 82.7935 102.942 82.8747 102.921C83.4668 102.762 84.0802 102.682 84.6991 102.682C86.1084 102.682 87.4688 103.097 88.6323 103.882C88.7019 103.929 88.7198 104.023 88.673 104.093C88.6434 104.136 88.5958 104.16 88.547 104.16V104.159Z" fill="black"/>
<path d="M90.5777 120.734C90.4937 120.734 90.4263 120.666 90.4263 120.583V117.901C90.4263 117.817 90.4937 117.75 90.5777 117.75C90.6617 117.75 90.7292 117.818 90.7292 117.901V120.583C90.7292 120.667 90.6617 120.734 90.5777 120.734Z" fill="black"/>
<path d="M89.1666 121.615C89.0826 121.615 89.0151 121.547 89.0151 121.464V119.663C89.0151 119.579 89.0826 119.512 89.1666 119.512C89.2506 119.512 89.3181 119.58 89.3181 119.663V121.464C89.3181 121.548 89.2506 121.615 89.1666 121.615Z" fill="black"/>
<path d="M87.5768 122.32C87.4928 122.32 87.4253 122.252 87.4253 122.169V120.368C87.4253 120.284 87.4928 120.217 87.5768 120.217C87.6607 120.217 87.7282 120.285 87.7282 120.368V122.169C87.7282 122.253 87.6607 122.32 87.5768 122.32Z" fill="black"/>
</svg>
