<svg width="144" height="120" viewBox="0 0 144 120" fill="none" xmlns="http://www.w3.org/2000/svg">
<circle cx="52.708" cy="67.5" r="52.5" fill="#F16262"/>
<path d="M19.2365 40.4195L17.4612 48.9452L13.2975 48.0862L15.0728 39.5605C15.6746 39.9298 16.3484 40.201 17.0789 40.3517C17.8095 40.5024 18.5363 40.5212 19.2365 40.4195Z" fill="#0084FF"/>
<path d="M28.1621 45.2708L24.6078 47.5954L19.8043 40.3167C21.2238 39.9776 22.4843 39.1526 23.3587 37.9922L25.7926 41.6805L26.5307 42.7957L28.1621 45.2708Z" fill="#0084FF"/>
<path d="M30.2017 34.5333C30.2017 34.4429 30.2055 34.3525 30.2055 34.262C30.2055 32.74 29.914 31.2594 29.369 29.8956C29.3349 29.8127 29.3008 29.7298 29.2668 29.6469C28.7103 28.3397 27.9154 27.1379 26.9313 26.1093C26.8707 26.0415 26.8064 25.9813 26.742 25.9172C25.7011 24.8736 24.4519 24.0184 23.0476 23.4156C22.9643 23.3817 22.8811 23.3441 22.7978 23.3139C22.1467 23.054 21.4654 22.8468 20.7538 22.6998C20.0421 22.5529 19.3343 22.4738 18.634 22.4549C18.5432 22.4549 18.4523 22.4512 18.3615 22.4512C16.8322 22.4512 15.3484 22.7413 13.9744 23.2838C13.8911 23.3177 13.8078 23.3516 13.7246 23.3855C12.4111 23.9431 11.2036 24.7305 10.1702 25.71C10.1021 25.7703 10.0415 25.8343 9.97718 25.8984C8.92866 26.9344 8.06942 28.1777 7.46378 29.5754C7.42972 29.6583 7.39186 29.7411 7.36157 29.824C7.10039 30.472 6.8922 31.1501 6.74458 31.8584C6.59695 32.5667 6.51747 33.2712 6.49854 33.9682C6.49854 34.0586 6.49475 34.149 6.49475 34.2394C6.49475 35.7615 6.78622 37.2383 7.3313 38.6059C7.36536 38.6888 7.39943 38.7716 7.43349 38.8545C7.98993 40.1618 8.78483 41.3636 9.76899 42.3921C9.82956 42.4562 9.89391 42.5202 9.95825 42.5843C11.003 43.6279 12.2483 44.4831 13.6526 45.0858C13.7359 45.1198 13.8192 45.1574 13.9025 45.1876C14.5535 45.4475 15.2349 45.6547 15.9465 45.8017C16.6581 45.9486 17.366 46.0277 18.0662 46.0465C18.1571 46.0465 18.2479 46.0465 18.3388 46.0465C19.868 46.0465 21.3518 45.7564 22.7259 45.2139C22.8091 45.18 22.8924 45.1461 22.9757 45.1122C24.2892 44.5584 25.4967 43.771 26.5338 42.7915C26.5982 42.7312 26.6625 42.6672 26.7269 42.6031C27.7754 41.5633 28.6346 40.3238 29.2403 38.9261C29.2743 38.8432 29.3084 38.7603 29.3425 38.6775C29.6036 38.0295 29.8118 37.3513 29.9595 36.6431C30.1071 35.9348 30.1866 35.2303 30.2055 34.5333H30.2017ZM23.5283 37.7507C23.5283 37.7507 23.5283 37.7544 23.5246 37.7582C23.4716 37.8373 23.4148 37.9127 23.358 37.988C22.4836 39.1484 21.2193 39.9735 19.8037 40.3125C19.7128 40.3351 19.6182 40.354 19.5236 40.3728C19.5236 40.3728 19.5198 40.3728 19.516 40.3728C19.4214 40.3916 19.3267 40.4067 19.2359 40.418C18.5356 40.5197 17.8088 40.5009 17.0783 40.3502C16.3477 40.1995 15.674 39.9282 15.0721 39.559C14.9926 39.5101 14.9094 39.4573 14.8336 39.4046C14.8336 39.4046 14.8299 39.4046 14.8261 39.4008C14.7466 39.3481 14.6709 39.2916 14.5952 39.235C13.4293 38.3648 12.6003 37.1064 12.2597 35.6974C12.237 35.607 12.218 35.5128 12.1991 35.4186C12.1991 35.4186 12.1991 35.4149 12.1991 35.4111C12.1802 35.3169 12.165 35.2227 12.1537 35.1323C12.0515 34.4353 12.0704 33.712 12.2218 32.9849C12.3732 32.2578 12.6458 31.5872 13.0167 30.9882C13.0659 30.909 13.1189 30.8262 13.1719 30.7508C13.1719 30.7508 13.1719 30.7508 13.1757 30.7433C13.2287 30.6642 13.2855 30.5888 13.3423 30.5135C14.2167 29.3531 15.4809 28.528 16.8966 28.189C16.9874 28.1664 17.0821 28.1475 17.1767 28.1287C17.1767 28.1287 17.1805 28.1287 17.1843 28.1287C17.2789 28.1098 17.3698 28.0948 17.4644 28.0835C18.1646 27.9855 18.8914 28.0006 19.622 28.1513C20.3525 28.302 21.0263 28.5732 21.6281 28.9424C21.7076 28.9914 21.7909 29.0442 21.8666 29.0969C21.8666 29.0969 21.8704 29.0969 21.8742 29.1007C21.9537 29.1534 22.0294 29.2099 22.1051 29.2664C23.2709 30.1367 24.0999 31.395 24.4406 32.8041C24.4633 32.8945 24.4822 32.9887 24.5011 33.0828C24.5011 33.0828 24.5011 33.0866 24.5011 33.0904C24.5201 33.1846 24.5352 33.275 24.5466 33.3692C24.645 34.0661 24.6298 34.7895 24.4784 35.5166C24.327 36.2437 24.0545 36.9143 23.6835 37.5133C23.6343 37.5924 23.5813 37.6753 23.5283 37.7507Z" fill="#0084FF"/>
<path d="M23.403 20.4137L21.6278 28.9393C21.0259 28.5701 20.3521 28.2989 19.6216 28.1482C18.891 27.9975 18.1643 27.9786 17.464 28.0804L19.2393 19.5547L23.403 20.4137Z" fill="#0084FF"/>
<path d="M12.2177 32.9863C12.0663 33.7134 12.0474 34.4368 12.1496 35.1337L3.58362 33.3668L4.44665 29.2227L13.0126 30.9896C12.6417 31.5886 12.3692 32.2592 12.2177 32.9863Z" fill="#0084FF"/>
<path d="M33.1128 35.1361L32.2497 39.2802L23.6837 37.5133C24.0547 36.9143 24.3272 36.2437 24.4786 35.5166C24.63 34.7895 24.649 34.0661 24.5468 33.3691L33.1128 35.1361Z" fill="#0084FF"/>
<path d="M16.8926 28.1888C15.4731 28.5279 14.2127 29.353 13.3383 30.5133L8.53479 23.2347L12.0891 20.9102L16.8926 28.1888Z" fill="#0084FF"/>
<path d="M14.5911 39.2407L7.27799 44.0216L4.9425 40.484L12.2556 35.7031C12.5963 37.1159 13.4252 38.3705 14.5911 39.2407Z" fill="#0084FF"/>
<path d="M31.7532 28.022L24.4401 32.8028C24.0994 31.3901 23.2705 30.1355 22.1046 29.2652L29.4177 24.4844L31.7532 28.022Z" fill="#0084FF"/>
<path d="M28.4754 34.4927C28.4754 34.4135 28.4754 34.3382 28.4754 34.2628C28.4754 32.9631 28.2256 31.6972 27.76 30.5293C27.7297 30.4577 27.7032 30.3862 27.6729 30.3183C27.196 29.1994 26.5184 28.1747 25.6781 27.2931C25.6251 27.2366 25.5721 27.1839 25.5191 27.1273C24.6296 26.2382 23.5622 25.5036 22.3622 24.9912C22.2903 24.9611 22.2184 24.9309 22.1465 24.9046C21.59 24.6823 21.0071 24.5052 20.4015 24.3771C19.7921 24.2528 19.1864 24.185 18.5884 24.1699C18.5089 24.1699 18.4332 24.1699 18.3575 24.1699C17.0516 24.1699 15.7835 24.4186 14.6063 24.882C14.5344 24.9121 14.4624 24.9385 14.3905 24.9686C13.2663 25.4433 12.2367 26.1177 11.351 26.954C11.2942 27.0068 11.2412 27.0595 11.1844 27.1123C10.2911 27.9976 9.55298 29.06 9.03819 30.2543C9.00791 30.3259 8.97764 30.3937 8.95114 30.4691C8.72781 31.0229 8.54991 31.603 8.42121 32.2058C8.29629 32.8086 8.22815 33.4114 8.21301 34.0104C8.21301 34.0895 8.21301 34.1649 8.21301 34.2402C8.21301 35.54 8.46284 36.8021 8.92843 37.9737C8.95871 38.0453 8.9852 38.1169 9.01548 38.1885C9.49242 39.3074 10.17 40.3322 11.0103 41.2137C11.0633 41.2702 11.1163 41.323 11.1731 41.3795C12.0664 42.2686 13.13 43.0033 14.33 43.5156C14.4019 43.5458 14.47 43.5759 14.5457 43.6023C15.1022 43.8246 15.6851 44.0016 16.2907 44.1297C16.8964 44.254 17.502 44.3219 18.1038 44.3407C18.1796 44.3407 18.259 44.3407 18.3348 44.3407C19.6407 44.3407 20.9125 44.092 22.0859 43.6287C22.1578 43.5985 22.2298 43.5721 22.2979 43.542C23.4221 43.0673 24.4517 42.3929 25.3374 41.5566C25.3942 41.5038 25.4472 41.4511 25.504 41.3946C26.3973 40.5055 27.1354 39.4468 27.6502 38.2525C27.6805 38.181 27.7108 38.1131 27.7373 38.0378C27.9606 37.484 28.1385 36.9038 28.2672 36.301C28.3921 35.6945 28.4603 35.0917 28.4754 34.4964V34.4927Z" stroke="#2D2D46" stroke-miterlimit="10"/>
<path d="M31.2772 17.6482L27.4314 23.9813L24.3389 22.1201L28.1847 15.7871C28.5632 16.2505 29.025 16.6611 29.5701 16.9851C30.1114 17.3129 30.6905 17.5314 31.281 17.6482H31.2772Z" fill="#FA6262"/>
<path d="M37.0541 24.0399L33.5452 24.9027L31.7661 17.7182C33.0001 17.8463 34.2455 17.5411 35.275 16.8555L36.1759 20.4948L36.4485 21.5987L37.0541 24.0399Z" fill="#FA6262"/>
<path d="M41.7397 16.0188C41.7662 15.9472 41.7927 15.8756 41.8192 15.804C42.2545 14.5834 42.44 13.3175 42.3908 12.0705C42.3908 11.9952 42.3832 11.9198 42.3795 11.8407C42.3037 10.6351 42.0123 9.44841 41.5126 8.34832C41.4823 8.27674 41.4483 8.20892 41.418 8.14111C40.8805 7.01088 40.1234 5.97484 39.1696 5.09704C39.1128 5.04429 39.056 4.99531 38.9992 4.94257C38.5526 4.55076 38.0643 4.19285 37.5381 3.87262C37.0082 3.55616 36.4631 3.29244 35.9067 3.08146C35.8348 3.05509 35.7628 3.02872 35.6909 3.00235C34.4683 2.5691 33.1927 2.38449 31.936 2.43347C31.8603 2.43347 31.7846 2.441 31.7051 2.44477C30.4938 2.52012 29.3014 2.81398 28.1962 3.30751C28.1242 3.33765 28.0561 3.37156 27.988 3.4017C26.8524 3.93667 25.8115 4.69016 24.9295 5.63955C24.8765 5.69606 24.8273 5.75256 24.7743 5.80907C24.3806 6.25363 24.021 6.73962 23.6993 7.26706C23.3813 7.79073 23.1164 8.33702 22.9044 8.89083C22.8779 8.96241 22.8514 9.03399 22.8249 9.10557C22.3896 10.3224 22.2041 11.5921 22.2533 12.8429C22.2533 12.9182 22.2609 12.9935 22.2647 13.0727C22.3404 14.2782 22.6356 15.465 23.1315 16.5651C23.1618 16.6367 23.1959 16.7045 23.2261 16.7723C23.7674 17.9025 24.5207 18.9385 25.4746 19.8164C25.5313 19.8691 25.5881 19.9181 25.6449 19.9708C26.0916 20.3626 26.5799 20.7205 27.1098 21.0408C27.6359 21.3572 28.1848 21.6209 28.7412 21.8319C28.8132 21.8583 28.8851 21.8847 28.957 21.911C30.1834 22.3443 31.4552 22.5289 32.7119 22.4799C32.7877 22.4799 32.8634 22.4724 32.9429 22.4686C34.1541 22.3933 35.3465 22.1032 36.4518 21.6096C36.5237 21.5795 36.5918 21.5456 36.6599 21.5117C37.7955 20.973 38.8365 20.2232 39.7184 19.2738C39.7714 19.2173 39.8206 19.1608 39.8736 19.1043C40.2673 18.6598 40.6269 18.1738 40.9486 17.6501C41.2666 17.1226 41.5316 16.5801 41.7435 16.0263L41.7397 16.0188ZM35.479 16.7158C35.479 16.7158 35.479 16.7158 35.4752 16.7195C35.4108 16.7685 35.3427 16.8137 35.2783 16.8589C34.245 17.5408 32.9996 17.8498 31.7694 17.7217C31.6899 17.7141 31.6104 17.7028 31.531 17.6915C31.531 17.6915 31.5272 17.6915 31.5234 17.6915C31.4439 17.6802 31.3644 17.6652 31.2849 17.6501C30.6982 17.5333 30.1191 17.3148 29.574 16.987C29.0327 16.6593 28.5671 16.2524 28.1886 15.789C28.1394 15.7249 28.0902 15.6609 28.041 15.5968C28.041 15.5968 28.041 15.5968 28.0372 15.5931C27.988 15.529 27.9425 15.4612 27.8971 15.3972C27.212 14.3687 26.9016 13.1292 27.0303 11.9048C27.0379 11.8257 27.0492 11.7465 27.0606 11.6636C27.0606 11.6636 27.0606 11.6599 27.0606 11.6561C27.0719 11.577 27.0871 11.4979 27.1022 11.4188C27.2196 10.8348 27.4391 10.2584 27.7684 9.71589C28.0977 9.17715 28.5065 8.71376 28.9721 8.33702C29.0365 8.28804 29.1008 8.23529 29.1652 8.19009C29.1652 8.19009 29.1652 8.19008 29.169 8.18631C29.2333 8.13734 29.3014 8.09213 29.3658 8.04692C30.3992 7.36502 31.6445 7.05609 32.8747 7.18418C32.9542 7.19171 33.0337 7.20302 33.117 7.21432C33.117 7.21432 33.1208 7.21432 33.1245 7.21432C33.204 7.22563 33.2835 7.24069 33.363 7.25576C33.9497 7.37255 34.5289 7.59107 35.0739 7.91883C35.6152 8.2466 36.0808 8.65348 36.4593 9.11687C36.5085 9.18091 36.5578 9.24496 36.607 9.30901C36.607 9.30901 36.607 9.30901 36.6107 9.31278C36.66 9.37683 36.7054 9.44464 36.7508 9.50868C37.4359 10.5372 37.7463 11.7767 37.6176 13.0011C37.61 13.0802 37.5987 13.1593 37.5873 13.2422C37.5873 13.2422 37.5873 13.246 37.5873 13.2497C37.576 13.3288 37.5608 13.408 37.5457 13.4871C37.4284 14.071 37.2088 14.6474 36.8795 15.19C36.5502 15.7287 36.1414 16.1921 35.6758 16.5688C35.6114 16.6178 35.5471 16.6668 35.4827 16.7158H35.479Z" fill="#FA6262"/>
<path d="M40.3054 2.78884L36.4596 9.12188C36.0811 8.65848 35.6193 8.25161 35.0742 7.92384C34.5329 7.59607 33.9538 7.37756 33.3633 7.26077L37.2091 0.927734L40.3016 2.78884H40.3054Z" fill="#FA6262"/>
<path d="M27.7685 9.71453C27.4391 10.2533 27.2196 10.8297 27.1022 11.4174L20.7393 7.5897L22.6092 4.51172L28.9722 8.33942C28.5066 8.71616 28.0978 9.17578 27.7685 9.71829V9.71453Z" fill="#FA6262"/>
<path d="M43.9014 17.3178L42.0314 20.3958L35.6685 16.5681C36.134 16.1913 36.5428 15.7317 36.8722 15.1892C37.2015 14.6505 37.421 14.074 37.5384 13.4863L43.9014 17.314V17.3178Z" fill="#FA6262"/>
<path d="M32.879 7.18446C31.6451 7.05637 30.3997 7.36154 29.3701 8.04721L27.5911 0.862731L31.1 0L32.879 7.18446Z" fill="#FA6262"/>
<path d="M27.8939 15.3928L20.6754 17.1635L19.8086 13.6711L27.027 11.9004C26.8984 13.1286 27.205 14.368 27.8939 15.3928Z" fill="#FA6262"/>
<path d="M44.8323 11.2326L37.6139 13.0033C37.7426 11.7751 37.436 10.5357 36.7471 9.51093L43.9655 7.74023L44.8323 11.2326Z" fill="#FA6262"/>
<path d="M40.3697 15.4986C40.3924 15.4384 40.4151 15.3743 40.4378 15.314C40.8087 14.2705 40.9677 13.1892 40.9261 12.123C40.9261 12.059 40.9185 11.9912 40.9147 11.9271C40.8504 10.8986 40.6006 9.88517 40.1766 8.94332C40.1501 8.88304 40.1236 8.82276 40.0933 8.76625C39.6315 7.80179 38.988 6.91645 38.1704 6.16673C38.1212 6.12152 38.072 6.08008 38.0228 6.03487C37.6405 5.69957 37.2241 5.39441 36.7737 5.12316C36.3232 4.8519 35.8577 4.62585 35.3807 4.44502C35.3202 4.42241 35.2558 4.39981 35.1952 4.3772C34.1505 4.008 33.0604 3.84976 31.9891 3.8912C31.9248 3.8912 31.8567 3.89874 31.7923 3.90251C30.7589 3.96655 29.7407 4.2152 28.7944 4.64092C28.7338 4.66729 28.6733 4.69366 28.6165 4.7238C27.6475 5.18343 26.7579 5.82389 26.0047 6.63766C25.9592 6.68663 25.9176 6.7356 25.8722 6.78458C25.5353 7.16509 25.2287 7.57951 24.9562 8.02784C24.6836 8.47616 24.4565 8.93955 24.2748 9.41425C24.2521 9.47452 24.2294 9.53857 24.2067 9.59885C23.8357 10.6387 23.6767 11.7237 23.7184 12.7899C23.7184 12.8539 23.726 12.9217 23.7297 12.9858C23.7941 14.0143 24.0439 15.0277 24.4679 15.9696C24.4944 16.0298 24.5209 16.0901 24.5511 16.1466C25.0129 17.1111 25.6564 17.9964 26.474 18.7461C26.5233 18.7914 26.5687 18.8328 26.6217 18.878C27.004 19.2133 27.4203 19.5185 27.8708 19.7897C28.3212 20.061 28.7868 20.287 29.2638 20.4679C29.3243 20.4905 29.3887 20.5131 29.4492 20.5357C30.4978 20.9049 31.5841 21.0631 32.6553 21.0217C32.7197 21.0217 32.7878 21.0141 32.8522 21.0104C33.8893 20.9463 34.9038 20.6977 35.8501 20.2757C35.9106 20.2493 35.9712 20.223 36.028 20.1928C36.997 19.7332 37.8865 19.0928 38.6398 18.279C38.6852 18.23 38.7269 18.181 38.7723 18.1321C39.1092 17.7516 39.4158 17.3371 39.6883 16.8888C39.9608 16.4405 40.188 15.9771 40.3697 15.5024V15.4986Z" stroke="#2D2D46" stroke-miterlimit="10"/>
<path d="M43.358 37.3266L40.9798 41.2428L39.0675 40.092L41.4456 36.1758C41.6797 36.4623 41.9653 36.7163 42.3023 36.9166C42.6371 37.1193 42.9952 37.2544 43.3603 37.3266H43.358Z" fill="#2ED66B"/>
<path d="M46.9297 41.2806L44.7599 41.8141L43.6598 37.3714C44.4229 37.4506 45.1929 37.2619 45.8296 36.8379L46.3867 39.0883L46.5552 39.7709L46.9297 41.2806Z" fill="#2ED66B"/>
<path d="M49.8277 36.3196C49.8441 36.2753 49.8605 36.2311 49.8768 36.1868C50.146 35.432 50.2607 34.6492 50.2303 33.8781C50.2303 33.8315 50.2256 33.7849 50.2233 33.736C50.1765 32.9905 49.9962 32.2567 49.6873 31.5764C49.6685 31.5321 49.6475 31.4902 49.6287 31.4483C49.2964 30.7494 48.8282 30.1087 48.2384 29.5659C48.2033 29.5333 48.1682 29.503 48.133 29.4704C47.8568 29.2281 47.5549 29.0068 47.2295 28.8087C46.9018 28.6131 46.5648 28.45 46.2207 28.3195C46.1762 28.3032 46.1318 28.2869 46.0873 28.2706C45.3312 28.0027 44.5424 27.8885 43.7653 27.9188C43.7185 27.9188 43.6717 27.9235 43.6225 27.9258C42.8735 27.9724 42.1362 28.1541 41.4527 28.4593C41.4083 28.4779 41.3661 28.4989 41.324 28.5175C40.6218 28.8484 39.9781 29.3143 39.4327 29.9014C39.3999 29.9363 39.3695 29.9712 39.3367 30.0062C39.0933 30.2811 38.8709 30.5816 38.672 30.9078C38.4754 31.2316 38.3115 31.5694 38.1804 31.9119C38.1641 31.9561 38.1477 32.0004 38.1313 32.0447C37.8621 32.7971 37.7474 33.5822 37.7778 34.3557C37.7778 34.4023 37.7825 34.4489 37.7849 34.4978C37.8317 35.2433 38.0143 35.9771 38.3209 36.6574C38.3396 36.7017 38.3607 36.7436 38.3794 36.7855C38.7141 37.4844 39.1799 38.1251 39.7698 38.6679C39.8049 38.7005 39.84 38.7308 39.8751 38.7634C40.1513 39.0057 40.4533 39.227 40.7809 39.425C41.1063 39.6207 41.4457 39.7838 41.7898 39.9143C41.8343 39.9306 41.8787 39.9469 41.9232 39.9632C42.6816 40.2311 43.4681 40.3453 44.2452 40.315C44.292 40.315 44.3388 40.3103 44.3879 40.308C45.137 40.2614 45.8743 40.082 46.5578 39.7768C46.6022 39.7582 46.6444 39.7372 46.6865 39.7163C47.3887 39.3831 48.0324 38.9195 48.5778 38.3324C48.6105 38.2975 48.641 38.2625 48.6737 38.2276C48.9172 37.9527 49.1395 37.6522 49.3385 37.3283C49.5351 37.0022 49.699 36.6667 49.83 36.3242L49.8277 36.3196ZM45.9562 36.7506C45.9562 36.7506 45.9562 36.7506 45.9539 36.7529C45.9141 36.7832 45.8719 36.8112 45.8321 36.8391C45.1931 37.2608 44.4231 37.4518 43.6623 37.3726C43.6132 37.3679 43.564 37.361 43.5149 37.354C43.5149 37.354 43.5125 37.354 43.5102 37.354C43.461 37.347 43.4119 37.3377 43.3627 37.3283C42.9999 37.2561 42.6418 37.121 42.3047 36.9183C41.97 36.7156 41.6821 36.464 41.448 36.1775C41.4176 36.1379 41.3872 36.0983 41.3568 36.0587C41.3568 36.0587 41.3568 36.0587 41.3544 36.0563C41.324 36.0167 41.2959 35.9748 41.2678 35.9352C40.8441 35.2992 40.6522 34.5327 40.7318 33.7756C40.7365 33.7267 40.7435 33.6778 40.7505 33.6265C40.7505 33.6265 40.7505 33.6242 40.7505 33.6218C40.7575 33.5729 40.7669 33.524 40.7763 33.4751C40.8488 33.114 40.9846 32.7575 41.1882 32.4221C41.3919 32.0889 41.6447 31.8024 41.9326 31.5694C41.9724 31.5391 42.0121 31.5065 42.0519 31.4785C42.0519 31.4785 42.0519 31.4785 42.0543 31.4762C42.0941 31.4459 42.1362 31.418 42.176 31.39C42.815 30.9683 43.5851 30.7773 44.3458 30.8565C44.395 30.8612 44.4441 30.8682 44.4956 30.8752C44.4956 30.8752 44.498 30.8752 44.5003 30.8752C44.5494 30.8822 44.5986 30.8915 44.6478 30.9008C45.0106 30.973 45.3687 31.1081 45.7057 31.3108C46.0405 31.5135 46.3284 31.7651 46.5624 32.0516C46.5929 32.0912 46.6233 32.1309 46.6537 32.1705C46.6537 32.1705 46.6537 32.1705 46.6561 32.1728C46.6865 32.2124 46.7146 32.2543 46.7427 32.2939C47.1663 32.9299 47.3583 33.6964 47.2787 34.4535C47.274 34.5024 47.267 34.5514 47.26 34.6026C47.26 34.6026 47.26 34.605 47.26 34.6073C47.2529 34.6562 47.2436 34.7051 47.2342 34.7541C47.1617 35.1152 47.0259 35.4716 46.8223 35.8071C46.6186 36.1402 46.3658 36.4268 46.0779 36.6597C46.0381 36.69 45.9983 36.7203 45.9585 36.7506H45.9562Z" fill="#2ED66B"/>
<path d="M48.9409 28.1391L46.5627 32.0553C46.3287 31.7688 46.0431 31.5172 45.7061 31.3145C45.3713 31.1118 45.0132 30.9767 44.6481 30.9045L47.0262 26.9883L48.9386 28.1391H48.9409Z" fill="#2ED66B"/>
<path d="M41.1881 32.4204C40.9844 32.7535 40.8487 33.11 40.7761 33.4734L36.8414 31.1065L37.9977 29.2031L41.9324 31.5701C41.6445 31.803 41.3917 32.0872 41.1881 32.4227V32.4204Z" fill="#2ED66B"/>
<path d="M51.1639 37.1232L50.0076 39.0265L46.0729 36.6596C46.3608 36.4266 46.6136 36.1424 46.8172 35.8069C47.0209 35.4738 47.1566 35.1173 47.2292 34.7539L51.1639 37.1208V37.1232Z" fill="#2ED66B"/>
<path d="M44.3487 30.8567C43.5856 30.7775 42.8155 30.9662 42.1789 31.3902L41.0787 26.9476L43.2485 26.4141L44.3487 30.8567Z" fill="#2ED66B"/>
<path d="M41.2655 35.9311L36.8018 37.026L36.2657 34.8664L40.7294 33.7715C40.6499 34.531 40.8394 35.2974 41.2655 35.9311Z" fill="#2ED66B"/>
<path d="M51.7401 33.3627L47.2764 34.4577C47.356 33.6982 47.1664 32.9317 46.7404 32.2981L51.204 31.2031L51.7401 33.3627Z" fill="#2ED66B"/>
<path d="M48.9805 35.9961C48.9945 35.9589 49.0086 35.9193 49.0226 35.882C49.252 35.2367 49.3503 34.5681 49.3246 33.9088C49.3246 33.8692 49.3199 33.8272 49.3175 33.7876C49.2778 33.1516 49.1233 32.5249 48.8611 31.9425C48.8447 31.9052 48.8283 31.868 48.8096 31.833C48.5241 31.2366 48.1261 30.6892 47.6205 30.2256C47.5901 30.1976 47.5597 30.172 47.5293 30.144C47.2929 29.9367 47.0354 29.748 46.7568 29.5802C46.4783 29.4125 46.1904 29.2727 45.8955 29.1609C45.858 29.1469 45.8182 29.1329 45.7808 29.119C45.1347 28.8907 44.4606 28.7928 43.7982 28.8184C43.7584 28.8184 43.7163 28.8231 43.6765 28.8254C43.0375 28.865 42.4078 29.0188 41.8227 29.282C41.7852 29.2983 41.7478 29.3147 41.7127 29.3333C41.1134 29.6175 40.5634 30.0136 40.0976 30.5168C40.0695 30.547 40.0437 30.5773 40.0157 30.6076C39.8073 30.8429 39.6177 31.0992 39.4492 31.3764C39.2807 31.6536 39.1402 31.9402 39.0279 32.2337C39.0138 32.271 38.9998 32.3106 38.9858 32.3479C38.7564 32.9909 38.6581 33.6618 38.6838 34.3211C38.6838 34.3607 38.6885 34.4027 38.6908 34.4423C38.7306 35.0783 38.8851 35.7049 39.1473 36.2873C39.1637 36.3246 39.18 36.3619 39.1988 36.3968C39.4843 36.9932 39.8822 37.5407 40.3878 38.0043C40.4183 38.0323 40.4463 38.0579 40.4791 38.0859C40.7155 38.2932 40.973 38.4819 41.2515 38.6496C41.5301 38.8174 41.818 38.9571 42.1129 39.069C42.1504 39.0829 42.1902 39.0969 42.2276 39.1109C42.876 39.3392 43.5478 39.4371 44.2102 39.4114C44.25 39.4114 44.2921 39.4068 44.3319 39.4044C44.9732 39.3648 45.6005 39.2111 46.1857 38.9502C46.2232 38.9338 46.2606 38.9175 46.2957 38.8989C46.8949 38.6147 47.445 38.2186 47.9108 37.7154C47.9389 37.6851 47.9646 37.6549 47.9927 37.6246C48.201 37.3893 48.3906 37.133 48.5592 36.8558C48.7277 36.5786 48.8681 36.292 48.9805 35.9985V35.9961Z" stroke="#2D2D46" stroke-miterlimit="10"/>
<path d="M121.106 60.5389V110.936C121.106 115.614 117.293 119.409 112.593 119.409H32.3947C27.6949 119.409 23.885 115.614 23.885 110.936V60.5389C23.885 55.8607 27.6949 52.0684 32.3947 52.0684H112.593C117.293 52.0684 121.106 55.8607 121.106 60.5389Z" fill="white" stroke="#2D2D46" stroke-miterlimit="10"/>
<path d="M121.107 60.7012H23.8821" stroke="#2D2D46" stroke-miterlimit="10"/>
<path d="M108.176 56.2156C108.176 56.9818 107.552 57.5992 106.786 57.5992C106.019 57.5992 105.396 56.9785 105.396 56.2156C105.396 55.4527 106.019 54.832 106.786 54.832C107.552 54.832 108.176 55.4527 108.176 56.2156Z" fill="#76C6BE"/>
<path d="M113.889 56.2156C113.889 56.9818 113.266 57.5992 112.499 57.5992C111.732 57.5992 111.109 56.9785 111.109 56.2156C111.109 55.4527 111.732 54.832 112.499 54.832C113.266 54.832 113.889 55.4527 113.889 56.2156Z" fill="#FA6262"/>
<path d="M102.463 56.2156C102.463 56.9818 101.84 57.5992 101.073 57.5992C100.307 57.5992 99.6831 56.9785 99.6831 56.2156C99.6831 55.4527 100.307 54.832 101.073 54.832C101.84 54.832 102.463 55.4527 102.463 56.2156Z" fill="#2ED66B"/>
<path d="M36.4969 71.498V111.522H111.031" stroke="#2D2D46" stroke-linecap="round" stroke-linejoin="round"/>
<path d="M101.255 99.078V111.524H36.4968V94.3258C38.2962 92.913 40.1345 91.5488 42.0119 90.2427C44.3407 88.6231 47.1631 87.0196 49.8719 87.8827C51.8337 88.5067 53.1816 90.2944 54.1463 92.1048C55.1142 93.9152 55.8612 95.884 57.2383 97.4099C58.6187 98.9326 60.889 99.9186 62.7664 99.0748C64.7281 98.1923 65.4199 95.8258 66.0176 93.7665C67.7357 87.886 70.5192 82.319 74.1927 77.4051C75.7744 75.2908 78.0643 73.0957 80.6627 73.6033C83.4039 74.1399 84.6187 77.279 85.3657 79.959C87.3177 86.9646 89.2633 93.9702 91.2153 100.972C91.5011 102.001 91.9915 103.219 93.0536 103.365C94.2554 103.53 95.0479 102.224 95.8176 101.289C97.1103 99.7214 99.228 98.8614 101.255 99.078Z" fill="#2ED66B"/>
<mask id="mask0_1408_2458" style="mask-type:luminance" maskUnits="userSpaceOnUse" x="36" y="73" width="66" height="39">
<path d="M101.254 99.078V111.524H36.4966V94.3258C38.296 92.913 40.1343 91.5488 42.0116 90.2427C44.3404 88.6231 47.1629 87.0196 49.8717 87.8827C51.8335 88.5067 53.1814 90.2944 54.146 92.1048C55.1139 93.9152 55.861 95.884 57.2381 97.4099C58.6185 98.9326 60.8888 99.9186 62.7661 99.0748C64.7279 98.1923 65.4197 95.8258 66.0173 93.7665C67.7355 87.886 70.519 82.319 74.1924 77.4051C75.7742 75.2908 78.064 73.0957 80.6624 73.6033C83.4037 74.1399 84.6184 77.279 85.3655 79.959C87.3175 86.9646 89.263 93.9702 91.215 100.972C91.5009 102.001 91.9913 103.219 93.0534 103.365C94.2551 103.53 95.0476 102.224 95.8174 101.289C97.1101 99.7214 99.2278 98.8614 101.254 99.078Z" fill="white"/>
</mask>
<g mask="url(#mask0_1408_2458)">
<path d="M25.8823 93.8844C27.3894 96.393 29.9455 98.255 32.8037 98.9274C35.662 99.5998 38.7832 99.0729 41.2582 97.4986C43.3434 96.1732 45.0388 94.1237 47.4293 93.4868C49.5145 92.9308 51.7946 93.5612 53.8538 92.9146C56.1436 92.197 57.7384 89.9179 58.0112 87.5419C58.284 85.1659 57.3778 82.7608 55.9227 80.8632C54.4676 78.9624 52.4961 77.5142 50.4369 76.2793" stroke="#FAF8F6" stroke-miterlimit="10"/>
<path d="M30.6633 119.073C31.7611 116.245 32.8784 113.384 34.6681 110.93C36.4577 108.476 39.0301 106.443 42.0345 105.948C43.4863 105.709 45.0096 105.829 46.3965 105.341C48.8227 104.487 50.7812 101.843 53.3081 102.331C55.3738 102.732 56.4489 105.224 56.0559 107.284C55.6629 109.343 54.2403 111.03 52.8697 112.621C50.9534 114.838 49.0403 117.056 47.124 119.274" stroke="#FAF8F6" stroke-miterlimit="10"/>
<path d="M60.9894 91.9393C60.9601 93.5587 62.006 95.0586 63.3571 95.9637C64.7083 96.8688 66.3323 97.2696 67.9368 97.5476C70.0512 97.9128 72.276 98.0874 74.2995 97.373C76.323 96.6619 78.0867 94.8711 78.1841 92.7377C78.2815 90.5396 76.6998 88.6777 75.5955 86.7706C72.9678 82.2355 72.9419 76.3136 75.5305 71.7559" stroke="#FAF8F6" stroke-miterlimit="10"/>
<path d="M59.8075 117.958C60.4928 115.434 61.3276 112.912 62.7404 110.708C64.1533 108.503 66.206 106.616 68.7134 105.833C72.5622 104.631 77.1289 106.073 80.536 103.923C81.9554 103.028 82.9525 101.625 83.9529 100.28C84.95 98.9354 86.0381 97.5745 87.5451 96.8343C89.0522 96.094 91.0886 96.1652 92.1832 97.4323C93.4564 98.9063 92.94 101.166 92.1832 102.957C90.6177 106.664 88.3051 110.058 85.4242 112.877C83.6346 114.629 81.6143 116.177 80.1495 118.207C78.6847 120.237 77.8434 122.94 78.7821 125.257" stroke="#FAF8F6" stroke-miterlimit="10"/>
<path d="M90.1726 76.7966C86.0672 76.441 81.8773 79.0013 80.3378 82.8061C79.6038 84.6229 79.5485 86.9569 80.9939 88.2855C82.0495 89.2553 83.5923 89.4266 85.0214 89.5495C89.2697 89.9148 93.5148 90.2801 97.7631 90.6454" stroke="#FAF8F6" stroke-miterlimit="10"/>
<path d="M97.5194 115.932C95.3432 114.52 94.6871 111.242 96.1487 109.105C97.3212 107.395 99.4064 106.619 101.222 105.61C103.742 104.207 105.912 102.184 107.484 99.7754" stroke="#FAF8F6" stroke-miterlimit="10"/>
</g>
<path d="M49.2816 87.9628L74.1903 77.3984L88.8548 91.5058L101.688 88.8324" stroke="#2D2D46" stroke-miterlimit="10"/>
<path d="M75.5509 77.3994C75.5509 78.1462 74.9435 78.7539 74.19 78.7539C73.4365 78.7539 72.8291 78.1494 72.8291 77.3994C72.8291 76.6494 73.4365 76.0449 74.19 76.0449C74.9435 76.0449 75.5509 76.6494 75.5509 77.3994Z" fill="#FA6262"/>
<path d="M89.8162 90.5475C90.3456 91.0745 90.3456 91.9344 89.8162 92.4613C89.2868 92.9882 88.4228 92.9882 87.8934 92.4613C87.364 91.9344 87.364 91.0745 87.8934 90.5475C88.4228 90.0206 89.2868 90.0206 89.8162 90.5475Z" fill="#FA6262"/>
<path d="M102.649 87.9382C103.178 88.4651 103.178 89.325 102.649 89.8519C102.12 90.3788 101.256 90.3788 100.726 89.8519C100.197 89.325 100.197 88.4651 100.726 87.9382C101.256 87.4112 102.12 87.4112 102.649 87.9382Z" fill="#FA6262"/>
<path d="M50.6421 87.9658C50.6421 88.7126 50.0347 89.3203 49.2812 89.3203C48.5277 89.3203 47.9203 88.7158 47.9203 87.9658C47.9203 87.2158 48.5277 86.6113 49.2812 86.6113C50.0347 86.6113 50.6421 87.2158 50.6421 87.9658Z" fill="#FA6262"/>
<path d="M110.34 67.1621H96.0002V81.4344H110.34V67.1621Z" stroke="#0084FF" stroke-miterlimit="10"/>
<path d="M61.468 73.5241H44.3382C43.7925 73.5241 43.3508 73.0844 43.3508 72.5413C43.3508 71.9982 43.7925 71.5586 44.3382 71.5586H61.468C62.0136 71.5586 62.4554 71.9982 62.4554 72.5413C62.4554 73.0844 62.0136 73.5241 61.468 73.5241Z" stroke="#0084FF" stroke-miterlimit="10"/>
<path d="M61.468 76.9342H44.3382C43.7925 76.9342 43.3508 76.4946 43.3508 75.9515C43.3508 75.4084 43.7925 74.9688 44.3382 74.9688H61.468C62.0136 74.9688 62.4554 75.4084 62.4554 75.9515C62.4554 76.4946 62.0136 76.9342 61.468 76.9342Z" stroke="#0084FF" stroke-miterlimit="10"/>
<path d="M105.994 71.3984H100.343V77.0233H105.994V71.3984Z" fill="#0084FF"/>
<path d="M136.562 65.1448C135.948 65.1448 135.354 65.2192 134.782 65.3582C133.252 61.5921 129.546 58.9316 125.214 58.9316C120.01 58.9316 115.704 62.7688 114.999 67.7568C114.421 67.5338 113.794 67.4109 113.138 67.4109C110.289 67.4109 107.98 69.7094 107.98 72.5444C107.98 72.8612 108.009 73.1716 108.064 73.4722H143.941C143.98 73.1683 144 72.858 144 72.5444C144 68.4551 140.671 65.1416 136.562 65.1416V65.1448Z" fill="#0084FF"/>
<path d="M114.999 67.7539C114.999 67.7539 116.905 68.2226 117.847 70.0976" stroke="#2D2D46" stroke-linecap="round" stroke-linejoin="round"/>
<path d="M132.271 67.4154C132.271 67.4154 132.719 66.0512 134.782 65.3594" stroke="#2D2D46" stroke-linecap="round" stroke-linejoin="round"/>
<path d="M127.328 71.6367H122.771V82.8994H127.328V71.6367Z" fill="#76C6BE"/>
<path d="M119.377 74.2119L124.866 65.8457L130.917 74.2119H119.377Z" fill="#76C6BE"/>
<path d="M38.1547 110.866H4.4598C1.9988 110.866 0 108.88 0 106.427C0 103.978 1.99574 101.988 4.4598 101.988H38.1547C40.6157 101.988 42.6145 103.975 42.6145 106.427C42.6145 108.876 40.6188 110.866 38.1547 110.866Z" fill="#0084FF"/>
<path d="M40.5607 106.469C40.5607 107.151 40.2821 107.773 39.8322 108.221C39.3822 108.669 38.7608 108.946 38.0721 108.946H4.74759C3.37322 108.946 2.25903 107.837 2.25903 106.469C2.25903 105.787 2.53758 105.165 2.98754 104.717C3.4375 104.269 4.06193 103.992 4.74759 103.992H38.0721C39.4465 103.992 40.5607 105.101 40.5607 106.469Z" fill="white"/>
<path d="M21.3072 106.469C21.3072 107.572 20.2941 108.464 19.0452 108.464H5.21583C3.97002 108.464 2.91093 107.596 2.89562 106.499C2.88644 105.939 3.14356 105.427 3.55679 105.061C3.96696 104.702 4.53324 104.477 5.15767 104.477H19.0452C20.2941 104.477 21.3072 105.369 21.3072 106.472V106.469Z" fill="#FA6262"/>
<mask id="mask1_1408_2458" style="mask-type:luminance" maskUnits="userSpaceOnUse" x="2" y="104" width="20" height="5">
<path d="M21.3074 106.485C21.3074 107.587 20.2942 108.48 19.0453 108.48H5.21595C3.97014 108.48 2.91105 107.612 2.89575 106.515C2.88656 105.955 3.14368 105.443 3.55691 105.077C3.96708 104.718 4.53336 104.492 5.15779 104.492H19.0453C20.2942 104.492 21.3074 105.385 21.3074 106.488V106.485Z" fill="white"/>
</mask>
<g mask="url(#mask1_1408_2458)">
<path d="M0.833008 104.809C1.51866 105.415 2.47062 105.668 3.3889 105.628C4.30718 105.589 5.1918 105.287 6.02132 104.897C6.70697 104.574 7.37426 104.187 7.89768 103.642C8.4211 103.096 8.79453 102.377 8.80677 101.625" stroke="white" stroke-width="2" stroke-miterlimit="10"/>
<path d="M3.33093 109.336C4.11147 107.679 5.83479 106.503 7.6683 106.375C9.50181 106.247 11.3751 107.17 12.3822 108.7" stroke="white" stroke-width="2" stroke-miterlimit="10"/>
<path d="M11.1331 103.23C11.0137 104.026 11.5647 104.775 12.2044 105.266C13.3951 106.18 15.0113 106.521 16.4714 106.167C17.9314 105.814 19.2109 104.772 19.8476 103.416" stroke="white" stroke-width="2" stroke-miterlimit="10"/>
<path d="M17.2643 109.839C17.5306 109.129 17.904 108.459 18.3662 107.858C19.0917 106.923 20.0681 106.143 21.216 105.842C22.3638 105.54 23.6862 105.781 24.5279 106.612" stroke="white" stroke-width="2" stroke-miterlimit="10"/>
</g>
</svg>
