<svg width="108" height="126" viewBox="0 0 108 126" fill="none" xmlns="http://www.w3.org/2000/svg">
<circle cx="52.5" cy="73.5" r="52.5" fill="#F58A1F"/>
<path d="M93.7371 87.6481H35.4238C30.4652 87.6481 26.4309 83.5924 26.4309 78.6075V44.7457C26.4309 39.7605 30.4652 35.7051 35.4238 35.7051H93.7371C98.6959 35.7051 102.73 39.7608 102.73 44.7457V78.6075C102.73 83.5927 98.6956 87.6481 93.7371 87.6481ZM35.4238 35.9512C30.6002 35.9512 26.6757 39.8965 26.6757 44.7457V78.6075C26.6757 83.457 30.6002 87.402 35.4238 87.402H93.7371C98.561 87.402 102.485 83.4567 102.485 78.6075V44.7457C102.485 39.8962 98.5607 35.9512 93.7371 35.9512H35.4238Z" fill="black"/>
<path d="M89.4856 39.6953H40.5797C35.6807 39.6953 31.7092 43.6878 31.7092 48.6129V74.7025C31.7092 79.6275 35.6807 83.6201 40.5797 83.6201H89.4856C94.3846 83.6201 98.3561 79.6275 98.3561 74.7025V48.6129C98.3561 43.6878 94.3846 39.6953 89.4856 39.6953Z" fill="#2ED66B"/>
<path d="M56.6 59.5956C57.5934 61.6626 57.7216 61.7875 57.7729 62.1901C57.8093 62.4767 57.7321 62.7952 57.5068 62.9748C57.3036 63.1368 57.0203 63.16 56.8058 63.3065C56.5365 63.4902 56.656 64.4528 56.6309 64.7297C56.5306 65.8344 56.3689 66.9681 55.9398 67.9902C55.2508 69.6314 54.1808 71.1126 52.7692 72.1997C49.9092 74.4024 45.9315 74.8548 42.4854 73.7985C41.2894 73.4319 40.2358 72.8626 39.1445 72.2668C38.268 71.7886 37.347 71.7054 36.4501 71.2515C32.7702 69.3905 30.5104 64.3751 32.86 58.0927C33.8358 55.4834 35.4057 53.1442 37.0488 50.8981C37.9797 49.6258 39.0646 48.2899 40.5975 47.9436C41.7115 47.6919 42.8654 48.0148 43.9617 48.3351C45.3619 48.7441 46.8097 48.9577 48.1933 49.3363C49.5192 49.6988 50.6968 50.9239 51.6639 51.8598C53.9881 54.1091 55.2569 56.8017 56.5997 59.5954L56.6 59.5956Z" fill="#FFC0C1"/>
<path d="M47.819 73.1795V79.607L39.1077 80.1913L39.8343 70.2578" fill="#FFC0C1"/>
<path d="M47.5913 60.9303C47.2115 60.5576 46.974 60.2528 46.7087 59.7974C46.5653 59.5513 45.8561 58.8056 45.8561 58.567C44.2283 56.6855 42.1148 56.9525 40.9821 58.5946C39.6655 60.503 41.1299 63.5581 43.7969 64.0231C44.4769 64.1418 41.8542 69.8391 41.5793 70.2962C40.5705 71.9732 39.6008 72.9252 37.5442 73.3345C36.2934 73.5836 34.8745 73.3433 33.9943 72.4159C33.114 71.4885 33.0283 69.8013 34.0182 68.9931C32.3513 69.5118 30.3654 68.5117 29.7807 66.8587C29.1957 65.2061 30.1069 63.1699 31.7252 62.5135C29.3155 60.4304 29.1602 57.4694 30.6989 55.8287C31.5596 54.911 32.9992 54.5377 34.1412 55.0601C33.0126 53.7474 32.9374 51.6373 33.9692 50.2466C35.001 48.856 37.0344 48.3271 38.6078 49.0406C38.6177 47.6774 39.0558 46.2935 39.9608 45.2784C40.8658 44.2634 42.2608 43.6636 43.6025 43.862C44.6078 44.0105 45.2035 44.6045 45.9057 45.2494C46.6376 45.9216 47.2217 46.5783 47.4123 47.5989C47.6248 46.7638 48.5045 46.1581 49.3556 46.2607C50.207 46.3632 50.9194 47.1605 50.9296 48.0226C51.2668 47.6554 51.9311 47.8398 52.1995 48.2602C52.468 48.6807 52.4432 49.2225 52.3636 49.7157C51.9943 52.003 50.5993 54.1028 48.6391 55.3218C48.1436 55.6301 47.5619 55.9515 47.433 56.5229C47.3785 56.7638 47.3925 56.6598 47.5913 60.9309V60.9303Z" fill="#252525"/>
<path d="M43.976 64.1975C42.6495 63.806 41.5804 63.0618 40.966 62.1018C40.2341 60.9584 40.1927 59.5103 40.8625 58.4985C41.4959 57.5418 42.7626 57.0331 43.9419 57.2611C45.0542 57.4759 46.0441 58.3001 46.5253 59.4121C46.5524 59.4746 46.5238 59.5469 46.462 59.5742C46.3999 59.6014 46.328 59.5727 46.3008 59.5106C45.8514 58.4718 44.9297 57.7027 43.8956 57.5031C42.8101 57.2927 41.646 57.7589 41.0663 58.6351C40.4591 59.5522 40.5022 60.9233 41.1718 61.9691C41.7544 62.8792 42.7746 63.5869 44.0448 63.9616C44.1098 63.981 44.1468 64.0492 44.1279 64.1143C44.1087 64.1799 44.0405 64.2169 43.976 64.1978V64.1975Z" fill="black"/>
<path d="M42.5015 61.8003C42.3895 61.8003 42.3359 61.6606 42.4201 61.5853L43.4403 60.6746C43.2575 60.4604 43.078 60.235 42.9579 59.9666C42.7985 59.6094 42.7874 59.2376 42.9276 58.946C43.3479 58.0737 44.677 58.3459 44.7756 59.2962C44.7925 59.4573 44.5488 59.4849 44.5322 59.3217C44.459 58.6193 43.4616 58.4019 43.148 59.0533C43.0392 59.2792 43.0515 59.5751 43.1812 59.8658C43.3039 60.1401 43.5076 60.3768 43.7044 60.6057C43.7484 60.6567 43.7431 60.7334 43.693 60.7783C42.5362 61.7954 42.5889 61.8006 42.5012 61.8006L42.5015 61.8003Z" fill="black"/>
<path d="M33.6999 69.1247C34.6145 68.8033 35.4516 68.2606 36.1206 67.5556C36.1672 67.5064 36.2447 67.5049 36.2937 67.5515C36.3427 67.5984 36.3444 67.6763 36.2978 67.7255C35.6023 68.4587 34.732 69.023 33.7809 69.3571C33.6261 69.4113 33.5489 69.1778 33.7002 69.1247H33.6999Z" fill="white"/>
<path d="M34.3567 63.0147C30.2807 62.8248 32.277 62.9177 31.7034 62.8911C31.5379 62.8834 31.5565 62.6297 31.7148 62.6452L34.362 62.7689C34.5199 62.7762 34.5147 63.0147 34.3564 63.0147H34.3567Z" fill="white"/>
<path d="M37.7069 56.4468C36.3764 56.2933 35.065 55.8479 33.9146 55.1587C33.8566 55.1238 33.8373 55.0485 33.872 54.9899C33.9067 54.9313 33.9816 54.9123 34.0399 54.9471C35.1609 55.6187 36.4384 56.0527 37.7349 56.2021C37.802 56.2098 37.8504 56.271 37.8425 56.3384C37.8346 56.407 37.7722 56.4547 37.7069 56.4465V56.4468Z" fill="white"/>
<path d="M39.8265 51.9613L38.444 49.2377C38.4134 49.1773 38.4373 49.1032 38.4973 49.0721C38.5577 49.0411 38.6311 49.0654 38.662 49.1257L40.0445 51.8494C40.0751 51.9098 40.0512 51.9839 39.9911 52.015C39.9305 52.046 39.8571 52.0214 39.8265 51.9613Z" fill="white"/>
<path d="M46.6418 50.0771C46.578 50.0551 46.5436 49.9851 46.5654 49.9209L47.3396 47.6418C47.3614 47.5776 47.4308 47.5436 47.4949 47.565C47.5588 47.587 47.5932 47.657 47.5713 47.7212L46.7971 50.0003C46.7756 50.0636 46.7071 50.099 46.6418 50.0771Z" fill="white"/>
<path d="M47.8189 74.3429C47.8189 74.3429 43.6165 75.1188 39.625 72.5273C39.625 72.5273 43.2157 76.3736 47.8189 77.0003V74.3429Z" fill="black"/>
<path d="M16.8682 100.894C19.8419 94.7017 23.1644 90.0394 29.3337 86.7116C38.6015 81.7021 48.4609 81.0011 57.9778 83.8344C60.3915 84.5529 62.8003 84.7867 64.8429 86.3236C69.2518 89.6409 72.0555 94.937 73.4598 100.195C75.0862 106.254 76.111 113.84 74.8691 120.051C61.8454 120.701 48.5696 120.08 35.5083 120.08C33.5071 120.08 10.9866 119.506 10.8633 120.374C11.8397 113.876 13.8089 107.265 16.868 100.895L16.8682 100.894Z" fill="#F16262"/>
<path d="M93.8942 114.408C92.2013 114.27 90.8762 112.848 90.8762 111.118C90.8762 109.388 92.2499 107.914 93.983 107.816C94.2188 109.858 94.2617 112.352 93.8942 114.408Z" fill="white"/>
<path d="M44.9666 90.354C42.4066 91.677 39.4522 92.3999 36.6225 91.868C33.7932 91.3362 31.1446 89.399 30.2212 86.6581C29.2978 83.9171 30.4564 80.4876 33.0631 79.2601C34.2371 78.7072 35.5662 78.6149 36.8601 78.5311C40.3082 78.3078 43.7564 78.0845 47.2042 77.8615C49.6567 77.7027 51.9684 77.1043 54.0151 78.9562C55.2839 80.1046 55.9744 81.8686 55.824 83.5781C55.836 83.4436 54.3524 83.671 54.2256 83.7085C52.6542 84.175 51.2837 85.8007 49.6127 87.1832C48.1655 88.3805 46.6367 89.4907 44.9666 90.3537V90.354Z" fill="#F16262"/>
<path d="M48.4635 83.7338C48.1292 83.6849 47.8374 83.434 47.7377 83.1097C47.6005 82.6637 47.8182 82.1377 48.335 81.6665C49.495 80.6096 51.1634 80.1739 52.6881 80.5308C54.2131 80.8874 55.5189 82.0179 56.0958 83.4812C56.1206 83.5445 56.0899 83.616 56.027 83.6409C55.9643 83.6655 55.8929 83.6351 55.8681 83.5718C55.3205 82.1822 54.0808 81.1089 52.6328 80.7702C51.185 80.4314 49.6011 80.8449 48.4997 81.8488C47.1449 83.083 48.6162 83.9832 49.1327 83.2067C49.1703 83.1501 49.2464 83.1352 49.3024 83.1727C49.3586 83.2105 49.3738 83.2869 49.3362 83.3432C49.1479 83.6263 48.7961 83.7824 48.4635 83.7332V83.7338Z" fill="black"/>
<path d="M29.9069 83.4134C29.9197 83.3469 29.9833 83.3032 30.0503 83.3161C30.1168 83.329 30.1599 83.3935 30.1471 83.4603C29.0514 89.1517 36.0567 94.8208 44.9106 90.245C49.7904 87.7232 51.8261 84.2934 54.1908 83.5913C54.2022 83.5878 55.2597 83.3873 55.7129 83.4204C55.8277 81.4669 54.8306 79.4696 53.143 78.4593C53.085 78.4244 53.0657 78.3491 53.1004 78.2905C53.1351 78.2322 53.21 78.2131 53.2683 78.2477C55.0991 79.3442 56.1277 81.5216 55.9461 83.5892C55.9368 83.6965 55.8068 83.739 55.7353 83.6634C55.5144 83.6285 54.3949 83.7876 54.2605 83.8272C51.9779 84.5046 49.914 87.9362 45.0228 90.4638C35.9623 95.1458 28.7725 89.3079 29.9072 83.4134H29.9069Z" fill="black"/>
<path d="M52.1365 122.243C52.7244 120.977 52.5098 119.9 52.372 118.572C51.8581 113.617 50.9079 108.573 48.8766 104.003C46.9144 99.5872 43.5872 95.4483 38.5191 94.8385C28.5052 93.6336 4.95663 90.1944 6.51194 107.339C6.9063 111.687 7.70174 115.996 8.88338 120.189C9.37772 121.943 10.0603 124.629 12.0465 124.961C13.0768 125.134 14.5083 124.782 15.6022 124.782C59.0602 124.782 44.6185 124.787 47.7885 124.785C48.4604 124.784 48.9197 125.04 49.598 124.752C50.719 124.277 51.6238 123.347 52.1365 122.243Z" fill="black"/>
<path d="M34.9885 95.3559C24.9746 94.183 1.42611 90.8355 2.98142 107.523C3.37579 111.755 4.17122 115.95 5.35286 120.031C5.82097 121.648 6.6199 124.443 8.32007 125.142C9.01028 125.426 9.77074 125.473 10.5155 125.513C22.7466 126.182 35.0148 126.162 47.2436 125.453C47.7257 125.425 48.2299 125.389 48.6412 125.135C49.4559 124.632 49.1912 123.372 49.1548 122.569C48.6756 111.946 45.5396 96.5916 34.9885 95.3559Z" fill="#0084FF"/>
<path d="M53.3495 55.8934C52.6517 56.076 51.9431 56.2163 51.2287 56.3136C50.9498 56.3514 49.6897 56.6597 49.572 56.3473C49.5219 56.2143 49.5834 56.0596 49.6854 55.9611C50.0413 55.6186 52.8316 54.8948 53.5608 54.9818C53.8433 55.0155 54.3163 55.1925 54.054 55.5268C53.887 55.7393 53.6101 55.8251 53.3495 55.8934Z" fill="black"/>
<path d="M54.4211 59.6416C54.7639 59.471 54.7878 58.8169 54.4744 58.1807C54.1611 57.5444 53.6292 57.167 53.2864 57.3376C52.9436 57.5082 52.9198 58.1623 53.2331 58.7985C53.5465 59.4348 54.0784 59.8122 54.4211 59.6416Z" fill="black"/>
<path d="M52.0812 58.668C52.0199 58.6393 51.9931 58.5663 52.0217 58.5045C52.3971 57.6914 53.1386 57.0792 54.0052 56.8668C54.0708 56.8507 54.1369 56.8914 54.153 56.9574C54.169 57.0233 54.1288 57.0898 54.0629 57.1059C53.28 57.2975 52.5828 57.8733 52.2438 58.6079C52.2146 58.6709 52.1409 58.6959 52.0812 58.6677V58.668Z" fill="black"/>
<path d="M55.8852 67.8056C55.8595 67.7997 54.4558 67.8135 53.28 66.7109C52.5816 66.0559 52.1199 65.1335 52.0132 64.1794C52.0057 64.112 52.054 64.0511 52.1214 64.0435C52.187 64.0376 52.249 64.0845 52.2566 64.1522C52.4656 66.0217 54.0075 67.4792 55.8904 67.5597C56.0487 67.5665 56.0437 67.8056 55.8852 67.8056Z" fill="black"/>
<path d="M51.2006 65.0942C51.1393 65.0655 51.1131 64.992 51.1417 64.9304C51.4672 64.233 52.2292 63.7659 52.9952 63.7985C53.0628 63.8011 53.1152 63.8585 53.1126 63.9262C53.11 63.9942 53.0505 64.0455 52.9855 64.0443C52.3146 64.0194 51.6483 64.4247 51.3635 65.0347C51.3349 65.096 51.2621 65.1226 51.2006 65.0939V65.0942Z" fill="black"/>
<path d="M55.6492 62.9914C55.5865 62.9656 55.5565 62.8938 55.5822 62.8311C55.6078 62.7681 55.6792 62.7379 55.7416 62.7637C56.0718 62.8994 56.4484 63.0468 56.8169 63.0491C57.1284 63.0459 57.5211 62.8915 57.6476 62.5601C57.7551 62.2776 57.6481 61.945 57.5295 61.657C57.2305 60.932 56.8291 60.256 56.3365 59.648C56.2939 59.5953 56.3018 59.5176 56.354 59.4748C56.4065 59.432 56.4837 59.44 56.5262 59.4924C57.034 60.1192 57.4476 60.8154 57.7557 61.5626C57.893 61.8955 58.0148 62.2849 57.8761 62.648C57.7079 63.089 57.2243 63.2909 56.8195 63.295C56.398 63.295 56.0392 63.1514 55.6492 62.9914Z" fill="black"/>
<path d="M45.998 41.8749C46.1022 41.2295 45.6663 40.6215 45.0243 40.5167C44.3824 40.4119 43.7775 40.8502 43.6733 41.4955C43.5691 42.1409 44.005 42.749 44.647 42.8537C45.2889 42.9585 45.8938 42.5203 45.998 41.8749Z" fill="black"/>
<path d="M42.559 41.8749C42.6632 41.2295 42.2273 40.6215 41.5853 40.5167C40.9434 40.4119 40.3385 40.8502 40.2343 41.4955C40.1301 42.1409 40.5661 42.749 41.208 42.8537C41.8499 42.9585 42.4548 42.5203 42.559 41.8749Z" fill="black"/>
<path d="M39.1198 41.8749C39.224 41.2295 38.7881 40.6215 38.1461 40.5167C37.5042 40.4119 36.8993 40.8502 36.7951 41.4955C36.6909 42.1409 37.1268 42.749 37.7688 42.8537C38.4107 42.9585 39.0156 42.5203 39.1198 41.8749Z" fill="black"/>
<path d="M90.994 79.8804C89.9864 77.5398 90.3047 75.6014 89.4142 73.5204C89.0376 72.6404 88.2996 71.8906 88.0787 70.9438C87.9545 70.4111 88.1454 69.7535 88.6526 69.5552C89.0869 69.3852 89.5722 69.6026 89.9619 69.8599C91.3892 70.8017 91.8987 72.2797 92.8446 73.6062C93.4576 70.5728 93.6727 66.8274 95.9071 64.4695C96.2869 64.0686 96.7474 63.6953 97.2945 63.632C97.8416 63.5687 98.4651 63.9394 98.4951 64.492C98.5455 63.6256 99.5062 62.9405 100.336 63.1787C100.875 63.3334 101.256 63.8485 101.344 64.3915C101.392 64.6898 101.192 64.9987 101.223 65.2466C101.251 65.4687 101.205 65.3676 101.455 65.3901C101.715 65.4136 101.856 65.3286 102.098 65.4836C102.358 65.6506 102.565 65.982 102.698 66.2537C102.986 66.8418 103.041 67.5568 102.774 68.1627C103.08 67.4691 104.497 67.9723 104.568 69.2135C104.651 70.686 103.09 72.4037 103.012 73.8362C102.95 74.9603 102.845 76.0471 102.549 77.1383C102.18 78.4962 101.599 79.7963 100.831 80.9731C99.7791 82.583 99.6951 82.869 97.7842 83.2572C96.4965 83.5189 95.0872 83.5951 93.8767 82.997C92.4377 82.2862 91.5551 81.1841 90.9937 79.8801L90.994 79.8804Z" fill="#FFC0C1"/>
<path d="M100.172 73.9863C100.162 71.221 102.576 68.2129 102.679 68.0863C102.722 68.0338 102.799 68.0256 102.852 68.0687C102.904 68.1118 102.912 68.1891 102.869 68.2419C102.845 68.2723 100.407 71.3092 100.417 73.9854C100.418 74.1407 100.173 74.1536 100.172 73.9863Z" fill="black"/>
<path d="M98.3377 72.5051C98.2707 72.5051 98.2159 72.4509 98.2153 72.3832C98.1722 67.8422 101.113 65.1818 101.142 65.1558C101.193 65.1106 101.27 65.1159 101.315 65.1666C101.36 65.2176 101.355 65.2952 101.304 65.3404C101.276 65.3659 98.4182 67.9562 98.4601 72.3808C98.4607 72.4488 98.4065 72.5045 98.3389 72.5051H98.3377Z" fill="black"/>
<path d="M96.0615 72.0268C96.0597 72.0268 96.0583 72.0268 96.0565 72.0268C95.9889 72.0241 95.9364 71.967 95.9391 71.899C96.123 67.2379 98.3781 64.4433 98.4011 64.4158C98.4443 64.3633 98.5215 64.356 98.5734 64.3994C98.6256 64.4427 98.6329 64.5201 98.59 64.5725C98.5679 64.5998 96.364 67.3352 96.1839 71.909C96.1813 71.9752 96.1271 72.0271 96.0618 72.0271L96.0615 72.0268Z" fill="black"/>
<path d="M52.418 85.0713C57.6255 83.2115 63.5115 84.2728 68.4768 86.7119C74.3264 89.5856 77.8226 93.6024 83.3799 97.2458C83.0383 97.0217 88.606 85.1686 89.1085 84.0231C89.5072 83.1142 89.8809 81.4296 90.5539 80.7187C91.2421 79.9917 91.8965 80.387 92.9131 80.6135C95.3044 81.146 97.6977 81.6699 100.09 82.1982C99.71 87.4436 99.1247 92.8018 98.0999 97.9584C97.1818 102.578 95.3816 107.156 92.3911 110.826C91.029 112.497 89.23 113.877 87.1451 114.401C82.6867 115.523 77.1615 112.074 73.9037 109.271" fill="#F16262"/>
<path d="M82.3175 100.621C82.2531 100.6 82.2173 100.531 82.2377 100.466L83.2631 97.2072C83.2835 97.1425 83.352 97.1062 83.4167 97.127C83.4811 97.1475 83.5169 97.2166 83.4965 97.2814L82.4711 100.54C82.4504 100.606 82.3811 100.641 82.3175 100.621Z" fill="black"/>
<path d="M89.0572 84.1334C88.9957 84.1053 88.9689 84.032 88.9969 83.9705L90.8828 79.8298C90.9072 79.7756 90.9664 79.7472 91.0241 79.7615L100.12 82.0773C100.185 82.094 100.225 82.1608 100.208 82.2267C100.192 82.2926 100.124 82.3319 100.06 82.3158L91.0629 80.0252L89.2193 84.0728C89.1913 84.1346 89.1187 84.1618 89.0572 84.1334Z" fill="black"/>
<path d="M48.7559 61.173C49.0903 60.674 50.1133 60.2286 50.8575 60.4812C51.3145 60.6362 51.6853 61.1032 51.6168 61.5832C51.534 62.1631 50.7802 62.7623 49.8965 62.6821C49.1657 62.6155 48.2056 61.9946 48.7556 61.173H48.7559Z" fill="#FF9498"/>
<path d="M79.5312 113.183L70.4655 106.716C70.4104 106.676 70.3976 106.6 70.4367 106.544C70.476 106.489 70.5521 106.475 70.6075 106.515L79.6732 112.982C79.7283 113.022 79.7411 113.098 79.702 113.154C79.6627 113.21 79.586 113.222 79.5312 113.183Z" fill="black"/>
<path d="M59.4192 63.8823C59.386 63.8234 59.4066 63.7481 59.4652 63.7147C59.5238 63.6813 59.5987 63.7021 59.632 63.761C60.2519 64.8592 61.621 65.5631 63.0507 65.5109C64.6074 65.4543 65.9199 64.6239 66.7469 63.9371C68.4421 62.5285 69.5873 60.5436 71.1814 59.0002C72.883 57.3525 74.6744 56.2968 76.5051 55.8628C81.9732 54.5659 84.5933 59.6783 84.8095 59.8834C85.4097 60.8214 86.0302 61.7916 86.8901 62.4925C87.6599 63.1198 88.8902 63.6496 90.0354 63.2549C91.8207 62.6399 92.3911 60.3446 93.9038 59.2106C94.6445 58.6553 95.8346 58.3453 96.6979 58.9759C96.7524 59.0157 96.7647 59.0928 96.725 59.1476C96.6854 59.2024 96.6087 59.2144 96.5542 59.1749C95.7911 58.6172 94.7211 58.905 94.0502 59.4078C92.5741 60.5146 92.006 62.8359 90.1147 63.4876C88.875 63.9148 87.5564 63.3522 86.7359 62.6832C85.8186 61.9351 85.1771 60.9125 84.5376 59.9127C82.4343 56.6279 79.751 55.3453 76.5614 56.1019C74.7741 56.5256 73.0208 57.5603 71.3513 59.1772C69.768 60.71 68.6254 62.6955 66.9028 64.1264C66.0467 64.8375 64.685 65.6976 63.0594 65.7565C61.572 65.8121 60.1135 65.1127 59.4189 63.8823H59.4192Z" fill="#252525"/>
<path d="M25.7449 16.5745H48.2919C50.2702 16.5745 51.8762 18.1891 51.8762 20.1778V29.302C51.8762 31.2907 50.2702 32.9053 48.2919 32.9053H25.7449C23.7667 32.9053 22.1606 31.2907 22.1606 29.302V20.1775C22.1606 18.1888 23.7667 16.5742 25.7449 16.5742V16.5745Z" fill="#0084FF"/>
<path d="M105.594 27.8324H87.5833C86.474 27.8324 85.5713 26.9249 85.5713 25.8096V17.4602C85.5713 16.345 86.474 15.4375 87.5833 15.4375H105.594C106.703 15.4375 107.606 16.345 107.606 17.4602V25.8096C107.606 26.9249 106.703 27.8324 105.594 27.8324ZM87.5833 15.6836C86.6089 15.6836 85.8161 16.4807 85.8161 17.4602V25.8096C85.8161 26.7892 86.6089 27.5862 87.5833 27.5862H105.594C106.569 27.5862 107.361 26.7892 107.361 25.8096V17.4602C107.361 16.4807 106.569 15.6836 105.594 15.6836H87.5833Z" fill="black"/>
<path d="M76.6805 0H58.0935C57.025 0 56.1589 0.870715 56.1589 1.9448V11.1563C56.1589 12.2304 57.025 13.1011 58.0935 13.1011H76.6805C77.7489 13.1011 78.615 12.2304 78.615 11.1563V1.9448C78.615 0.870715 77.7489 0 76.6805 0Z" fill="#69CBD0"/>
<path d="M76.6805 0H58.0935C57.025 0 56.1589 0.870715 56.1589 1.9448V11.1563C56.1589 12.2304 57.025 13.1011 58.0935 13.1011H76.6805C77.7489 13.1011 78.615 12.2304 78.615 11.1563V1.9448C78.615 0.870715 77.7489 0 76.6805 0Z" fill="#2ED66B"/>
<path d="M29.2476 19.709C26.4847 19.709 24.2427 21.9626 24.2427 24.7405C24.2427 26.3873 25.0308 27.8506 26.2492 28.7666C29.4956 31.2186 34.2502 28.9175 34.2502 24.7405C34.2502 21.9708 32.0163 19.709 29.2476 19.709ZM26.6902 27.9974C25.7344 27.2391 25.12 26.0611 25.12 24.7405C25.12 22.4485 26.9677 20.591 29.2476 20.591C31.5275 20.591 33.3752 22.4271 33.3752 24.7405C33.3752 28.2365 29.3534 30.1186 26.6902 27.9974Z" fill="white"/>
<path d="M29.2476 29.7704C28.1225 29.7704 27.0843 29.3976 26.2495 28.767C26.2857 28.4945 26.4326 28.1593 26.6902 27.9982C27.3935 28.5584 28.2814 28.8907 29.2476 28.8907C31.7304 28.8907 33.6917 26.691 33.3329 24.1385C33.6296 24.0467 33.9643 24.115 34.2292 24.2897C34.5172 27.183 32.2134 29.7707 29.2476 29.7707V29.7704Z" fill="black"/>
<path d="M29.4149 23.9063H26.8006C26.733 23.9063 26.6782 23.8512 26.6782 23.7832C26.6782 23.7152 26.733 23.6602 26.8006 23.6602H29.4149C29.4825 23.6602 29.5373 23.7152 29.5373 23.7832C29.5373 23.8512 29.4825 23.9063 29.4149 23.9063Z" fill="black"/>
<path d="M31.1022 25.2071H26.8009C26.7333 25.2071 26.6785 25.152 26.6785 25.084C26.6785 25.016 26.7333 24.9609 26.8009 24.9609H31.1022C31.1698 24.9609 31.2246 25.016 31.2246 25.084C31.2246 25.152 31.1698 25.2071 31.1022 25.2071Z" fill="black"/>
<path d="M62.3834 2.30469C60.0035 2.30469 58.0503 4.24333 58.0503 6.66077C58.0503 8.09834 58.7472 9.36625 59.7878 10.1457C62.5862 12.266 66.7164 10.2843 66.7164 6.66077C66.7164 4.26999 64.7854 2.30469 62.3834 2.30469ZM62.3834 10.2524C60.406 10.2524 58.811 8.63868 58.811 6.66077C58.811 4.68286 60.5272 2.92619 62.6547 3.07798C64.5012 3.2154 65.958 4.7652 65.958 6.66077C65.958 8.55634 64.3584 10.2524 62.3834 10.2524Z" fill="#F16262"/>
<path d="M66.511 5.34393C66.3245 5.53146 66.0936 5.67622 65.8456 5.76149C65.4046 4.03529 63.7703 2.92737 62.0972 3.07974C62.0704 2.82452 61.9862 2.55581 61.9299 2.32989C63.9292 2.09987 65.8852 3.35049 66.511 5.34393Z" fill="black"/>
<path d="M62.6547 3.07641C59.5633 2.85606 57.7268 6.35593 59.5059 8.78743C59.2538 8.94215 58.9976 8.99783 58.7178 8.97907C58.294 8.30805 58.0503 7.51132 58.0503 6.6595C58.0503 4.27781 59.9492 2.43205 62.0464 2.31836C62.3353 2.50091 62.5311 2.75965 62.6544 3.0767L62.6547 3.07641Z" fill="#FFDD71"/>
<path d="M69.6233 5.29007C69.9546 5.29007 70.2231 5.02008 70.2231 4.68703C70.2231 4.35398 69.9546 4.08398 69.6233 4.08398C69.292 4.08398 69.0234 4.35398 69.0234 4.68703C69.0234 5.02008 69.292 5.29007 69.6233 5.29007Z" fill="white"/>
<path d="M69.9123 7.32204C70.2404 7.18542 70.3962 6.80729 70.2603 6.47747C70.1244 6.14764 69.7483 5.99101 69.4202 6.12763C69.0921 6.26425 68.9363 6.64238 69.0722 6.9722C69.2081 7.30203 69.5843 7.45866 69.9123 7.32204Z" fill="white"/>
<path d="M69.7304 9.33383C70.0807 9.33383 70.3647 9.04836 70.3647 8.69621C70.3647 8.34407 70.0807 8.05859 69.7304 8.05859C69.3802 8.05859 69.0962 8.34407 69.0962 8.69621C69.0962 9.04836 69.3802 9.33383 69.7304 9.33383Z" fill="white"/>
<path d="M71.5336 4.85558C71.3756 4.85558 71.3695 4.61735 71.5281 4.60973L76.0016 4.39671C76.0698 4.3926 76.1267 4.44593 76.1296 4.51392C76.1328 4.5819 76.0806 4.63933 76.013 4.64255L71.5394 4.85558C71.5374 4.85558 71.5357 4.85558 71.5336 4.85558Z" fill="black"/>
<path d="M76.5324 6.88872H71.6041C71.5365 6.88872 71.4817 6.83363 71.4817 6.76565C71.4817 6.69767 71.5365 6.64258 71.6041 6.64258H76.5324C76.6 6.64258 76.6548 6.69767 76.6548 6.76565C76.6548 6.83363 76.6 6.88872 76.5324 6.88872Z" fill="black"/>
<path d="M71.6282 8.85734C71.4714 8.85734 71.4638 8.62058 71.6212 8.6115L75.2361 8.40257C75.3011 8.39847 75.3614 8.45033 75.3652 8.51832C75.3693 8.5863 75.3174 8.64432 75.2501 8.64812L71.6352 8.85705C71.6329 8.85705 71.6306 8.85705 71.6279 8.85705L71.6282 8.85734Z" fill="black"/>
<path d="M92.0624 17.4062H89.5029V25.8846H92.0624V17.4062Z" fill="#12108E"/>
<path d="M96.0437 20.6035H93.5361V25.8853H96.0437V20.6035Z" fill="#FFDD71"/>
<path d="M99.8441 17.4062H97.3882V25.8846H99.8441V17.4062Z" fill="#55B4FF"/>
<path d="M103.722 22.7344H101.369V25.885H103.722V22.7344Z" fill="#F16262"/>
<path d="M54.6735 43.5472C55.5872 43.5472 56.3279 42.8647 56.3279 42.0226C56.3279 41.1806 55.5872 40.498 54.6735 40.498C53.7597 40.498 53.019 41.1806 53.019 42.0226C53.019 42.8647 53.7597 43.5472 54.6735 43.5472Z" fill="#F16262"/>
<path d="M68.1271 50.0554C68.8763 49.7434 69.2321 48.8798 68.9218 48.1266C68.6114 47.3733 67.7524 47.0156 67.0032 47.3276C66.2539 47.6396 65.8981 48.5032 66.2084 49.2565C66.5188 50.0097 67.3778 50.3674 68.1271 50.0554Z" fill="#FFDD71"/>
<path d="M67.5653 47.3367C67.4977 47.3367 67.4429 47.2816 67.4429 47.2137V13.2461C67.4429 13.1781 67.4977 13.123 67.5653 13.123C67.6329 13.123 67.6877 13.1781 67.6877 13.2461V47.2137C67.6877 47.2816 67.6329 47.3367 67.5653 47.3367Z" fill="black"/>
<path d="M81.5821 49.8078C81.5145 49.8078 81.4597 49.7527 81.4597 49.6847V21.6348C81.4597 21.5668 81.5145 21.5117 81.5821 21.5117H85.6934C85.761 21.5117 85.8158 21.5668 85.8158 21.6348C85.8158 21.7028 85.761 21.7579 85.6934 21.7579H81.7046V49.6847C81.7046 49.7527 81.6498 49.8078 81.5821 49.8078Z" fill="black"/>
<path d="M54.6731 40.621C54.6055 40.621 54.5507 40.566 54.5507 40.498V24.8614H51.8761C51.8085 24.8614 51.7537 24.8063 51.7537 24.7383C51.7537 24.6703 51.8085 24.6152 51.8761 24.6152H54.6731C54.7407 24.6152 54.7955 24.6703 54.7955 24.7383V40.498C54.7955 40.566 54.7407 40.621 54.6731 40.621Z" fill="black"/>
<path d="M39.8768 25.3543C40.1866 27.9124 42.3951 29.854 45.0041 29.7684C47.7655 29.6779 49.9332 27.3519 49.8432 24.5757C49.7898 22.9298 48.9544 21.4931 47.7072 20.6176C44.1815 18.1313 39.309 21.0624 39.8768 25.3543ZM47.2916 21.4008C48.2712 22.1275 48.9235 23.2847 48.9664 24.6048C49.0407 26.8956 47.2543 28.8126 44.9755 28.8873C42.9002 28.9553 41.1327 27.4723 40.7774 25.4762C40.1236 21.715 44.3561 19.2158 47.2916 21.4008Z" fill="#F16262"/>
<path d="M47.7074 20.6179C47.6803 20.8913 47.5441 21.2315 47.2917 21.4009C44.3685 19.2249 40.1209 21.6971 40.7776 25.4762C40.4841 25.5776 40.1471 25.5205 39.8769 25.3543C39.31 21.07 44.1776 18.1287 47.7074 20.6176V20.6179Z" fill="black"/>
<path d="M44.7046 25.8247C44.5455 25.8247 44.5414 25.5838 44.7008 25.5789L47.3136 25.4933C47.4599 25.4731 47.4958 25.7336 47.3215 25.7392L44.7087 25.8247C44.7087 25.8247 44.7061 25.8247 44.7046 25.8247Z" fill="black"/>
<path d="M42.9764 24.5815C42.8172 24.5815 42.8131 24.3406 42.9726 24.3356L47.2715 24.1947C47.417 24.1724 47.4537 24.435 47.2794 24.4405C46.3382 24.4713 44.3026 24.5381 42.9764 24.5815Z" fill="black"/>
<path d="M81.7365 51.4214C82.5389 51.4214 83.1895 50.7675 83.1895 49.9607C83.1895 49.154 82.5389 48.5 81.7365 48.5C80.934 48.5 80.2834 49.154 80.2834 49.9607C80.2834 50.7675 80.934 51.4214 81.7365 51.4214Z" fill="#F16262"/>
<path d="M104.877 26.0079H88.3822C88.3146 26.0079 88.2598 25.9528 88.2598 25.8848C88.2598 25.8168 88.3146 25.7617 88.3822 25.7617H104.877C104.944 25.7617 104.999 25.8168 104.999 25.8848C104.999 25.9528 104.944 26.0079 104.877 26.0079Z" fill="black"/>
<path d="M70.1605 75.3477H58.4823C58.4147 75.3477 58.3599 75.2926 58.3599 75.2246C58.3599 75.1566 58.4147 75.1016 58.4823 75.1016H70.1605C70.2281 75.1016 70.2829 75.1566 70.2829 75.2246C70.2829 75.2926 70.2281 75.3477 70.1605 75.3477Z" fill="#252525"/>
<path d="M63.572 78.1739H58.9151C58.8475 78.1739 58.7927 78.1188 58.7927 78.0508C58.7927 77.9828 58.8475 77.9277 58.9151 77.9277H63.572C63.6397 77.9277 63.6945 77.9828 63.6945 78.0508C63.6945 78.1188 63.6397 78.1739 63.572 78.1739Z" fill="#252525"/>
<path d="M70.4025 80.6563H58.7584C58.6908 80.6563 58.636 80.6012 58.636 80.5332C58.636 80.4653 58.6908 80.4102 58.7584 80.4102H70.4025C70.4701 80.4102 70.5249 80.4653 70.5249 80.5332C70.5249 80.6012 70.4701 80.6563 70.4025 80.6563Z" fill="#252525"/>
</svg>
