<svg width="137" height="126" viewBox="0 0 137 126" fill="none" xmlns="http://www.w3.org/2000/svg">
<circle cx="52.5" cy="73.5" r="52.5" fill="#0084FF"/>
<path d="M58.1049 33.9266C58.1175 33.9207 58.1277 33.9097 58.1412 33.9055C58.164 33.8979 58.1876 33.8996 58.2104 33.8962C59.7243 33.4175 61.2003 32.5216 62.4178 31.2331C64.1225 29.4305 65.0032 27.1887 64.8352 25.0829C64.7077 23.4956 63.9722 22.1109 62.764 21.1846C59.9312 19.0155 55.1835 19.8421 52.1767 23.0287C50.7802 24.5088 49.9426 26.3056 49.7864 28.0761C49.7712 28.2518 49.767 28.424 49.7645 28.5954C49.7636 28.6798 49.7611 28.7643 49.7628 28.8487C49.767 29.0294 49.7788 29.2067 49.7982 29.3823C49.8025 29.4195 49.805 29.4583 49.8092 29.4955C49.8658 29.9312 49.9671 30.3483 50.114 30.7417C50.1275 30.7789 50.1444 30.8135 50.1596 30.8498C50.2204 31.0035 50.2871 31.1538 50.3623 31.2998C50.3893 31.353 50.4197 31.4054 50.4484 31.4577C50.5185 31.5835 50.5936 31.7068 50.6738 31.8267C50.7101 31.8807 50.7464 31.9348 50.7853 31.988C50.8706 32.1053 50.9634 32.2185 51.0597 32.3299C51.0985 32.3747 51.1357 32.422 51.1762 32.4659C51.3155 32.6153 51.4624 32.7606 51.6203 32.8957C51.839 33.0823 52.0763 33.2469 52.3237 33.3972C52.365 33.4225 52.4073 33.4453 52.4495 33.4698C53.2364 33.919 54.1508 34.1943 55.1497 34.2652C55.1674 34.266 55.1826 34.277 55.1995 34.2804C56.1435 34.3429 57.1288 34.2221 58.1032 33.9266H58.1049Z" fill="white"/>
<path d="M66.2644 34.3404C69.1984 31.2391 70.6972 27.3847 70.3763 23.7658C70.1315 21.0124 68.8202 18.6255 66.6823 17.0466C64.8813 15.7167 62.6387 15.0801 60.2721 15.0801C56.2732 15.0801 51.9198 16.898 48.751 20.2576C46.5937 22.5449 45.2225 25.289 44.791 28.0433C46.2036 27.9166 47.6609 27.7841 49.0803 27.6532C49.326 25.8319 50.2092 24.0158 51.6302 22.5111C54.8927 19.0527 60.0947 18.1881 63.2247 20.586C64.6052 21.644 65.4462 23.2204 65.5897 25.0231C65.7755 27.3416 64.8205 29.7944 62.9689 31.7516C61.7446 33.046 60.2746 33.9672 58.7497 34.5034L60.1344 38.5081C62.3415 37.6376 64.4651 36.2452 66.266 34.3412L66.2644 34.3404Z" fill="#2ED66B"/>
<path d="M41.7946 53.2313C42.8956 53.4449 44.1317 52.6428 44.5429 51.4413C44.7455 50.8469 44.7075 50.2423 44.4357 49.7805C44.206 49.3895 43.8227 49.1278 43.3583 49.0442L31.9824 46.9975C31.3238 46.8776 30.5867 47.1672 30.0337 47.7253C30.1688 47.7785 30.3064 47.8334 30.4348 47.8841C31.9335 48.4759 32.8344 49.9611 32.777 51.4818L41.7946 53.2296V53.2313Z" fill="#F5AA40"/>
<path d="M59.4261 38.7747L58.0254 34.7227C57.2426 34.9321 56.454 35.0519 55.684 35.0519C55.5877 35.0519 55.4923 35.0443 55.3961 35.041L53.9902 39.5287C55.7574 39.6477 57.6099 39.3936 59.4261 38.7755V38.7747Z" fill="#955B50"/>
<path d="M44.666 29.027C44.6626 29.0751 44.6635 29.1216 44.6609 29.1697C44.6381 29.5395 44.6331 29.9093 44.6466 30.2766C44.6533 30.4447 44.6668 30.6101 44.6812 30.7756C44.6947 30.9454 44.7057 31.1159 44.7276 31.2822C44.8771 32.3883 45.1979 33.4353 45.6834 34.3877C45.6944 34.4088 45.7054 34.43 45.7163 34.4511C45.8675 34.7407 46.0347 35.0202 46.2162 35.292C46.2449 35.3343 46.2719 35.3773 46.3015 35.4187C46.4704 35.6635 46.6553 35.8966 46.8486 36.1237C46.852 36.1271 46.8545 36.1313 46.8579 36.1355L48.1768 34.8276C48.3254 34.6799 48.5635 34.6824 48.7112 34.8302C48.8582 34.9779 48.8565 35.2169 48.7087 35.3638L47.3797 36.6827C47.4971 36.7983 47.6035 36.9216 47.7276 37.0314C47.9843 37.2585 48.2561 37.462 48.5322 37.6587C48.62 37.7204 48.707 37.7828 48.7974 37.8419C49.0287 37.9948 49.2668 38.1358 49.5091 38.2675C49.7042 38.3722 49.9043 38.4685 50.1078 38.5605C50.1779 38.5926 50.2471 38.6238 50.318 38.6542C51.2206 39.0384 52.1967 39.3035 53.2302 39.4352L54.6259 34.9788C53.6658 34.8504 52.7565 34.5439 51.9485 34.0517C51.9088 34.0281 51.8699 34.0027 51.8311 33.9782C51.5904 33.8246 51.3549 33.6599 51.1345 33.4716C50.9648 33.3264 50.8052 33.1719 50.6541 33.0106C50.6093 32.9625 50.5688 32.9101 50.5257 32.8603C50.4219 32.7421 50.3206 32.6214 50.2268 32.4956C50.1863 32.4407 50.1492 32.3833 50.1103 32.3267C50.0208 32.1967 49.9338 32.065 49.8545 31.9282C49.8241 31.875 49.7954 31.8209 49.7667 31.7677C49.6856 31.6174 49.6105 31.4646 49.5421 31.3076C49.5227 31.2637 49.5041 31.2189 49.4863 31.1742C49.4146 30.9977 49.3504 30.817 49.2938 30.6329C49.2845 30.6034 49.2753 30.5738 49.2668 30.5443C49.206 30.334 49.1554 30.1196 49.1157 29.9001C49.114 29.8933 49.1131 29.8865 49.1115 29.8798C49.0642 29.613 49.0262 29.3419 49.0118 29.0642C49.0034 28.9147 49.0118 28.7636 49.0135 28.6133C49.0135 28.5483 49.0076 28.4858 49.0101 28.4199C47.5823 28.5516 46.1098 28.6859 44.6947 28.8125C44.6879 28.8852 44.6727 28.9569 44.6668 29.0295L44.666 29.027Z" fill="white"/>
<path d="M26.9409 46.517L27.0034 46.5415L27.0254 46.4824C27.0127 46.4875 27 46.4926 26.9874 46.4976C26.9722 46.5035 26.957 46.5103 26.9409 46.5162V46.517Z" fill="#F5AA40"/>
<path d="M19.6007 56.8356C19.9486 56.9276 20.2711 57.0061 20.5861 57.0762L20.901 57.1455C21.7259 57.3287 22.4951 57.4435 23.1985 57.4882C23.4425 57.5068 23.673 57.5102 23.9043 57.5153C23.9964 57.517 24.0943 57.5254 24.1838 57.5254C28.9256 57.522 30.9901 54.7289 31.8749 52.2955C32.0067 51.9299 32.0582 51.5517 32.0371 51.1819C31.9737 50.0699 31.2628 49.0246 30.1542 48.5863C29.3723 48.2748 28.4469 47.9142 27.4388 47.5216V47.5233L26.9904 47.3468L24.9319 46.5456C20.5869 44.8687 14.9518 42.757 12.7548 42.2073C10.7444 41.7066 8.31268 42.7224 7.09429 44.5723C6.29301 45.789 5.36677 48.3702 8.11173 52.0287L19.6007 56.8347V56.8356Z" fill="#955B50"/>
<path d="M11.1121 41.3624C11.731 41.2974 12.3499 41.3286 12.9384 41.4755C15.1725 42.0345 20.8355 44.1555 25.1949 45.8383L25.894 46.1059C26.0764 46.0392 26.2503 45.9717 26.4234 45.9041C26.523 45.8653 26.6294 45.8264 26.7257 45.7876C27.0102 45.6711 27.2804 45.5537 27.532 45.4355C27.532 45.4355 27.5329 45.4355 27.5337 45.4347C28.9564 44.7735 30.0456 44.0381 30.7979 43.2326C31.1019 42.9075 31.3442 42.5698 31.5384 42.2219C31.5469 42.2 31.5595 42.1814 31.5714 42.162C31.6516 42.0125 31.7216 41.8614 31.7824 41.7086C31.9226 41.3523 32.0155 40.9858 32.0467 40.6075C32.0991 39.9785 32.0011 39.3199 31.752 38.6318C31.5359 38.0289 31.2117 37.4691 30.7853 36.9667C30.2947 36.3723 29.6944 35.8885 28.9961 35.5246L28.9919 35.5229C28.2945 35.1472 27.5354 34.9141 26.7358 34.8297C23.4015 34.47 21.0762 34.0065 19.2085 33.635C18.522 33.4982 17.8862 33.3715 17.2656 33.2626C16.5285 33.1351 15.8167 33.2136 15.2147 33.488C10.1951 35.7196 11.0724 41.0778 11.1121 41.305C11.1154 41.3252 11.1104 41.3447 11.1104 41.3649L11.1121 41.3624Z" fill="#955B50"/>
<path d="M87.2348 34.1836L83.8447 44.1325C87.1546 44.1832 90.141 46.1522 91.3856 49.1774C91.6085 49.7178 91.7832 50.2937 91.9344 50.8839C91.9918 50.8484 92.056 50.8222 92.1286 50.8222C93.2245 50.8222 94.117 49.9306 94.117 48.8338V36.2404C94.117 35.1436 93.2254 34.252 92.1286 34.252H87.4391C87.3623 34.252 87.2947 34.2233 87.2348 34.1836Z" fill="white"/>
<path d="M48.972 52.3797C48.771 52.9783 48.8141 53.5938 49.0911 54.0709C49.3342 54.4889 49.742 54.7726 50.2377 54.8688L55.823 55.9513C56.0332 54.2372 57.2035 52.7208 58.9116 52.1686C59.1126 52.1036 59.3287 52.0335 59.555 51.96L51.7862 50.5627C50.6497 50.3583 49.3807 51.1723 48.972 52.3805V52.3797Z" fill="#F5AA40"/>
<path d="M88.2127 5.44931C88.2954 5.55148 88.3689 5.6604 88.4423 5.77016C88.4921 5.84447 88.5453 5.91539 88.5909 5.99223C88.6652 6.11803 88.7269 6.25144 88.7885 6.38484C88.8206 6.45492 88.8594 6.52078 88.8881 6.59255C88.9717 6.80111 89.0427 7.01726 89.095 7.24101C89.2816 8.0482 89.2402 8.89423 88.9743 9.69045L76.5244 46.2227C76.6857 46.1644 76.8368 46.1095 76.9905 46.0546C77.1332 46.0031 77.2767 45.9508 77.4135 45.901C77.5697 45.8444 77.7251 45.7878 77.8737 45.7338C78.1472 45.6333 78.4081 45.5379 78.6581 45.445C78.7501 45.4112 78.8404 45.3775 78.9291 45.3445C79.1951 45.2458 79.4518 45.1487 79.6941 45.0566C79.7481 45.0364 79.8005 45.0161 79.8537 44.9958C80.1154 44.8962 80.3696 44.7982 80.6093 44.7054C80.8179 44.6243 81.0281 44.5526 81.2409 44.4892C81.3076 44.469 81.3752 44.4538 81.4419 44.436C81.5879 44.3955 81.7349 44.3567 81.8818 44.3246C81.9628 44.3069 82.0439 44.2942 82.1258 44.279C82.2609 44.2537 82.396 44.23 82.5319 44.2114C82.6189 44.1996 82.7067 44.1912 82.7945 44.1827C82.8773 44.1743 82.96 44.1616 83.0428 44.1557L93.7321 12.7824C93.8208 12.5072 93.8799 12.2378 93.9061 11.9854C93.9061 11.9736 93.9061 11.9592 93.9061 11.944V11.9423L93.912 11.8182C93.9103 11.8038 93.9103 11.7608 93.9137 11.7135C93.9052 11.5531 93.8926 11.3665 93.8664 11.1545C93.8655 11.1453 93.8639 11.1351 93.8622 11.1258C93.8495 11.0245 93.8343 10.919 93.8149 10.8075C93.8149 10.8033 93.8132 10.7982 93.8123 10.7932C93.7946 10.6935 93.7727 10.5888 93.7482 10.4816L93.7397 10.4681L93.7203 10.3558C93.3361 8.78785 92.0485 6.20669 87.8521 5.05078C87.9138 5.11073 87.9661 5.17912 88.0244 5.24245C88.0885 5.31253 88.1544 5.38008 88.2135 5.45353L88.2127 5.44931Z" fill="#2ED66B"/>
<path d="M61.0303 51.4787C63.0719 50.8125 65.6767 49.9555 68.4081 49.0369C68.5373 48.9929 68.6657 48.9507 68.7949 48.9068C69.0414 48.8241 69.2896 48.7396 69.5379 48.6561C69.971 48.5091 70.4042 48.3622 70.8373 48.2145C70.975 48.168 71.1117 48.1207 71.2494 48.0735C71.7484 47.9029 72.2457 47.7323 72.7396 47.5618L72.8274 47.5289L79.5248 27.8827L85.2064 11.2162C85.3077 10.9173 85.3457 10.6218 85.322 10.3448C85.3102 10.2063 85.2824 10.0721 85.2393 9.9446C85.1962 9.8171 85.138 9.69552 85.0637 9.58153C84.7707 9.12896 84.2649 8.84695 83.6418 8.78785C71.9578 7.67669 52.8933 5.91624 44.753 5.16477C43.9036 5.08371 43.1116 5.58779 42.8161 6.38485L31.5053 36.6512C31.523 36.674 31.5348 36.6993 31.5526 36.7213C31.7316 36.9543 31.8954 37.1966 32.0381 37.4499C32.0549 37.4803 32.0693 37.5116 32.0862 37.542C32.2314 37.8113 32.3614 38.0874 32.4636 38.3753C32.5126 38.5121 32.5582 38.6514 32.5995 38.795C32.6055 38.8144 32.6088 38.8347 32.6139 38.8541C32.6477 38.9782 32.6806 39.104 32.7068 39.2332C32.7135 39.2661 32.7169 39.3007 32.7237 39.3345C32.7456 39.451 32.7667 39.5684 32.7802 39.6883C32.7853 39.7313 32.7861 39.7753 32.7895 39.8192C32.7997 39.9315 32.8106 40.0438 32.8132 40.1586C32.8149 40.2101 32.8098 40.2624 32.8098 40.3139C32.8098 40.4229 32.8098 40.5309 32.8005 40.6407C32.7963 40.6964 32.7853 40.753 32.7785 40.8087C32.7667 40.916 32.7557 41.0232 32.7355 41.1321C32.7237 41.1937 32.7051 41.2562 32.6907 41.3187C32.6671 41.4226 32.6451 41.5264 32.6131 41.632C32.5928 41.6987 32.5641 41.7662 32.5396 41.8338C32.5168 41.8979 32.4957 41.9613 32.4695 42.0254L37.9535 42.3581C39.3568 42.5903 40.9265 42.0161 42.0857 40.8653L46.3151 36.6706C46.2914 36.6436 46.272 36.6123 46.2492 36.5845C46.0356 36.3337 45.8363 36.0737 45.6506 35.8052C45.6176 35.757 45.5855 35.7089 45.5535 35.6599C45.3474 35.3492 45.1592 35.0284 44.9911 34.6957C44.9852 34.6847 44.9793 34.6737 44.9734 34.6619C44.6137 33.9434 44.3359 33.1784 44.1544 32.3678C44.1383 32.2969 44.1291 32.2234 44.1139 32.1525C44.0548 31.8629 44.0041 31.5708 43.9686 31.271C43.9458 31.0878 43.9323 30.9029 43.918 30.7171C43.9104 30.6141 43.8952 30.5145 43.8901 30.4106C43.8867 30.3397 43.8943 30.2679 43.8926 30.197C43.8833 29.8787 43.8884 29.557 43.9045 29.2328C43.9112 29.1028 43.918 28.9727 43.9289 28.8418C43.9408 28.7 43.9391 28.5607 43.956 28.418C43.9619 28.3699 43.9771 28.326 43.999 28.2854C44.3866 25.261 45.8456 22.2349 48.2013 19.7381C53.5891 14.0262 61.9059 12.5781 67.1298 16.4384C69.4442 18.1482 70.8635 20.726 71.1278 23.699C71.4672 27.5331 69.8942 31.6012 66.8123 34.8595C63.4341 38.4302 58.9667 40.3148 54.826 40.3148C52.8967 40.3148 51.0434 39.8952 49.3986 39.0559C49.3311 39.0221 49.2643 38.9875 49.1976 38.952C49.0246 38.8591 48.854 38.7629 48.686 38.6607C48.5543 38.5813 48.4276 38.4961 48.3001 38.4108C48.1836 38.3323 48.0654 38.2563 47.9514 38.1727C47.7015 37.9903 47.4591 37.7995 47.2278 37.5952C47.091 37.4744 46.9686 37.3427 46.8402 37.216L42.6202 41.4015C41.4871 42.5253 39.9977 43.1661 38.5919 43.1661C38.3478 43.1661 38.1072 43.1467 37.8699 43.1079L32.098 42.7592C32.076 42.7946 32.0507 42.8301 32.0279 42.8656C31.9663 42.961 31.9089 43.0572 31.8388 43.1526C31.7831 43.2286 31.7164 43.3038 31.6556 43.3798C31.5804 43.4726 31.5095 43.5664 31.4251 43.6592C31.355 43.7369 31.2731 43.8129 31.1971 43.8906C31.1076 43.9809 31.0223 44.0721 30.9244 44.1616C30.8382 44.2401 30.7395 44.3178 30.6466 44.3955C30.5427 44.4833 30.4431 44.5711 30.3299 44.6572C30.2269 44.7358 30.1104 44.8134 29.9998 44.8911C29.8799 44.9756 29.7651 45.0608 29.6359 45.1444C29.5152 45.223 29.3801 45.299 29.25 45.3766C29.1133 45.4585 28.9815 45.5404 28.8355 45.6215C28.6953 45.6983 28.5399 45.7743 28.3905 45.8503C28.2571 45.9179 28.1347 45.9871 27.9945 46.0538L27.9759 46.1028L27.7074 46.8154C27.8054 46.8534 27.8982 46.8897 27.9945 46.9268C28.1423 46.9843 28.29 47.0417 28.4327 47.0974C28.4597 47.1075 28.4851 47.1177 28.5112 47.1278C28.7282 47.2122 28.9427 47.2958 29.1487 47.3769C29.174 47.387 29.1977 47.3963 29.2239 47.4064C29.245 47.4149 29.2652 47.4225 29.2863 47.4309C30.0226 46.5469 31.1211 46.0766 32.1174 46.2539L43.4933 48.3006C44.178 48.4239 44.7446 48.8131 45.0874 49.3974C45.4699 50.0484 45.5315 50.8826 45.2571 51.6856C44.7885 53.0559 43.4595 54.0185 42.1465 54.0185C41.981 54.0185 41.8156 54.0033 41.6526 53.9712L32.6671 52.2302C32.6392 52.3374 32.6249 52.4463 32.586 52.5527C32.5236 52.7249 32.4552 52.8989 32.3817 53.0728C32.3648 53.1117 32.3454 53.1513 32.3285 53.191C32.2703 53.3244 32.2111 53.4587 32.1453 53.5929C32.1157 53.6529 32.0828 53.712 32.0524 53.7719C31.9942 53.8859 31.9359 53.9991 31.8726 54.1122C31.8346 54.1797 31.7924 54.2456 31.7527 54.3123C31.6902 54.417 31.6277 54.5217 31.5602 54.6247C31.5154 54.694 31.4656 54.7607 31.4183 54.829C31.3491 54.9287 31.2798 55.0283 31.2055 55.1263C31.1532 55.1946 31.0975 55.2614 31.0426 55.3281C30.9657 55.4226 30.8889 55.5172 30.8062 55.6092C30.7471 55.6759 30.6837 55.7401 30.6212 55.8051C30.536 55.8946 30.4498 55.9833 30.3587 56.0702C30.2928 56.1336 30.2227 56.1944 30.1535 56.2551C30.0581 56.3396 29.9618 56.4223 29.8613 56.5025C29.7879 56.5608 29.7119 56.6174 29.6359 56.6731C29.5304 56.7508 29.4223 56.8276 29.3108 56.9011C29.2306 56.9543 29.1479 57.0049 29.0643 57.0556C28.9478 57.1265 28.8279 57.1949 28.7046 57.2599C28.6168 57.3064 28.5273 57.3519 28.4369 57.3959C28.3086 57.4583 28.176 57.5174 28.0409 57.574C27.9455 57.6137 27.8484 57.6525 27.7488 57.6897C27.7302 57.6964 27.7125 57.7049 27.6931 57.7116L38.038 59.9213C38.2414 59.9652 38.3723 60.1653 38.3284 60.3688C38.2904 60.5461 38.1342 60.6677 37.9594 60.6677C37.9333 60.6677 37.9062 60.6652 37.8801 60.6592L26.0669 58.1355C25.9411 58.1566 25.8068 58.1693 25.6759 58.1862C25.5518 58.2022 25.4285 58.2182 25.3002 58.2301C25.1263 58.2461 24.9447 58.2546 24.7632 58.263C24.6247 58.2689 24.4888 58.2773 24.3452 58.279C24.2988 58.279 24.2566 58.2841 24.2101 58.2841C24.0877 58.2841 23.9543 58.2731 23.8285 58.2697C23.6951 58.2664 23.5693 58.2697 23.4325 58.2621L23.3751 58.415L24.9802 59.0862C26.3328 59.6511 27.3207 60.8467 27.623 62.2854C27.6914 62.6122 27.7192 62.9373 27.7167 63.259L36.2091 65.2026L55.5032 69.6186C55.7067 69.665 55.8333 69.8676 55.7869 70.0703C55.7472 70.2451 55.5919 70.3633 55.4188 70.3633C55.3918 70.3633 55.363 70.3607 55.3343 70.354L27.6424 64.0155C27.4904 64.8328 27.1096 65.5961 26.5093 66.226C26.283 66.4624 26.0474 66.6819 25.8043 66.8871C25.7198 66.9589 25.6295 67.0205 25.5434 67.0881C25.3821 67.2147 25.2208 67.3414 25.0528 67.4554C24.943 67.5297 24.8282 67.5947 24.7151 67.6631C24.5631 67.7559 24.4111 67.8488 24.2532 67.9316C24.1874 67.9662 24.1223 68.0017 24.0556 68.0337L49.6663 74.2962C49.8681 74.3461 49.993 74.5504 49.9424 74.7522C49.9001 74.9244 49.7465 75.0401 49.5759 75.0401C49.5464 75.0401 49.516 75.0367 49.4856 75.0291L23.0855 68.5733C23.023 68.5581 22.9715 68.5243 22.9267 68.4838C22.7874 68.5285 22.6473 68.5699 22.5046 68.6079C22.3636 68.6459 22.2209 68.6797 22.0765 68.7109C21.9042 68.7481 21.7295 68.7801 21.5522 68.8072C21.5386 68.8088 21.526 68.8122 21.5125 68.8148C21.7176 71.9498 20.1058 74.4018 16.8289 75.9275L12.3598 87.8902C12.1985 88.3242 12.2289 88.808 12.4434 89.2175C12.6612 89.632 13.0302 89.9242 13.4836 90.0399C32.2627 94.8602 45.502 98.2866 52.8342 100.224C53.8778 100.498 54.978 99.9086 55.3326 98.8785L67.3907 63.4886C67.3426 63.4929 67.2945 63.4912 67.2463 63.4954C66.7178 63.541 66.1875 63.5663 65.6573 63.5697C65.5695 63.5697 65.4817 63.5672 65.3938 63.5672C64.8383 63.5629 64.2818 63.5418 63.7296 63.4912C63.3928 63.4599 63.0711 63.4177 62.7612 63.3679C62.6193 63.3451 62.4876 63.3164 62.3508 63.2902C62.1955 63.2607 62.0367 63.232 61.889 63.1982C61.7159 63.1585 61.5538 63.1138 61.39 63.0682C61.2946 63.042 61.1975 63.0166 61.1054 62.9888C60.9188 62.9322 60.7407 62.8706 60.5667 62.8064C60.5135 62.787 60.4603 62.7676 60.4088 62.7473C60.2138 62.6722 60.0263 62.5919 59.8465 62.5084C59.8296 62.5008 59.8127 62.4923 59.7967 62.4847C58.4001 61.8219 57.4646 60.9168 56.8482 59.9382C56.8449 59.9323 56.8415 59.9272 56.8373 59.9213C56.7596 59.7972 56.6861 59.6722 56.6177 59.5455C56.6008 59.5152 56.5865 59.4848 56.5705 59.4552C56.5139 59.3463 56.459 59.2382 56.4092 59.1284C56.3788 59.0626 56.3535 58.9976 56.3256 58.9317C56.2901 58.8456 56.2521 58.7603 56.2201 58.6742C56.1728 58.5475 56.1289 58.4226 56.09 58.2985C56.0875 58.29 56.0858 58.2816 56.0833 58.2731C55.9752 57.9244 55.8941 57.5782 55.8367 57.2422C55.8063 57.0649 55.8046 56.8893 55.7962 56.7136L50.0952 55.6092C49.3826 55.4707 48.794 55.0596 48.4394 54.4499C48.0527 53.7854 47.986 52.9428 48.2571 52.1381C48.7789 50.5904 50.4211 49.5536 51.9198 49.8187L60.929 51.439C60.9661 51.4458 60.9973 51.4627 61.0294 51.4787H61.0303Z" fill="white"/>
<path d="M30.1899 35.3878C30.2507 35.4317 30.3132 35.4739 30.3723 35.5204C30.569 35.674 30.7581 35.8362 30.9346 36.0118C30.9346 36.0118 30.9363 36.0135 30.9371 36.0143L42.1078 6.12455C42.1576 5.98946 42.2193 5.86111 42.2893 5.73868C42.3104 5.70069 42.3375 5.66776 42.3611 5.63146C42.4135 5.54956 42.4658 5.4685 42.5258 5.39335C42.5562 5.35536 42.5916 5.32158 42.6245 5.28527C42.6845 5.21857 42.7453 5.15187 42.8111 5.09192C42.8483 5.05899 42.888 5.02944 42.926 4.99904C42.9952 4.94331 43.0644 4.88843 43.1387 4.8403C43.1801 4.81328 43.2223 4.79049 43.2654 4.766C43.3422 4.72125 43.4208 4.67904 43.5018 4.64273C43.5466 4.62246 43.593 4.60557 43.6394 4.587C43.7213 4.55576 43.8041 4.52705 43.8894 4.50425C43.94 4.49075 43.9907 4.47893 44.0422 4.46795C44.1249 4.45022 44.2085 4.43671 44.2938 4.42742C44.3512 4.42067 44.4086 4.41644 44.4669 4.41391C44.5032 4.41222 44.5395 4.40547 44.5767 4.40547C44.6577 4.40547 44.7396 4.40885 44.8215 4.41645C52.9618 5.16876 72.0263 6.92921 83.7111 8.04037C84.5698 8.12142 85.2749 8.52417 85.6962 9.17432C86.1192 9.82784 86.1986 10.6401 85.9199 11.4625L73.7335 47.2095C74.3676 46.9882 75.0017 46.7662 75.6139 46.55L82.3087 26.9064L88.2571 9.45127C88.3314 9.23089 88.3761 9.0046 88.4082 8.77748C88.4243 8.66349 88.4428 8.55035 88.4487 8.43552C88.4656 8.09271 88.4352 7.74907 88.3576 7.41386C88.0612 6.1465 87.1257 5.15862 85.9284 4.74996C85.8439 4.72125 85.7637 4.68494 85.6768 4.66215C85.6481 4.65455 85.6168 4.65286 85.5881 4.6461C85.4269 4.60811 85.2639 4.57434 85.095 4.55745L45.3703 0.773946C43.7053 0.618587 42.1247 1.59803 41.5429 3.16091L29.6377 35.018C29.6748 35.0399 29.7078 35.067 29.7441 35.0898C29.8969 35.1835 30.0447 35.2831 30.1882 35.3878H30.1899ZM61.6332 3.84651L67.9312 4.40293C68.1389 4.42151 68.2926 4.60473 68.274 4.81244C68.2563 5.00917 68.0916 5.15693 67.8991 5.15693C67.8873 5.15693 67.8763 5.15693 67.8653 5.15525L61.5674 4.59882C61.3597 4.58025 61.206 4.39702 61.2246 4.18932C61.2432 3.97992 61.4331 3.82794 61.6341 3.84651H61.6332Z" fill="#F5AA40"/>
<path d="M133.48 19.8496H127.885C126.789 19.8496 125.896 20.7421 125.896 21.8389V64.6885C125.896 65.7853 126.788 66.6777 127.885 66.6777H133.48C134.577 66.6777 135.47 65.7853 135.47 64.6885V21.8389C135.47 20.7421 134.578 19.8496 133.48 19.8496Z" fill="white"/>
<path d="M113.85 55.0266H119.445C120.542 55.0266 121.434 54.1342 121.434 53.0374V28.3986C121.434 27.3018 120.543 26.4102 119.445 26.4102H113.85C112.753 26.4102 111.86 27.3018 111.86 28.3986V53.0374C111.86 54.1342 112.752 55.0266 113.85 55.0266Z" fill="#955B50"/>
<path d="M105.409 18.6621H99.814C98.7172 18.6621 97.8247 19.5546 97.8247 20.6514V45.2902C97.8247 46.387 98.7163 47.2786 99.814 47.2786H105.409C106.506 47.2786 107.399 46.387 107.399 45.2902V20.6514C107.399 19.5546 106.507 18.6621 105.409 18.6621Z" fill="white"/>
<path d="M62.7185 103.782L57.9269 100.789L57.1146 103.172C57.1146 103.177 57.1028 103.212 57.0859 103.26L61.8979 106.188L62.7177 103.782H62.7185Z" fill="#2ED66B"/>
<path d="M3.27707 64.1189C3.29058 64.1248 3.30324 64.1299 3.31759 64.1358C3.38261 64.162 3.46704 64.1957 3.55401 64.2295C3.58863 64.243 3.61987 64.2557 3.65786 64.27C3.74567 64.3047 3.85037 64.3443 3.95592 64.384C4.00404 64.4026 4.04711 64.4195 4.09946 64.4389C4.23286 64.4896 4.384 64.5453 4.54105 64.6027C4.57566 64.6154 4.60522 64.6264 4.64152 64.6399C4.8391 64.7116 5.05441 64.7885 5.28491 64.8695C5.33642 64.8873 5.39637 64.9075 5.44956 64.9261C5.63109 64.9886 5.81685 65.0527 6.01612 65.1203C6.10984 65.1515 6.21369 65.1853 6.31164 65.2174C6.48473 65.2748 6.65866 65.3322 6.84273 65.3913C6.95925 65.4285 7.08421 65.4673 7.20495 65.5062C7.38395 65.5627 7.56549 65.6193 7.75462 65.6776C7.89056 65.7189 8.03241 65.7612 8.17257 65.8034C8.36255 65.8599 8.5559 65.9174 8.75517 65.9756C8.90377 66.0187 9.05659 66.0626 9.21027 66.1056C9.4146 66.1639 9.62315 66.2213 9.83593 66.2796C9.9972 66.3235 10.161 66.3682 10.3265 66.4121C10.5443 66.4704 10.7681 66.5278 10.9944 66.5861C11.1658 66.63 11.3372 66.6739 11.5128 66.7178C11.7501 66.7769 11.9949 66.8352 12.2406 66.8934C12.4145 66.9348 12.5868 66.9762 12.765 67.0175C13.0275 67.0783 13.2977 67.1366 13.5679 67.1957C13.7402 67.2337 13.9099 67.2717 14.0855 67.3088C14.3895 67.373 14.7019 67.4346 15.0143 67.4963C15.1646 67.5258 15.3115 67.5571 15.4643 67.5858C15.9338 67.6753 16.4125 67.7622 16.9005 67.845C17.3168 67.9176 17.7305 67.9843 18.1578 68.0485C18.5225 68.1034 18.8721 68.1388 19.2141 68.1625C19.5577 68.1861 19.8937 68.1937 20.2222 68.1853C22.5205 68.127 24.4439 67.292 25.9612 65.7088C26.5801 65.0595 26.9229 64.2388 26.9592 63.3717C26.9592 63.359 26.9617 63.3472 26.9626 63.3345C26.9668 63.1876 26.9626 63.0398 26.9499 62.8912C26.9364 62.7426 26.9145 62.5932 26.8832 62.4437C26.6325 61.2481 25.8117 60.2552 24.6888 59.7857L23.109 59.1271L22.9292 59.052L22.7476 58.976L20.2745 57.9425V57.94L8.25278 52.9111L7.79008 52.7177C7.32653 52.7025 4.23624 52.6713 2.6818 54.8261C1.29285 56.7529 1.45582 59.8643 3.16561 64.0758C3.19939 64.0894 3.23231 64.1037 3.27875 64.1223L3.27707 64.1189Z" fill="#955B50"/>
<path d="M69.9749 63.0879C69.8914 63.1065 69.8052 63.1149 69.7208 63.1326C69.3206 63.2162 68.917 63.2855 68.5092 63.3446C68.4112 63.3589 68.3167 63.3826 68.2187 63.3952L56.045 99.1228C55.9892 99.2857 55.9166 99.4377 55.8356 99.583C55.8085 99.6311 55.7765 99.6741 55.7478 99.7197C55.6878 99.8143 55.6245 99.9055 55.5544 99.9916C55.5156 100.04 55.4734 100.084 55.4311 100.129C55.3602 100.205 55.2868 100.276 55.2082 100.344C55.1618 100.384 55.1153 100.424 55.0664 100.461C54.9802 100.526 54.8908 100.583 54.7987 100.638C54.7514 100.666 54.7067 100.697 54.6577 100.723C54.526 100.791 54.3892 100.85 54.2482 100.898C54.2313 100.903 54.2144 100.91 54.1975 100.915C54.0506 100.962 53.9003 100.994 53.7467 101.016C53.6918 101.023 53.6361 101.024 53.5812 101.028C53.5043 101.035 53.4283 101.046 53.3515 101.046C53.3135 101.046 53.2755 101.04 53.2384 101.039C53.1978 101.037 53.1573 101.034 53.1168 101.031C52.958 101.017 52.7993 100.996 52.6406 100.953C45.3091 99.0164 32.0715 95.59 13.295 90.7705C12.6415 90.6034 12.0868 90.1643 11.7735 89.5665C11.4603 88.9679 11.4155 88.2603 11.6511 87.6254L15.8652 76.3466C15.2708 76.5754 14.6384 76.7781 13.9739 76.9537L8.86896 90.6084C8.79972 90.7824 8.75329 90.9546 8.71191 91.1268C8.64437 91.4891 8.6393 91.8479 8.69418 92.1958C8.70178 92.2743 8.71107 92.3275 8.72542 92.379C8.744 92.4744 8.76004 92.5403 8.78031 92.6011C8.80395 92.7024 8.82421 92.7564 8.8411 92.7987L8.92046 93.0047C8.95339 93.0807 8.9973 93.1659 9.04627 93.2512L9.10116 93.3551C9.14 93.426 9.17715 93.4817 9.21683 93.529L9.2658 93.6033C9.33082 93.6911 9.41356 93.795 9.50306 93.8921C9.50391 93.8938 9.50559 93.8946 9.50644 93.8955C9.60607 94.0128 9.70993 94.1108 9.82645 94.1977C9.90075 94.2602 9.95901 94.3041 10.0215 94.3421L10.0316 94.3506L10.328 94.5397C10.317 94.5346 10.3407 94.5414 10.3829 94.5684C10.5087 94.6309 10.6227 94.6782 10.7248 94.7162L10.7991 94.7415C10.9612 94.7981 11.0499 94.8209 11.0575 94.8225L43.6086 103.183C43.6205 103.187 43.8011 103.238 44.1043 103.319L49.6888 104.748C49.7521 104.762 49.7799 104.768 49.8087 104.777L51.9609 105.33C52.1677 105.379 52.3729 105.412 52.5781 105.433C52.6406 105.442 52.6794 105.443 52.7199 105.444L52.8103 105.443C52.9842 105.448 53.1573 105.437 53.322 105.417C53.4351 105.406 53.5271 105.393 53.6124 105.373L53.6952 105.357C53.8311 105.324 53.929 105.297 54.027 105.263C54.1114 105.235 54.1824 105.211 54.26 105.179C54.32 105.158 54.3613 105.139 54.4019 105.119L54.4897 105.08C54.5387 105.059 54.58 105.039 54.6273 105.012C54.6873 104.983 54.7253 104.959 54.7641 104.935C55.0343 104.779 55.2707 104.597 55.4826 104.384C55.5578 104.317 55.6076 104.264 55.6557 104.206C55.7326 104.12 55.7934 104.042 55.8533 103.963C55.9386 103.853 56.0028 103.756 56.0661 103.655C56.1387 103.534 56.2046 103.409 56.2653 103.276L56.2974 103.194L56.3979 102.932L58.2352 97.5498L69.9741 63.0879H69.9749Z" fill="#F5AA40"/>
<path d="M75.2005 61.2945C75.0291 61.3747 74.8577 61.4574 74.6863 61.5334C74.5309 61.6018 74.3755 61.6643 74.2193 61.7302C74.0488 61.8019 73.8791 61.8754 73.7077 61.9429C73.5498 62.0054 73.3919 62.062 73.2331 62.1202C73.0634 62.1836 72.8946 62.2486 72.724 62.3068C72.5644 62.3626 72.4048 62.4115 72.2453 62.4639C72.0756 62.5188 71.9067 62.5753 71.737 62.6268C71.5774 62.675 71.417 62.7172 71.2574 62.7619C71.1197 62.7999 70.983 62.8422 70.8453 62.8776L58.9224 97.8689L63.7495 100.758L71.8932 76.8675C71.6323 70.7393 72.811 65.4892 75.3676 61.2168C75.3119 61.2438 75.2553 61.2683 75.1996 61.2945H75.2005Z" fill="#2ED66B"/>
<path d="M91.8989 54.8566C91.7216 53.7665 91.5696 52.8301 91.4354 52.0829C91.2733 51.1566 91.0217 50.2768 90.6873 49.4663C89.4959 46.5702 86.5391 44.7261 83.3348 44.8933C82.4997 44.9262 81.6756 45.0993 80.8828 45.4084C79.6779 45.8787 78.2282 46.4148 76.2119 47.1376L76.0481 47.1967C76.0455 47.1975 76.043 47.1984 76.0405 47.1992L75.3034 47.4635L75.3051 47.4576C74.714 47.6661 74.1247 47.8738 73.5328 48.0799L73.2499 48.1854C72.7374 48.3627 72.2198 48.54 71.7006 48.7182C71.5292 48.7773 71.3586 48.8355 71.1864 48.8938C70.7954 49.0272 70.4036 49.1598 70.0136 49.2923C67.1563 50.2608 64.3413 51.1913 61.9425 51.9757C61.8454 52.0069 61.7525 52.0373 61.6579 52.0685C61.2771 52.1927 60.909 52.3134 60.5527 52.4291C60.3509 52.4949 60.1575 52.5574 59.9701 52.6182C59.8477 52.6579 59.7134 52.7018 59.5944 52.7398C57.3796 53.4575 56.1342 55.8225 56.7962 58.0271C56.808 58.0651 56.8232 58.1031 56.835 58.1411C56.9262 58.4205 57.0352 58.6865 57.1567 58.9406C57.1998 59.0285 57.2471 59.1146 57.2944 59.2015C57.3965 59.3898 57.508 59.5705 57.6279 59.7436C57.7182 59.8728 57.817 59.9995 57.9209 60.1244C57.9825 60.1996 58.0492 60.2705 58.1151 60.3423C58.2966 60.5398 58.4959 60.7315 58.7171 60.9139C58.7745 60.9612 58.8336 61.0076 58.8927 61.054C59.1258 61.2322 59.3833 61.4002 59.6619 61.5581C59.7489 61.6071 59.8333 61.6586 59.9237 61.705C60.0765 61.7835 60.2369 61.8579 60.4024 61.9288C60.5772 62.0039 60.7596 62.0732 60.9462 62.1382C61.1201 62.1998 61.3008 62.2581 61.4891 62.3121C61.7373 62.383 61.9915 62.448 62.2574 62.5038C62.3748 62.5291 62.4947 62.5527 62.6171 62.5747C62.9954 62.6422 63.3829 62.7014 63.7958 62.7402C65.151 62.866 66.5273 62.8449 67.885 62.6777H67.8917C68.3266 62.6254 68.7589 62.5595 69.1878 62.4793C69.6142 62.3999 70.0355 62.3054 70.4501 62.199L70.4611 62.1964C70.7853 62.1162 71.1095 62.0276 71.4329 61.9321C72.9764 61.4745 74.5088 60.8421 76.016 60.0467C76.4069 59.8407 76.7979 59.6271 77.1854 59.3983C77.4987 59.2134 77.8111 59.0217 78.1218 58.8224C78.1252 58.8199 78.1302 58.8199 78.1336 58.8174C79.9194 57.6707 80.9723 56.7048 80.9833 56.6947C81.1369 56.5528 81.375 56.563 81.516 56.7158C81.6579 56.8695 81.6478 57.1076 81.4958 57.2494C81.451 57.29 80.3855 58.2694 78.5364 59.4565C78.533 59.4591 78.5279 59.4574 78.5245 59.4599C78.2113 59.6609 77.8955 59.8542 77.5797 60.0417C77.4548 60.1151 77.329 60.1827 77.204 60.2544C77.0199 60.36 76.8359 60.4672 76.6501 60.5677C73.705 64.8966 72.3583 70.3908 72.6462 76.8998L72.6538 76.9699L72.6504 76.98C73.2043 88.567 78.8184 99.4733 78.875 99.5823C78.9712 99.7672 78.8994 99.9952 78.7154 100.091C78.6596 100.12 78.5997 100.134 78.5406 100.134C78.4046 100.134 78.2729 100.061 78.2062 99.931C78.1522 99.8263 73.0296 89.8774 72.0256 78.8182L62.5859 106.509C62.5513 106.615 62.5073 106.725 62.4634 106.828C61.5718 109.054 59.8055 109.542 58.4199 109.535C58.403 109.535 58.3878 109.538 58.3709 109.538C58.3498 109.538 58.3287 109.535 58.3076 109.534C58.3034 109.534 58.2983 109.534 58.2941 109.534C63.7629 112.077 68.6356 113.605 71.2556 114.336C72.5162 114.687 73.6164 115.41 74.4371 116.428L80.4395 123.843C96.8772 129.453 105.822 117.265 108.176 113.39C111.756 107.495 112.688 101.102 110.299 98.8333C97.7165 90.5748 93.6391 65.5434 91.8981 54.8557L91.8989 54.8566Z" fill="#955B50"/>
<path d="M13.0891 77.1675C10.4708 77.7383 8.15817 77.7704 7.68702 77.7704C7.64227 77.7704 7.61357 77.7704 7.60344 77.7704C7.39488 77.7678 7.22855 77.5964 7.23024 77.3887C7.23277 77.1819 7.40164 77.0155 7.60766 77.0155C7.61103 77.0155 7.61103 77.0155 7.65663 77.0155C8.03489 77.0155 10.7452 76.9885 13.5856 76.2767L13.5966 76.2742C14.5971 76.0209 15.5208 75.7034 16.3449 75.3311C16.3534 75.326 16.3593 75.3184 16.3686 75.3142C19.4622 73.9235 20.9213 71.7629 20.749 68.9048C20.6815 68.9098 20.6122 68.9098 20.5438 68.9141C20.4012 68.9217 20.2585 68.9309 20.1132 68.9335C20.0583 68.9335 20.006 68.9402 19.9511 68.9402C19.6927 68.9402 19.431 68.9318 19.1642 68.9141C18.802 68.8896 18.4321 68.8516 18.0463 68.7933C17.6131 68.7274 17.1935 68.6608 16.7722 68.5873C16.285 68.5045 15.8079 68.4176 15.3385 68.3289C15.1848 68.2994 15.0362 68.269 14.8842 68.2386C14.5726 68.1769 14.2619 68.1153 13.9597 68.052C13.7849 68.0148 13.6152 67.9777 13.4438 67.9405C13.171 67.8814 12.9008 67.8215 12.6357 67.7607C12.4626 67.721 12.2929 67.6805 12.1232 67.6408C11.8691 67.5808 11.6183 67.52 11.3717 67.4593C11.2071 67.4187 11.045 67.3782 10.8837 67.3368C10.6405 67.2743 10.4033 67.2127 10.1686 67.1502C10.0183 67.1105 9.86797 67.0708 9.72105 67.0303C9.47872 66.9645 9.24568 66.8986 9.01349 66.8336C8.88853 66.7981 8.76103 66.7627 8.63944 66.728C8.37601 66.6521 8.12439 66.5769 7.87616 66.5026C7.79594 66.479 7.71151 66.4545 7.63383 66.43C7.31129 66.332 7.00226 66.2349 6.70759 66.1412C6.64764 66.1218 6.5936 66.1041 6.53449 66.0847C6.30399 66.0104 6.07939 65.9369 5.86747 65.866C5.76952 65.833 5.68086 65.8027 5.58714 65.7706C5.42756 65.7165 5.26967 65.6625 5.12275 65.6118C5.02228 65.5764 4.9294 65.5443 4.83483 65.5105C4.70818 65.4658 4.58406 65.4219 4.46839 65.3796C4.37804 65.3467 4.29445 65.3163 4.21086 65.2859C4.10279 65.2462 4.00231 65.2091 3.90521 65.1728C3.83344 65.1457 3.7642 65.1196 3.69835 65.0951C3.608 65.0605 3.52694 65.0292 3.44842 64.9988C3.39016 64.976 3.33359 64.9549 3.28293 64.9347C3.21792 64.9093 3.16556 64.8882 3.11153 64.8663C3.06424 64.8477 3.01611 64.8283 2.97812 64.8131C2.97643 64.8131 2.97306 64.8114 2.97137 64.8105C2.03499 65.8525 -2.06683 71.0941 3.87228 77.2291L11.0011 82.7537L13.09 77.1684L13.0891 77.1675Z" fill="#955B50"/>
<path d="M61.5664 4.59564L67.8643 5.15207C67.8753 5.15291 67.8863 5.15376 67.8981 5.15376C68.0915 5.15376 68.2552 5.00599 68.273 4.80926C68.2916 4.60155 68.1379 4.41833 67.9302 4.39975L61.6322 3.84333C61.4321 3.82476 61.2413 3.97674 61.2227 4.18614C61.2041 4.39384 61.3578 4.57707 61.5655 4.59564H61.5664Z" fill="#231F20"/>
<path d="M92.6451 54.734C92.467 53.6389 92.3141 52.6992 92.179 51.9502C92.1562 51.8202 92.1182 51.6986 92.0921 51.5703C92.1047 51.572 92.1157 51.5779 92.1292 51.5779C93.6423 51.5779 94.8725 50.3468 94.8725 48.8346V36.2412C94.8725 34.7282 93.6423 33.498 92.1292 33.498H87.4693L94.4478 13.0167C94.5567 12.6748 94.6285 12.3429 94.6606 11.9562L94.6749 11.865L94.6631 11.8296L94.669 11.6928L94.6665 11.6675C94.6648 11.6379 94.6614 11.5982 94.6597 11.5644C94.6665 11.1406 94.6108 10.7311 94.49 10.3427C94.4824 10.3106 94.4782 10.281 94.4706 10.2481L94.4503 10.1789C93.9209 8.06126 92.0102 4.46267 85.1693 3.80408L45.4429 0.0205772C43.4317 -0.172777 41.537 1.01268 40.8362 2.89557L28.9614 34.6716C28.2859 34.3609 27.5673 34.1574 26.8159 34.078C23.5162 33.7217 21.2086 33.2624 19.3553 32.8934C18.6629 32.7558 18.0212 32.6283 17.3947 32.5177C16.5039 32.364 15.641 32.4619 14.9039 32.7988C9.34219 35.2719 10.3579 41.3748 10.3689 41.4356C10.3723 41.4559 10.3833 41.4728 10.3892 41.4914C8.83474 41.8477 7.35714 42.8001 6.46214 44.1586C5.00649 46.3691 5.26064 49.1833 7.13846 51.9646C5.91078 52.0254 3.49343 52.4062 2.06902 54.376C0.524716 56.5131 0.654744 59.8474 2.438 64.276C1.47629 65.3685 -3.02913 71.1852 3.36762 77.788L10.7227 83.4924L8.16264 90.3391C8.08834 90.5274 8.03262 90.7225 7.97858 90.9479C7.58005 92.2051 7.47535 93.3239 7.67124 94.3017C7.70754 94.4646 7.74892 94.6132 7.77762 94.6909L7.79198 94.7871L7.81731 94.826C8.25299 96.0866 9.27464 97.0069 10.7109 97.4207L12.6478 97.918C12.7787 97.956 12.9231 97.9931 13.0522 98.026C13.1316 98.0497 13.2177 98.0725 13.3047 98.0911L15.9838 98.7817L16.0032 98.7851C16.0302 98.7944 16.0615 98.8037 16.0953 98.8138L22.5747 100.486C25.3307 101.197 28.4438 102 31.6489 102.823L55.2297 108.875L55.299 108.91C61.8671 112.269 67.9886 114.206 71.0536 115.062C72.1613 115.37 73.129 116.006 73.85 116.901L79.9893 124.484L80.0914 124.52C83.0601 125.545 85.8659 126.001 88.4926 126C97.8412 126 104.906 120.225 108.821 113.78C112.578 107.594 113.456 100.787 110.766 98.2422C98.4086 90.1247 94.3684 65.3229 92.6434 54.7323L92.6451 54.734ZM92.1292 34.2519C93.2252 34.2519 94.1177 35.1436 94.1177 36.2404V48.8338C94.1177 49.9306 93.226 50.8222 92.1292 50.8222C92.0566 50.8222 91.9924 50.8484 91.935 50.8838C91.7839 50.2936 91.6091 49.7178 91.3862 49.1774C90.1416 46.1521 87.1552 44.1831 83.8454 44.1325L87.2354 34.1836C87.2954 34.2232 87.3629 34.2519 87.4397 34.2519H92.1292ZM93.7191 10.3511L93.7385 10.4634L93.747 10.4769C93.7715 10.5842 93.7934 10.6889 93.8112 10.7885C93.8112 10.7927 93.8129 10.7978 93.8137 10.8028C93.8331 10.9143 93.8483 11.0198 93.861 11.1212C93.8618 11.1304 93.8635 11.1414 93.8652 11.1499C93.8914 11.3618 93.904 11.5484 93.9125 11.7088C93.91 11.757 93.9091 11.7992 93.9108 11.8135L93.904 11.9376V11.9393C93.904 11.9545 93.904 11.9689 93.904 11.9807C93.8779 12.2332 93.8188 12.5025 93.7301 12.7778L83.0407 44.151C82.958 44.1569 82.8752 44.1696 82.7925 44.178C82.7047 44.1873 82.6168 44.1949 82.5299 44.2068C82.3939 44.2253 82.2589 44.249 82.1238 44.2743C82.0427 44.2895 81.9608 44.3022 81.8797 44.3199C81.732 44.352 81.5859 44.3917 81.4398 44.4313C81.3731 44.4499 81.3056 44.4651 81.2389 44.4845C81.027 44.5487 80.8159 44.6196 80.6073 44.7007C80.3675 44.7944 80.1134 44.8915 79.8516 44.9911C79.7984 45.0114 79.7469 45.0317 79.692 45.0519C79.4489 45.144 79.193 45.2402 78.9271 45.3399C78.8384 45.3728 78.7481 45.4066 78.656 45.4403C78.4061 45.5332 78.1452 45.6295 77.8716 45.7291C77.7239 45.7831 77.5677 45.8397 77.4115 45.8963C77.2747 45.9461 77.1311 45.9976 76.9884 46.05C76.8348 46.1057 76.6836 46.1606 76.5224 46.218L88.9722 9.68578C89.2382 8.88956 89.2796 8.04268 89.093 7.23634C89.0406 7.01258 88.9697 6.79643 88.8861 6.58788C88.8574 6.51611 88.8194 6.45025 88.7865 6.38017C88.7248 6.24676 88.6632 6.11336 88.5889 5.98755C88.5433 5.91072 88.4901 5.83979 88.4403 5.76549C88.3668 5.65573 88.2934 5.54681 88.2106 5.44464C88.1507 5.37118 88.0857 5.30364 88.0215 5.23356C87.9632 5.17023 87.9109 5.10184 87.8492 5.04189C92.0456 6.19779 93.3333 8.77895 93.7174 10.3469L93.7191 10.3511ZM41.5446 3.15985C42.1264 1.59697 43.707 0.617528 45.372 0.772887L85.0967 4.55639C85.2647 4.57328 85.4285 4.60705 85.5898 4.64505C85.6185 4.6518 85.6497 4.65349 85.6784 4.66109C85.7646 4.68389 85.8456 4.7202 85.9301 4.7489C87.1273 5.15757 88.0629 6.14545 88.3592 7.41281C88.4369 7.74801 88.4673 8.09166 88.4504 8.43446C88.4445 8.54844 88.4259 8.66243 88.4099 8.77642C88.3778 9.00354 88.3322 9.22983 88.2588 9.45021L82.3103 26.9053L75.6155 46.549C75.0034 46.7651 74.3693 46.9872 73.7352 47.2084L85.9216 11.4623C86.2002 10.6399 86.1209 9.82678 85.6979 9.1741C85.2765 8.52396 84.5715 8.12121 83.7128 8.04015C72.0279 6.929 52.9635 5.1677 44.8232 4.41623C44.7413 4.40863 44.6594 4.40525 44.5783 4.40525C44.5412 4.40525 44.5057 4.41201 44.4686 4.4137C44.4103 4.41623 44.3529 4.42045 44.2955 4.42721C44.2102 4.4365 44.1266 4.45 44.0439 4.46774C43.9924 4.47871 43.9417 4.48969 43.891 4.50404C43.8058 4.52768 43.723 4.55554 43.6411 4.58679C43.5947 4.60452 43.5482 4.62141 43.5035 4.64252C43.4224 4.67882 43.3447 4.72104 43.2671 4.76579C43.2248 4.79027 43.1818 4.81307 43.1404 4.84009C43.0661 4.88906 42.9969 4.9431 42.9276 4.99883C42.8888 5.03007 42.8491 5.05878 42.8128 5.09171C42.7461 5.15165 42.6862 5.21836 42.6262 5.28506C42.5933 5.32137 42.5587 5.35514 42.5274 5.39313C42.4675 5.46828 42.4143 5.54934 42.3628 5.63124C42.3391 5.66754 42.313 5.70132 42.291 5.73847C42.2209 5.8609 42.1601 5.98924 42.1095 6.12434L30.9388 36.0141L30.9363 36.0116C30.7598 35.8368 30.5707 35.6747 30.3739 35.5202C30.3148 35.4737 30.2524 35.4323 30.1916 35.3876C30.048 35.2829 29.9003 35.1833 29.7474 35.0895C29.7103 35.0667 29.6782 35.0397 29.6411 35.0178L41.5463 3.16069L41.5446 3.15985ZM51.9207 49.8174C50.422 49.5523 48.7798 50.5891 48.258 52.1368C47.9869 52.9415 48.0528 53.7841 48.4404 54.4486C48.795 55.0583 49.3835 55.4694 50.0961 55.6079L55.7971 56.7123C55.8056 56.8888 55.8073 57.0644 55.8377 57.2409C55.8951 57.5761 55.9761 57.9223 56.0842 58.2718C56.0867 58.2803 56.0884 58.2887 56.091 58.2972C56.1298 58.4204 56.1737 58.5462 56.221 58.6729C56.2531 58.759 56.2902 58.8451 56.3265 58.9304C56.3544 58.9963 56.3797 59.0613 56.4101 59.1272C56.4599 59.2369 56.5148 59.345 56.5714 59.4539C56.5874 59.4843 56.6026 59.5147 56.6187 59.5443C56.6862 59.6709 56.7605 59.7959 56.8382 59.92C56.8416 59.9259 56.8449 59.931 56.8492 59.9369C57.4655 60.9163 58.4011 61.8206 59.7976 62.4834C59.8145 62.491 59.8314 62.4995 59.8474 62.5071C60.0273 62.5907 60.2139 62.6709 60.4098 62.746C60.4613 62.7663 60.5153 62.7857 60.5677 62.8051C60.7416 62.8693 60.9198 62.9309 61.1064 62.9875C61.1984 63.0153 61.2955 63.0407 61.3909 63.0669C61.5547 63.1116 61.7168 63.1572 61.8899 63.1969C62.0385 63.2307 62.1964 63.2594 62.3518 63.2889C62.4885 63.3151 62.6203 63.3438 62.7621 63.3666C63.072 63.4156 63.3928 63.4578 63.7306 63.4899C64.2828 63.5414 64.8384 63.5616 65.3948 63.5659C65.4826 63.5659 65.5704 63.5692 65.6582 63.5684C66.1893 63.5659 66.7187 63.5397 67.2473 63.4941C67.2954 63.4899 67.3435 63.4916 67.3916 63.4873L55.3336 98.8772C54.979 99.9081 53.8788 100.497 52.8352 100.223C45.5029 98.2853 32.2636 94.8589 13.4845 90.0386C13.0311 89.922 12.6622 89.6299 12.4443 89.2162C12.2307 88.8067 12.1994 88.3229 12.3607 87.8889L16.8298 75.9262C20.1076 74.3996 21.7186 71.9485 21.5134 68.8135C21.5269 68.8118 21.5396 68.8084 21.5531 68.8059C21.7304 68.778 21.9052 68.7467 22.0774 68.7096C22.2218 68.6784 22.3645 68.6446 22.5055 68.6066C22.6482 68.5686 22.7884 68.5272 22.9277 68.4825C22.9724 68.523 23.0239 68.5568 23.0864 68.572L49.4865 75.0278C49.5169 75.0354 49.5473 75.0388 49.5769 75.0388C49.7474 75.0388 49.9011 74.9231 49.9433 74.7509C49.9931 74.5482 49.869 74.3439 49.6672 74.2949L24.0566 68.0324C24.1233 67.9995 24.1883 67.9649 24.2541 67.9303C24.4112 67.8475 24.5632 67.7546 24.716 67.6618C24.8291 67.5934 24.9431 67.5284 25.0537 67.4541C25.2218 67.3401 25.383 67.2134 25.5443 67.0868C25.6304 67.0184 25.7208 66.9576 25.8052 66.8858C26.0484 66.6798 26.2839 66.4611 26.5102 66.2247C27.1097 65.5948 27.4914 64.8315 27.6433 64.0142L55.3353 70.3527C55.3631 70.3594 55.3918 70.362 55.4197 70.362C55.5919 70.362 55.7481 70.2438 55.7878 70.069C55.8343 69.8655 55.7076 69.6637 55.5041 69.6173L36.21 65.2014L27.7176 63.2577C27.7202 62.936 27.6932 62.6109 27.6239 62.2842C27.3216 60.8454 26.3338 59.6498 24.9811 59.0849L23.376 58.4137L23.4334 58.2609C23.5702 58.2685 23.696 58.2642 23.8294 58.2684C23.9552 58.2718 24.0887 58.2828 24.2111 58.2828C24.2575 58.2828 24.2997 58.2786 24.3462 58.2777C24.4889 58.2761 24.6257 58.2685 24.7641 58.2617C24.9457 58.2533 25.1272 58.2448 25.3011 58.2288C25.4295 58.2169 25.5527 58.2001 25.6769 58.1849C25.8077 58.168 25.9411 58.1553 26.0678 58.1342L37.881 60.6579C37.9072 60.6639 37.9342 60.6664 37.9604 60.6664C38.1343 60.6664 38.2905 60.5448 38.3293 60.3675C38.3733 60.164 38.2424 59.9631 38.0389 59.92L27.694 57.7103C27.7126 57.7036 27.7303 57.6951 27.7497 57.6884C27.8494 57.6512 27.9456 57.6124 28.0419 57.5727C28.177 57.5161 28.3095 57.457 28.4379 57.3946C28.5291 57.3506 28.6186 57.3059 28.7055 57.2586C28.8288 57.1928 28.9487 57.1244 29.0652 57.0543C29.1488 57.0036 29.2315 56.953 29.3118 56.8998C29.4232 56.8263 29.5313 56.7495 29.6368 56.6718C29.7128 56.6152 29.7888 56.5595 29.8623 56.5012C29.9636 56.421 30.0599 56.3374 30.1544 56.2538C30.2237 56.1922 30.2937 56.1314 30.3596 56.0689C30.4508 55.982 30.5369 55.8933 30.6222 55.8038C30.6847 55.7388 30.7471 55.6746 30.8071 55.6079C30.889 55.5159 30.9667 55.4213 31.0435 55.3268C31.0984 55.2592 31.1541 55.1934 31.2065 55.125C31.2808 55.027 31.35 54.9274 31.4192 54.8278C31.4665 54.7594 31.5163 54.6918 31.5611 54.6234C31.6286 54.5204 31.6911 54.4157 31.7536 54.311C31.7933 54.2443 31.8355 54.1776 31.8735 54.1109C31.9377 53.9978 31.9951 53.8846 32.0533 53.7706C32.0837 53.7107 32.1175 53.6516 32.1462 53.5916C32.2112 53.4574 32.2712 53.324 32.3294 53.1897C32.3463 53.1509 32.3657 53.1112 32.3826 53.0715C32.4561 52.8976 32.5245 52.7245 32.587 52.5522C32.6258 52.445 32.6402 52.3361 32.668 52.2289L41.6535 53.9699C41.8165 54.002 41.982 54.0172 42.1475 54.0172C43.4613 54.0172 44.7894 53.0546 45.258 51.6843C45.5333 50.8813 45.4708 50.0479 45.0883 49.3961C44.7447 48.8126 44.179 48.4234 43.4942 48.2993L32.1184 46.2526C31.122 46.0753 30.0235 46.5447 29.2873 47.4296C29.2662 47.4212 29.2459 47.4136 29.2248 47.4051C29.1995 47.395 29.1758 47.3857 29.1496 47.3756C28.9436 47.2945 28.7292 47.2109 28.5122 47.1265C28.486 47.1164 28.4607 47.1062 28.4336 47.0961C28.2901 47.0404 28.1432 46.983 27.9954 46.9255C27.8992 46.8884 27.8063 46.8521 27.7084 46.8141L27.9769 46.1015L27.9954 46.0525C28.1356 45.9858 28.2589 45.9165 28.3914 45.849C28.5409 45.773 28.6962 45.6979 28.8364 45.6202C28.9825 45.54 29.1142 45.4572 29.251 45.3753C29.3802 45.2976 29.5152 45.2217 29.6368 45.1431C29.766 45.0595 29.8808 44.9743 30.0007 44.8898C30.1114 44.8122 30.2279 44.7345 30.3309 44.6559C30.444 44.569 30.5437 44.4812 30.6475 44.3942C30.7404 44.3165 30.8392 44.2388 30.9253 44.1603C31.0241 44.07 31.1085 43.9796 31.198 43.8893C31.274 43.8125 31.3559 43.7356 31.426 43.6579C31.5096 43.5651 31.5814 43.4713 31.6565 43.3785C31.7173 43.3025 31.7848 43.2273 31.8397 43.1513C31.9098 43.0559 31.9672 42.9597 32.0289 42.8643C32.0517 42.8288 32.077 42.7933 32.0989 42.7579L37.8709 43.1066C38.1073 43.1463 38.3488 43.1648 38.5928 43.1648C39.9986 43.1648 41.488 42.524 42.6211 41.4002L46.8412 37.2147C46.9695 37.3414 47.0919 37.4731 47.2287 37.5939C47.4601 37.7982 47.7032 37.989 47.9523 38.1714C48.0663 38.255 48.1845 38.331 48.301 38.4095C48.4285 38.4948 48.556 38.5801 48.6869 38.6594C48.8549 38.7624 49.0255 38.8578 49.1986 38.9507C49.2653 38.9862 49.332 39.0208 49.3995 39.0546C51.0443 39.893 52.8976 40.3135 54.827 40.3135C58.9676 40.3135 63.435 38.4289 66.8133 34.8582C69.8951 31.5999 71.4681 27.5318 71.1287 23.6977C70.8644 20.7256 69.4451 18.1469 67.1307 16.4371C61.9059 12.5768 53.59 14.0257 48.2023 19.7368C45.8465 22.2336 44.3875 25.2589 44 28.2841C43.978 28.3247 43.962 28.3694 43.9569 28.4167C43.94 28.5594 43.9417 28.6987 43.9299 28.8406C43.9189 28.9706 43.9121 29.1006 43.9054 29.2315C43.8885 29.5566 43.8834 29.8774 43.8936 30.1957C43.8953 30.2666 43.8877 30.3384 43.891 30.4093C43.8961 30.5132 43.9113 30.6128 43.9189 30.7158C43.9324 30.9016 43.9468 31.0865 43.9696 31.2697C44.0059 31.5695 44.0565 31.8616 44.1148 32.1512C44.13 32.2222 44.1384 32.2956 44.1553 32.3665C44.3377 33.1771 44.6146 33.9429 44.9743 34.6606C44.9802 34.6716 44.9862 34.6826 44.9921 34.6944C45.1601 35.0271 45.3492 35.3479 45.5544 35.6586C45.5865 35.7076 45.6186 35.7557 45.6515 35.8039C45.8372 36.0732 46.0365 36.3324 46.2501 36.5832C46.2738 36.611 46.2923 36.6414 46.316 36.6693L42.0867 40.864C40.9274 42.0148 39.3578 42.589 37.9545 42.3568L32.4704 42.0241C32.4966 41.96 32.5177 41.8958 32.5405 41.8325C32.5642 41.7649 32.5937 41.6982 32.614 41.6307C32.6461 41.526 32.668 41.4221 32.6917 41.3174C32.706 41.2558 32.7254 41.1925 32.7364 41.1308C32.7567 41.0219 32.7677 40.9147 32.7795 40.8074C32.7862 40.7517 32.7964 40.6951 32.8014 40.6394C32.8099 40.5288 32.8099 40.4207 32.8107 40.3126C32.8107 40.2611 32.8158 40.2088 32.8141 40.1573C32.8116 40.0425 32.8006 39.9302 32.7905 39.8179C32.7862 39.7748 32.7862 39.73 32.7812 39.687C32.7668 39.5671 32.7457 39.4497 32.7246 39.3332C32.7187 39.2994 32.7145 39.2648 32.7077 39.2319C32.6815 39.1027 32.6486 38.9769 32.6148 38.8528C32.6098 38.8334 32.6055 38.8131 32.6005 38.7937C32.5591 38.6501 32.5144 38.5108 32.4645 38.374C32.3615 38.0861 32.2323 37.8092 32.0871 37.5407C32.0702 37.5103 32.0559 37.479 32.039 37.4486C31.8963 37.1953 31.7325 36.9538 31.5535 36.72C31.5358 36.6972 31.5239 36.6718 31.5062 36.6499L42.817 6.38355C43.1117 5.58649 43.9045 5.08242 44.7539 5.16347C52.8943 5.91494 71.9587 7.67539 83.6427 8.78655C84.2667 8.84565 84.7725 9.12767 85.0646 9.58023C85.1389 9.69422 85.1972 9.8158 85.2402 9.9433C85.2833 10.0708 85.3112 10.205 85.323 10.3435C85.3475 10.6205 85.3086 10.9151 85.2073 11.2149L79.5257 27.8814L72.8284 47.5276L72.7406 47.5605C72.2466 47.731 71.7485 47.9016 71.2503 48.0722C71.1127 48.1194 70.9759 48.1659 70.8383 48.2132C70.4051 48.3609 69.972 48.5078 69.5388 48.6548C69.2906 48.7383 69.0432 48.8228 68.7958 48.9055C68.6666 48.9494 68.5383 48.9925 68.4091 49.0356C65.6776 49.9542 63.0728 50.8112 61.0312 51.4774C60.9991 51.4614 60.9679 51.4445 60.9307 51.4377L51.9207 49.8174ZM59.5553 51.9587C59.3299 52.0321 59.1137 52.1022 58.9119 52.1672C57.2046 52.7203 56.0335 54.2359 55.8233 55.9499L50.238 54.8674C49.7423 54.7712 49.3345 54.4875 49.0914 54.0695C48.8144 53.5933 48.7705 52.9769 48.9723 52.3783C49.381 51.1701 50.6492 50.3561 51.7865 50.5604L59.5553 51.9587ZM30.4347 47.8856C30.3064 47.8341 30.1688 47.78 30.0337 47.7268C30.5867 47.1679 31.3238 46.8783 31.9824 46.999L43.3583 49.0457C43.8235 49.1293 44.206 49.391 44.4356 49.782C44.7067 50.243 44.7455 50.8484 44.5429 51.4428C44.1317 52.6443 42.8956 53.4464 41.7945 53.2328L32.7769 51.485C32.8344 49.9643 31.9334 48.4791 30.4347 47.8872V47.8856ZM55.3961 35.0414C55.4923 35.0448 55.5869 35.0524 55.684 35.0524C56.4549 35.0524 57.2426 34.9333 58.0253 34.7231L59.4261 38.7751C57.6099 39.3932 55.7574 39.6473 53.9902 39.5283L55.3961 35.0414ZM55.152 34.2655C54.1532 34.1945 53.2379 33.9193 52.4518 33.4701C52.4096 33.4456 52.3674 33.4237 52.326 33.3975C52.0778 33.2472 51.8414 33.0825 51.6227 32.8959C51.464 32.7608 51.317 32.6165 51.1786 32.4662C51.138 32.4223 51.1009 32.3758 51.062 32.3302C50.9658 32.2196 50.8738 32.1065 50.7876 31.9883C50.7488 31.9351 50.7125 31.881 50.6762 31.827C50.596 31.7071 50.5208 31.5838 50.4507 31.458C50.4212 31.4057 50.3916 31.3533 50.3646 31.3001C50.2903 31.1541 50.2228 31.0038 50.162 30.8501C50.1476 30.8138 50.1307 30.7783 50.1164 30.742C49.9695 30.3477 49.8681 29.9306 49.8116 29.4958C49.8065 29.4586 49.8048 29.4206 49.8006 29.3826C49.7812 29.2078 49.7694 29.0297 49.7651 28.849C49.7626 28.7646 49.7651 28.6801 49.7668 28.5957C49.7694 28.4243 49.7736 28.252 49.7888 28.0764C49.945 26.3058 50.7826 24.5091 52.1791 23.0289C55.1858 19.8424 59.9336 19.0158 62.7663 21.1849C63.9746 22.1111 64.71 23.4959 64.8375 25.0832C65.0055 27.189 64.1249 29.4307 62.4202 31.2334C61.2026 32.5219 59.7267 33.4169 58.2128 33.8965C58.1891 33.8999 58.1664 33.8982 58.1436 33.9058C58.13 33.9108 58.1199 33.921 58.1072 33.9269C57.1329 34.2224 56.1475 34.3431 55.2035 34.2807C55.1867 34.2773 55.1715 34.2663 55.1537 34.2655H55.152ZM58.7489 34.5044C60.2738 33.9683 61.7447 33.0471 62.9681 31.7527C64.8189 29.7947 65.7747 27.3418 65.589 25.0241C65.4454 23.2206 64.6045 21.6442 63.224 20.5871C60.094 18.1892 54.892 19.0538 51.6294 22.5122C50.2084 24.0177 49.3252 25.8338 49.0795 27.6543C47.6602 27.7851 46.2037 27.9177 44.7903 28.0443C45.2217 25.2901 46.5938 22.546 48.7502 20.2586C51.9191 16.899 56.2725 15.0811 60.2713 15.0811C62.638 15.0811 64.8806 15.7178 66.6816 17.0476C68.8194 18.6265 70.1307 21.0135 70.3756 23.7669C70.6964 27.3858 69.1977 31.2402 66.2636 34.3414C64.4626 36.2454 62.3391 37.6378 60.132 38.5083L58.7473 34.5036L58.7489 34.5044ZM49.0086 28.4184C49.0061 28.4834 49.0128 28.5467 49.012 28.6117C49.0111 28.762 49.0018 28.9132 49.0103 29.0626C49.0255 29.3404 49.0626 29.6114 49.1099 29.8783C49.1108 29.885 49.1125 29.8918 49.1141 29.8985C49.1538 30.118 49.2045 30.3325 49.2653 30.5428C49.2737 30.5723 49.2839 30.6019 49.2923 30.6314C49.3489 30.8155 49.4122 30.9962 49.4848 31.1726C49.5034 31.2174 49.522 31.2621 49.5405 31.306C49.6089 31.4631 49.6841 31.6159 49.7651 31.7662C49.7938 31.8202 49.8225 31.8743 49.8529 31.9266C49.9323 32.0634 50.0184 32.1951 50.1088 32.3252C50.1476 32.3817 50.1839 32.4391 50.2253 32.494C50.319 32.6198 50.4203 32.7397 50.5242 32.8588C50.5673 32.9086 50.6078 32.9609 50.6525 33.0091C50.8037 33.1703 50.9633 33.3249 51.133 33.4701C51.3533 33.6584 51.5889 33.823 51.8296 33.9767C51.8684 34.0012 51.9072 34.0265 51.9469 34.0502C52.7558 34.5424 53.6643 34.8489 54.6243 34.9772L53.2286 39.4337C52.196 39.302 51.2191 39.0368 50.3165 38.6527C50.2464 38.6223 50.1763 38.591 50.1062 38.5589C49.9028 38.4669 49.7027 38.3707 49.5076 38.266C49.2653 38.1342 49.0272 37.9932 48.7958 37.8404C48.7055 37.7813 48.6185 37.7188 48.5307 37.6572C48.2546 37.4613 47.9827 37.257 47.726 37.0298C47.6019 36.9201 47.4947 36.7968 47.3782 36.6811L48.7072 35.3623C48.8549 35.2153 48.8558 34.9764 48.7097 34.8286C48.562 34.6809 48.3238 34.6792 48.1752 34.8261L46.8564 36.134C46.8564 36.134 46.8505 36.1264 46.8471 36.1222C46.6537 35.895 46.4697 35.6612 46.2999 35.4171C46.2712 35.3758 46.2434 35.3327 46.2147 35.2905C46.034 35.0195 45.866 34.74 45.7148 34.4495C45.7038 34.4284 45.692 34.4073 45.6819 34.3862C45.1964 33.4338 44.8755 32.3868 44.7261 31.2807C44.7041 31.1144 44.694 30.9438 44.6797 30.7741C44.6653 30.6086 44.6509 30.4431 44.645 30.2751C44.6315 29.9078 44.6366 29.5388 44.6594 29.1682C44.6619 29.12 44.6611 29.0736 44.6645 29.0255C44.6695 28.9529 44.6856 28.8811 44.6923 28.8085C46.1074 28.6818 47.58 28.5476 49.0078 28.4158L49.0086 28.4184ZM15.2163 33.487C15.8183 33.2117 16.5301 33.134 17.2672 33.2615C17.887 33.3705 18.5236 33.4971 19.21 33.6339C21.0777 34.0054 23.403 34.4689 26.7374 34.8286C27.5361 34.9131 28.296 35.1461 28.9934 35.5218L28.9977 35.5235C29.6959 35.8874 30.2963 36.3713 30.7868 36.9657C31.2132 37.4681 31.5374 38.0279 31.7536 38.6307C32.0027 39.3189 32.1006 39.9774 32.0483 40.6065C32.017 40.9847 31.9242 41.3512 31.784 41.7075C31.7241 41.8612 31.6531 42.0123 31.5729 42.1609C31.5611 42.1803 31.5484 42.1989 31.54 42.2209C31.3458 42.5687 31.1035 42.9065 30.7995 43.2315C30.0472 44.037 28.958 44.7725 27.5353 45.4336L27.5336 45.4344C27.282 45.5526 27.0109 45.67 26.7272 45.7865C26.631 45.8262 26.5246 45.8642 26.4249 45.903C26.2519 45.9706 26.0779 46.0381 25.8955 46.1048L25.1964 45.8372C20.8371 44.1553 15.1741 42.0334 12.9399 41.4745C12.3523 41.3275 11.7334 41.2963 11.1136 41.3613C11.1136 41.3411 11.1187 41.3225 11.1153 41.3014C11.0756 41.0742 10.1984 35.716 15.218 33.4844L15.2163 33.487ZM27.0253 46.4823L27.0033 46.5414L26.9408 46.5169C26.9569 46.5101 26.9721 46.5042 26.9873 46.4983C26.9999 46.4932 27.0126 46.4873 27.0253 46.4823ZM7.09455 44.574C8.31294 42.7241 10.7446 41.7075 12.755 42.209C14.9529 42.7587 20.5872 44.8704 24.9321 46.5473L26.9907 47.3486L27.439 47.525V47.5233C28.448 47.916 29.3734 48.2765 30.1553 48.5881C31.263 49.0263 31.9748 50.0716 32.0381 51.1836C32.0593 51.5542 32.0086 51.9325 31.876 52.2973C30.9912 54.7307 28.9267 57.5237 24.1849 57.5271C24.0954 57.5271 23.9966 57.5187 23.9054 57.517C23.6741 57.5119 23.4436 57.5085 23.1996 57.49C22.4962 57.4452 21.727 57.3304 20.9021 57.1472L20.5872 57.0762C20.2722 57.007 19.9497 56.9276 19.6018 56.8364L8.11283 52.0304C5.36787 48.3719 6.29327 45.7907 7.09455 44.574ZM2.68032 54.8218C4.23476 52.6662 7.32506 52.6983 7.7886 52.7135L8.2513 52.9069L20.2739 57.9358V57.9383L22.7461 58.9718L22.9277 59.0478L23.1075 59.1229L24.6873 59.7815C25.8111 60.251 26.631 61.2439 26.8817 62.4395C26.913 62.589 26.9358 62.7384 26.9484 62.887C26.962 63.0356 26.9662 63.1842 26.9611 63.3303C26.9611 63.343 26.9586 63.3548 26.9577 63.3674C26.9214 64.2346 26.5795 65.0553 25.9597 65.7046C24.4424 67.2877 22.519 68.1228 20.2207 68.181C19.8923 68.1895 19.5562 68.1819 19.2126 68.1582C18.8706 68.1346 18.5211 68.0991 18.1563 68.0443C17.7291 67.9801 17.3153 67.9142 16.8991 67.8408C16.411 67.758 15.9331 67.6711 15.4628 67.5816C15.31 67.5528 15.1639 67.5216 15.0128 67.4921C14.6996 67.4304 14.3871 67.3688 14.084 67.3046C13.9084 67.2675 13.7387 67.2295 13.5664 67.1915C13.2963 67.1324 13.0261 67.0733 12.7635 67.0133C12.5862 66.9728 12.4131 66.9306 12.2391 66.8892C11.9934 66.8309 11.7494 66.7727 11.5113 66.7136C11.3357 66.6697 11.1643 66.6258 10.9929 66.5819C10.7666 66.5236 10.5428 66.4662 10.325 66.4079C10.1587 66.364 9.99571 66.3193 9.83444 66.2754C9.62167 66.2171 9.41312 66.1588 9.20879 66.1014C9.05512 66.0575 8.90229 66.0145 8.75368 65.9714C8.55442 65.914 8.36106 65.8566 8.17109 65.7992C8.03008 65.7569 7.88823 65.7147 7.75314 65.6733C7.564 65.6151 7.38332 65.5585 7.20347 65.5019C7.08189 65.464 6.95776 65.4251 6.84125 65.3871C6.65633 65.328 6.4824 65.2706 6.31016 65.2132C6.21221 65.1811 6.10836 65.1473 6.01464 65.1161C5.81537 65.0494 5.62877 64.9852 5.44808 64.9219C5.39489 64.9033 5.33494 64.883 5.28343 64.8653C5.05293 64.7842 4.83762 64.7074 4.64004 64.6356C4.60373 64.6221 4.57503 64.6112 4.53956 64.5985C4.38252 64.5411 4.23222 64.4854 4.09797 64.4347C4.04563 64.4153 4.00341 64.3984 3.95444 64.3798C3.84889 64.3393 3.7442 64.2996 3.65638 64.2658C3.61839 64.2506 3.58715 64.2388 3.55253 64.2253C3.4664 64.1915 3.38197 64.1578 3.31611 64.1316C3.30176 64.1257 3.28909 64.1206 3.27558 64.1147C3.22915 64.0961 3.19621 64.0826 3.16244 64.0683C1.45265 59.8567 1.28969 56.7453 2.67863 54.8185L2.68032 54.8218ZM3.87169 77.2273C-2.06742 71.0923 2.0344 65.8498 2.97078 64.8087L2.97753 64.8113C3.01637 64.8265 3.06365 64.8459 3.11094 64.8645C3.16497 64.8864 3.21733 64.9067 3.28234 64.9329C3.33385 64.9531 3.39041 64.9751 3.44783 64.997C3.52635 65.0274 3.60657 65.0587 3.69776 65.0933C3.76362 65.1186 3.83201 65.1439 3.90462 65.171C4.00172 65.2073 4.1022 65.2444 4.21027 65.2841C4.29386 65.3145 4.37745 65.3457 4.4678 65.3778C4.58432 65.42 4.70759 65.464 4.83424 65.5087C4.92881 65.5425 5.02169 65.5754 5.12216 65.61C5.26992 65.6615 5.42697 65.7147 5.58655 65.7688C5.68027 65.8008 5.76893 65.8312 5.86687 65.8642C6.0788 65.9351 6.3034 66.0086 6.53391 66.0829C6.59301 66.1023 6.64621 66.12 6.707 66.1394C7.00167 66.234 7.3107 66.3302 7.63324 66.4282C7.71176 66.4518 7.7962 66.4763 7.87557 66.5008C8.1238 66.5751 8.37542 66.6503 8.63886 66.7262C8.76044 66.7617 8.88794 66.7963 9.0129 66.8318C9.24425 66.8976 9.47813 66.9627 9.72046 67.0285C9.86738 67.0682 10.0177 67.1079 10.168 67.1484C10.4027 67.2109 10.6399 67.2725 10.8831 67.335C11.0435 67.3764 11.2065 67.4169 11.3712 67.4574C11.6177 67.5182 11.8676 67.579 12.1226 67.639C12.2923 67.6795 12.462 67.7192 12.6351 67.7589C12.8994 67.8197 13.1704 67.8788 13.4432 67.9387C13.6146 67.9759 13.7843 68.0139 13.9591 68.0502C14.2622 68.1143 14.5721 68.1751 14.8836 68.2368C15.0356 68.2663 15.1834 68.2976 15.3379 68.3271C15.8073 68.4166 16.2844 68.5036 16.7716 68.5855C17.1929 68.6589 17.6117 68.7256 18.0457 68.7915C18.4316 68.8498 18.8014 68.8878 19.1636 68.9122C19.4304 68.93 19.693 68.9384 19.9505 68.9384C20.0054 68.9384 20.0578 68.9317 20.1126 68.9317C20.2579 68.9291 20.4006 68.9207 20.5433 68.9122C20.6116 68.9089 20.6809 68.908 20.7484 68.903C20.9207 71.7611 19.4608 73.9217 16.368 75.3124C16.3587 75.3166 16.3536 75.3242 16.3443 75.3293C15.5203 75.7016 14.5965 76.0199 13.596 76.2724L13.585 76.2749C10.7455 76.9867 8.0343 77.0137 7.65604 77.0137C7.61044 77.0137 7.61044 77.0129 7.60707 77.0137C7.40105 77.0137 7.23218 77.1792 7.22965 77.3869C7.22711 77.5955 7.39429 77.766 7.60284 77.7686C7.61213 77.7686 7.64084 77.7686 7.68643 77.7686C8.15842 77.7686 10.4702 77.7356 13.0885 77.1657L10.9996 82.751L3.87085 77.2265L3.87169 77.2273ZM56.2995 103.195L56.2674 103.277C56.2066 103.41 56.1416 103.535 56.0682 103.656C56.0048 103.757 55.9407 103.853 55.8554 103.964C55.7946 104.043 55.7346 104.122 55.6578 104.207C55.6088 104.265 55.5599 104.319 55.4847 104.385C55.2728 104.598 55.0355 104.781 54.7662 104.936C54.7273 104.96 54.6885 104.984 54.6294 105.013C54.5821 105.039 54.5399 105.059 54.4918 105.081L54.404 105.12C54.3634 105.139 54.3221 105.159 54.2621 105.18C54.1844 105.212 54.1135 105.236 54.0291 105.264C53.9311 105.298 53.8332 105.325 53.6972 105.358L53.6145 105.374C53.5292 105.394 53.4372 105.407 53.324 105.417C53.1594 105.438 52.9863 105.449 52.8124 105.444L52.722 105.445C52.6823 105.444 52.6435 105.443 52.5802 105.433C52.375 105.413 52.1707 105.381 51.963 105.331L49.8107 104.778C49.782 104.77 49.7542 104.763 49.6908 104.749L44.1063 103.32C43.8032 103.239 43.6225 103.188 43.6107 103.184L11.0596 94.8235C11.0511 94.8218 10.9633 94.799 10.8012 94.7424L10.7269 94.7171C10.6248 94.6799 10.5108 94.6318 10.385 94.5693C10.3419 94.5423 10.3191 94.5355 10.3301 94.5406L10.0337 94.3515L10.0236 94.343C9.96109 94.305 9.90284 94.2611 9.82853 94.1986C9.71201 94.1117 9.60816 94.0137 9.50853 93.8964L9.50515 93.893C9.41565 93.795 9.3329 93.6912 9.26789 93.6042L9.21892 93.5299C9.17924 93.4826 9.14209 93.4269 9.10324 93.356L9.04836 93.2521C8.99939 93.1669 8.95548 93.0816 8.92255 93.0056L8.84319 92.7996C8.8263 92.7574 8.80603 92.7042 8.78239 92.602C8.76213 92.5412 8.74524 92.4753 8.72751 92.3799C8.71316 92.3276 8.70387 92.2752 8.69627 92.1967C8.64139 91.8488 8.64645 91.4908 8.714 91.1278C8.75537 90.9564 8.80181 90.7833 8.87105 90.6093L13.9759 76.9546C14.6413 76.7798 15.2737 76.5764 15.8673 76.3475L11.6532 87.6263C11.4176 88.2612 11.4623 88.9679 11.7756 89.5674C12.0888 90.1652 12.6436 90.6043 13.2971 90.7715C32.0736 95.591 45.3112 99.0165 52.6427 100.954C52.8005 100.996 52.9601 101.018 53.1189 101.032C53.1594 101.035 53.1999 101.038 53.2404 101.04C53.2784 101.041 53.3164 101.047 53.3536 101.047C53.4313 101.047 53.5073 101.035 53.5833 101.029C53.6381 101.025 53.6939 101.024 53.7487 101.017C53.9016 100.995 54.0527 100.963 54.1996 100.916C54.2165 100.911 54.2334 100.904 54.2503 100.899C54.3913 100.851 54.5281 100.792 54.6598 100.724C54.7088 100.698 54.7535 100.668 54.8008 100.639C54.8928 100.584 54.9832 100.527 55.0685 100.462C55.1174 100.425 55.1639 100.385 55.2103 100.345C55.288 100.277 55.3623 100.206 55.4332 100.13C55.4754 100.085 55.5168 100.04 55.5565 99.9925C55.6266 99.9072 55.6891 99.8152 55.7498 99.7206C55.7794 99.6742 55.8115 99.6312 55.8377 99.5839C55.9187 99.4386 55.9913 99.2858 56.047 99.1237L68.2208 63.3962C68.3187 63.3835 68.4133 63.3598 68.5113 63.3455C68.9191 63.2864 69.3227 63.2163 69.7229 63.1336C69.8065 63.1158 69.8934 63.1074 69.977 63.0888L58.2381 97.5507L56.4008 102.933L56.2995 103.195ZM71.8937 76.8676L63.75 100.758L58.9229 97.869L70.8458 62.8777C70.9835 62.8423 71.1211 62.8 71.2579 62.7621C71.4175 62.7181 71.5779 62.6751 71.7375 62.6269C71.9072 62.5763 72.0769 62.5197 72.2458 62.464C72.4054 62.4125 72.5649 62.3627 72.7245 62.3069C72.8942 62.2478 73.0639 62.1828 73.2337 62.1203C73.3916 62.0612 73.5503 62.0055 73.7082 61.943C73.8787 61.8755 74.0493 61.802 74.2199 61.7303C74.3752 61.6652 74.5314 61.6028 74.6868 61.5335C74.859 61.4575 75.0296 61.3748 75.201 61.2946C75.2567 61.2684 75.3133 61.2431 75.369 61.2169C72.8123 65.4893 71.6328 70.7394 71.8937 76.8676ZM57.116 103.169L57.9282 100.786L62.7199 103.779L61.9 106.185L57.0881 103.257C57.105 103.209 57.116 103.174 57.116 103.169ZM108.178 113.39C105.823 117.266 96.8778 129.453 80.441 123.843L74.4385 116.428C73.617 115.409 72.5177 114.686 71.257 114.336C68.6371 113.605 63.7635 112.077 58.2955 109.534C58.2998 109.534 58.3048 109.534 58.309 109.534C58.3302 109.534 58.3513 109.538 58.3724 109.538C58.3884 109.538 58.4045 109.534 58.4213 109.534C59.8069 109.542 61.5733 109.054 62.4649 106.827C62.5088 106.725 62.5527 106.615 62.5873 106.509L72.0271 78.8181C73.0319 89.8773 78.1537 99.8262 78.2077 99.9309C78.2744 100.06 78.407 100.134 78.542 100.134C78.6012 100.134 78.6611 100.121 78.7168 100.091C78.9009 99.9951 78.9735 99.7671 78.8764 99.5822C78.8198 99.4733 73.2058 88.5669 72.6519 76.9799L72.6553 76.9698L72.6477 76.8997C72.3598 70.3907 73.7073 64.8966 76.6516 60.5676C76.8365 60.4671 77.0205 60.3599 77.2055 60.2543C77.3304 60.1826 77.4562 60.115 77.5812 60.0416C77.8978 59.855 78.2128 59.6608 78.526 59.4598C78.5294 59.4573 78.5345 59.459 78.5378 59.4564C80.3878 58.2693 81.4525 57.2899 81.4972 57.2493C81.6501 57.1075 81.6594 56.8694 81.5175 56.7157C81.3765 56.5629 81.1376 56.5528 80.9847 56.6946C80.9738 56.7039 79.92 57.6707 78.1351 58.8173C78.1317 58.8198 78.1266 58.8198 78.1233 58.8223C77.8125 59.0216 77.5001 59.2133 77.1869 59.3982C76.7993 59.627 76.4092 59.8398 76.0175 60.0466C74.5103 60.8412 72.9778 61.4744 71.4344 61.9321C71.111 62.0275 70.7868 62.1161 70.4625 62.1963L70.4515 62.1989C70.037 62.3061 69.6156 62.3998 69.1892 62.4792C68.7603 62.5594 68.3272 62.6253 67.8932 62.6768H67.8864C66.5296 62.8448 65.1533 62.8659 63.7973 62.7401C63.3852 62.7013 62.9968 62.6421 62.6186 62.5746C62.4961 62.5526 62.3771 62.529 62.2589 62.5037C61.9929 62.448 61.7388 62.3829 61.4905 62.312C61.3031 62.258 61.1224 62.1997 60.9476 62.1381C60.761 62.0731 60.5795 62.003 60.4039 61.9287C60.2384 61.8569 60.0771 61.7826 59.9251 61.7049C59.8348 61.6585 59.7503 61.607 59.6634 61.558C59.3856 61.4001 59.1272 61.2321 58.8942 61.0539C58.8342 61.0083 58.776 60.9619 58.7185 60.9138C58.4973 60.7314 58.2981 60.5397 58.1165 60.3422C58.0507 60.2704 57.9848 60.1995 57.9223 60.1243C57.8185 59.9994 57.7197 59.8727 57.6294 59.7435C57.5095 59.5696 57.3972 59.3897 57.2958 59.2015C57.2486 59.1145 57.2004 59.0284 57.1582 58.9406C57.0358 58.6856 56.9269 58.4204 56.8365 58.141C56.8238 58.103 56.8086 58.065 56.7977 58.027C56.1357 55.8224 57.3803 53.4582 59.5958 52.7397C59.714 52.7017 59.8491 52.657 59.9716 52.6181C60.159 52.5573 60.3524 52.494 60.5541 52.429C60.9096 52.3133 61.2786 52.1934 61.6594 52.0684C61.754 52.0372 61.8468 52.0068 61.9439 51.9756C64.3427 51.1912 67.1578 50.2599 70.015 49.2922C70.406 49.1597 70.7969 49.0271 71.1878 48.8937C71.3601 48.8355 71.5298 48.7763 71.702 48.7181C72.2205 48.5408 72.738 48.3626 73.2514 48.1853L73.5342 48.0806C74.1261 47.8746 74.7155 47.666 75.3065 47.4583L75.3048 47.4642L76.0419 47.2C76.0419 47.2 76.047 47.1983 76.0495 47.1974L76.2133 47.14C78.2296 46.4164 79.6794 45.8794 80.8843 45.4091C81.6771 45.1009 82.5012 44.927 83.3362 44.8941C86.5405 44.7269 89.4974 46.5709 90.6888 49.467C91.0231 50.2776 91.2747 51.1574 91.4369 52.0836C91.5711 52.8309 91.7239 53.7664 91.9004 54.8573C93.6414 65.5459 97.7188 90.5764 110.301 98.8349C112.691 101.103 111.758 107.497 108.179 113.391L108.178 113.39Z" fill="#231F20"/>
<path d="M105.41 17.907H102.99V11.4419C102.99 11.2333 102.821 11.0645 102.612 11.0645C102.404 11.0645 102.235 11.2333 102.235 11.4419V17.907H99.8149C98.3019 17.907 97.0708 19.1381 97.0708 20.6511V45.2899C97.0708 46.803 98.3019 48.0332 99.8149 48.0332H105.41C106.923 48.0332 108.154 46.8021 108.154 45.2899V20.6511C108.154 19.1381 106.923 17.907 105.41 17.907H105.41ZM107.398 45.2899C107.398 46.3867 106.506 47.2784 105.409 47.2784H99.8132C98.7164 47.2784 97.8239 46.3867 97.8239 45.2899V20.6511C97.8239 19.5543 98.7156 18.6619 99.8132 18.6619H105.409C106.505 18.6619 107.398 19.5543 107.398 20.6511V45.2899Z" fill="#231F20"/>
<path d="M113.85 55.7824H116.27V60.493C116.27 60.7016 116.439 60.8704 116.647 60.8704C116.856 60.8704 117.025 60.7016 117.025 60.493V55.7824H119.445C120.958 55.7824 122.189 54.5514 122.189 53.0383V28.3995C122.189 26.8865 120.958 25.6562 119.445 25.6562H113.849C112.336 25.6562 111.105 26.8873 111.105 28.3995V53.0383C111.105 54.5514 112.336 55.7824 113.849 55.7824H113.85ZM111.862 28.3995C111.862 27.3027 112.753 26.4111 113.851 26.4111H119.446C120.543 26.4111 121.436 27.3027 121.436 28.3995V53.0383C121.436 54.1351 120.544 55.0276 119.446 55.0276H113.851C112.754 55.0276 111.862 54.1351 111.862 53.0383V28.3995Z" fill="#231F20"/>
<path d="M133.48 19.0939H131.06V14.3833C131.06 14.1747 130.891 14.0059 130.683 14.0059C130.474 14.0059 130.305 14.1747 130.305 14.3833V19.0939H127.885C126.372 19.0939 125.142 20.3249 125.142 21.838V64.6876C125.142 66.2006 126.372 67.4317 127.885 67.4317H133.481C134.994 67.4317 136.225 66.2006 136.225 64.6876V21.838C136.225 20.3249 134.994 19.0939 133.481 19.0939H133.48ZM135.469 64.6876C135.469 65.7844 134.578 66.6769 133.48 66.6769H127.885C126.789 66.6769 125.896 65.7844 125.896 64.6876V21.838C125.896 20.7412 126.788 19.8487 127.885 19.8487H133.48C134.577 19.8487 135.469 20.7412 135.469 21.838V64.6876Z" fill="#231F20"/>
<path d="M66.3365 112.786C65.4069 106.185 67.1454 95.8012 72.6767 80.6005L72.0257 78.8164L62.4635 106.826L57.4447 109.074C56.825 109.827 64.1649 112.804 66.3365 112.786Z" fill="#231F20"/>
<path d="M46.1104 3.5L33.1104 36.5L64.1104 43.5L79.1104 6.5L46.1104 3.5Z" fill="white"/>
<path d="M44.928 35.8683L57.8414 39.8199C58.3504 39.9757 58.8922 39.6849 59.0492 39.1717L64.058 22.8038C64.215 22.2905 63.9287 21.7463 63.4197 21.5906L61.6492 21.0488C61.5264 21.0112 61.4691 21.1984 61.592 21.236L63.3624 21.7778C63.7692 21.9023 63.9978 22.337 63.8724 22.7471L58.8636 39.115C58.7382 39.525 58.3054 39.7574 57.8986 39.6329L44.9854 35.6813C44.5785 35.5568 44.35 35.1221 44.4754 34.712L44.9941 33.0172C45.032 32.8933 44.8463 32.8366 44.8084 32.9604L44.2898 34.6552C44.1327 35.1685 44.419 35.7127 44.928 35.8684L44.928 35.8683Z" fill="#0E2365"/>
<path d="M50.4294 22.7716C50.5844 22.9913 50.3411 23.2494 50.3102 23.3206L46.0814 22.0266L47.0701 18.7958C47.1629 18.4926 47.3737 18.2418 47.6557 18.103L51.2944 16.3097C51.5521 16.1838 51.8478 16.1597 52.1225 16.2438L61.7087 19.1772C62.3063 19.3601 62.6401 19.9945 62.4557 20.5972L57.602 36.4586C57.4175 37.0613 56.786 37.4002 56.1882 37.2173L43.7766 33.4193C43.1789 33.2363 42.8452 32.602 43.0296 31.9993L46.0241 22.2136L50.2046 23.4929L49.3413 24.9073L48.5831 26.2842C48.4892 26.4316 48.5468 26.6416 48.6944 26.7031L51.6657 27.6083C51.8493 27.685 52.0335 27.5612 52.0387 27.3581L52.0628 25.7401L52.0938 23.9933L52.0972 23.7037C52.0987 23.5527 52.1963 23.4065 52.3428 23.3653C54.2034 22.8793 54.3728 20.5695 52.9043 19.8852C51.1814 19.0866 49.3984 21.1907 50.4293 22.7716L50.4294 22.7716ZM58.3609 30.6479C58.346 30.6966 58.3732 30.754 58.4251 30.7699C58.4734 30.7847 58.5317 30.7534 58.5466 30.7047L60.4425 24.5092C60.4585 24.4567 60.4266 24.402 60.3783 24.3872C60.3264 24.3713 60.2729 24.3999 60.2568 24.4524L58.3609 30.6479ZM45.6082 31.3882C45.4841 31.3502 45.4296 31.5383 45.5509 31.5754L55.0889 34.4941C55.6123 34.6543 56.1721 34.3507 56.3337 33.8229L60.6902 19.5862C60.7285 19.4611 60.542 19.4071 60.5046 19.5293L56.148 33.7661C56.0174 34.1928 55.5693 34.4364 55.1461 34.3069L45.6081 31.3882L45.6082 31.3882Z" fill="#2ED66B"/>
<path d="M63.0642 10.7128L61.0698 17.2304L58.4829 16.4756L60.4337 10.1004C61.1998 7.58356 54.0974 5.41015 53.3275 7.92582L52.6654 10.0896C52.5577 10.4415 52.1836 10.6423 51.8347 10.5355L50.6318 10.1674C50.2828 10.0606 50.0852 9.68487 50.1929 9.33297L50.9088 6.99325C52.6318 1.363 64.7872 5.08267 63.0643 10.7129L63.0642 10.7128ZM60.5136 15.2791C60.4757 15.4032 60.6613 15.4602 60.6993 15.3359L61.8368 11.6187C61.8748 11.4947 61.6892 11.4376 61.6512 11.5618L60.5136 15.2791ZM58.929 6.28679C60.073 6.66141 61.043 7.55193 61.5189 8.66373C61.579 8.77777 61.7458 8.70162 61.6979 8.58342C61.2011 7.42013 60.186 6.49135 58.99 6.10082C58.8559 6.0709 58.8129 6.24199 58.929 6.28687L58.929 6.28679Z" fill="#0084FF"/>
<path d="M51.003 7.0198C52.6878 1.51423 64.658 5.17844 62.9736 10.6829C62.9357 10.8068 63.1214 10.8635 63.1593 10.7397C64.9203 4.98478 52.5783 1.2089 50.8174 6.96301C50.7795 7.08686 50.9652 7.14359 51.0031 7.01982L51.003 7.0198Z" fill="#0E2365"/>
<path d="M58.5747 16.503L60.5244 10.1303C61.3332 7.48738 54.0418 5.25669 53.2331 7.89915L52.572 10.0597C52.5341 10.1836 52.7198 10.2403 52.7576 10.1165L53.4188 7.95596C54.1508 5.56389 61.0681 7.69031 60.3388 10.0736L58.3891 16.4463C58.351 16.5706 58.5366 16.6278 58.5748 16.5031L58.5747 16.503Z" fill="#0E2365"/>
<path d="M50.403 13.2244L60.6389 16.3567C61.1142 16.5021 61.3775 17.0084 61.2308 17.4876L60.626 19.4642C60.4381 19.4067 60.7579 18.8672 56.1479 33.7661C56.0173 34.1928 55.5692 34.4364 55.146 34.3069L45.608 31.3882C45.556 31.3723 45.5026 31.401 45.4866 31.4534L42.2639 30.4672C41.7887 30.3218 41.5217 29.8144 41.6683 29.3352L45.9218 15.4354L50.403 13.2244ZM45.615 22.0109C45.6098 22.0543 45.6378 22.0956 45.6823 22.1093L50.2044 23.4931L49.3412 24.9075L48.5829 26.2844C48.489 26.4318 48.5466 26.6418 48.6942 26.7033L51.6655 27.6085C51.8491 27.6852 52.0333 27.5614 52.0385 27.3583L52.0626 25.7403L52.0936 23.9935L52.097 23.7039C52.0985 23.5529 52.1961 23.4067 52.3427 23.3655C54.2032 22.8795 54.3726 20.5697 52.9041 19.8853C51.1812 19.0868 49.3983 21.1909 50.4291 22.7718C50.5841 22.9915 50.3408 23.2495 50.3099 23.3207L45.7396 21.9222C45.6677 21.9002 45.6077 21.9671 45.615 22.0109L45.615 22.0109Z" fill="#F5AA40"/>
<path d="M44.5346 29.1104L45.6959 29.4658C45.8187 29.5034 45.876 29.3162 45.7532 29.2786L44.5919 28.9232C44.2659 28.8235 44.0453 28.5145 44.0549 28.1718C44.0577 28.0419 43.8648 28.0381 43.8605 28.1671C43.8486 28.5975 44.1256 28.9853 44.5346 29.1104ZM47.9235 30.1475L50.1511 30.8292C50.274 30.8667 50.3312 30.6795 50.2084 30.642L47.9808 29.9603C47.858 29.9227 47.8007 30.1099 47.9235 30.1475ZM52.3787 31.5108L53.9911 32.0042C54.2225 32.075 54.4702 32.0531 54.6892 31.9426C54.8035 31.8845 54.7186 31.71 54.6024 31.7677C54.4287 31.8557 54.2319 31.8732 54.0484 31.817L52.436 31.3236C52.3132 31.286 52.2559 31.4732 52.3787 31.5108ZM55.66 29.7872L56.3473 27.5411C56.3852 27.4172 56.1996 27.3605 56.1617 27.4843L55.4743 29.7304C55.4364 29.8542 55.6221 29.911 55.66 29.7872ZM44.7072 25.9453L45.3946 23.6992C45.4325 23.5754 45.2468 23.5186 45.2089 23.6424L44.5216 25.8885C44.4837 26.0124 44.6694 26.0691 44.7072 25.9453ZM57.0347 25.2949L57.722 23.0488C57.7599 22.9249 57.5742 22.8682 57.5364 22.992L56.849 25.2381C56.8111 25.3619 56.9968 25.4187 57.0347 25.2949ZM45.8304 21.9435C45.8815 21.9591 45.9361 21.93 45.9519 21.8783L46.5274 19.9976C46.5653 19.8737 46.3796 19.817 46.3417 19.9408L45.7662 21.8215C45.7504 21.8732 45.7793 21.9278 45.8304 21.9435ZM47.2147 17.7514C47.8785 15.6129 47.8301 15.6687 47.9175 15.5466C47.9928 15.4407 47.8343 15.328 47.7596 15.4327C47.715 15.4958 47.6813 15.563 47.6598 15.6333L47.029 17.6946C46.9911 17.8185 47.1768 17.8752 47.2147 17.7514ZM58.4094 20.8027L58.9051 19.1826C58.9772 18.947 58.9579 18.6954 58.8503 18.4743C58.7927 18.3579 58.6198 18.4458 58.6754 18.5611C58.7615 18.7374 58.7771 18.9378 58.7195 19.1258L58.2238 20.7459C58.1859 20.8697 58.3716 20.9264 58.4095 20.8027L58.4094 20.8027ZM49.9752 15.6475L52.2028 16.3292C52.3256 16.3668 52.3829 16.1796 52.2601 16.142L50.0325 15.4603C49.9096 15.4227 49.8523 15.61 49.9752 15.6475ZM54.4304 17.0109L56.658 17.6926C56.7809 17.7301 56.8381 17.5429 56.7153 17.5054L54.4877 16.8237C54.3649 16.7861 54.3076 16.9733 54.4304 17.0109Z" fill="#0E2365"/>
<path d="M45.9187 15.4466L49.2132 16.5255C49.3783 16.5796 49.5543 16.4839 49.5969 16.3139C50.303 13.5005 50.3617 13.4478 50.4209 13.23C49.6817 13.5936 45.6611 15.5729 45.9187 15.4466Z" fill="#0E2365"/>
<path d="M50.4288 23.3142L50.5036 23.1944C50.6003 23.0415 50.6026 22.8488 50.5086 22.7155C50.2244 22.2795 50.153 21.7253 50.3144 21.1979C50.3523 21.0741 50.1666 21.0174 50.1287 21.1411C49.9502 21.7244 50.0303 22.3386 50.3482 22.8263C50.4575 22.982 50.2832 23.1667 50.2646 23.2108C50.1965 23.3195 50.3598 23.4246 50.4288 23.3142Z" fill="#0E2365"/>
<path d="M46.6989 33.3017L52.9536 35.2157C53.0764 35.2532 53.1337 35.066 53.0109 35.0285L46.7562 33.1145C46.6334 33.0769 46.5761 33.2641 46.6989 33.3017Z" fill="#0E2365"/>
<path d="M52.1343 27.3602L52.1961 23.7062C52.1955 23.5901 52.2681 23.4879 52.3685 23.4613C54.3049 22.9504 54.5007 20.5197 52.9454 19.7986C52.8229 19.7473 52.7498 19.9237 52.8632 19.9762C54.2118 20.6013 54.1353 22.7933 52.3198 23.2721C52.1316 23.322 52.001 23.5004 52.0019 23.7059L51.9401 27.3569C51.9365 27.4915 51.8229 27.5695 51.7035 27.5199C51.5859 27.4661 51.5092 27.65 51.6278 27.7002C51.8656 27.8023 52.1275 27.6399 52.1342 27.3603L52.1343 27.3602Z" fill="#0E2365"/>
<path d="M44.4849 23.5564L49.5562 25.1082C49.679 25.1458 49.7363 24.9586 49.6134 24.921L44.5422 23.3692C44.4194 23.3316 44.3621 23.5188 44.4849 23.5564Z" fill="#0E2365"/>
<path d="M58.6614 33.0744L60.912 25.7198C60.9499 25.596 60.7642 25.5392 60.7264 25.663L58.4758 33.0176C58.4379 33.1414 58.6236 33.1982 58.6614 33.0744Z" fill="#0E2365"/>
<path d="M50.1904 36.4166L54.7036 37.7977C54.8264 37.8353 54.8837 37.6481 54.7609 37.6105L50.2477 36.2294C50.1248 36.1918 50.0675 36.379 50.1904 36.4166Z" fill="#0E2365"/>
</svg>
